<?xml version="1.0" encoding="UTF-8"?>

<svg version="1.2" baseProfile="tiny" width="210mm" height="297mm" viewBox="0 0 21000 29700" preserveAspectRatio="xMidYMid" fill-rule="evenodd" clip-path="url(#presentation_clip_path)" stroke-width="28.222" stroke-linejoin="round" xmlns="http://www.w3.org/2000/svg" xmlns:ooo="http://xml.openoffice.org/svg/export" xmlns:xlink="http://www.w3.org/1999/xlink" xml:space="preserve">
 <defs class="ClipPathGroup">
  <clipPath id="presentation_clip_path" clipPathUnits="userSpaceOnUse">
   <rect x="0" y="0" width="21000" height="29700"/>
  </clipPath>
 </defs>
 <defs class="TextShapeIndex">
  <g ooo:slide="id1" ooo:id-list="id3"/>
 </defs>
 <defs class="EmbeddedBulletChars">
  <g id="bullet-char-template(57356)" transform="scale(0.00048828125,-0.00048828125)">
   <path d="M 580,1141 L 1163,571 580,0 -4,571 580,1141 Z"/>
  </g>
  <g id="bullet-char-template(57354)" transform="scale(0.00048828125,-0.00048828125)">
   <path d="M 8,1128 L 1137,1128 1137,0 8,0 8,1128 Z"/>
  </g>
  <g id="bullet-char-template(10146)" transform="scale(0.00048828125,-0.00048828125)">
   <path d="M 174,0 L 602,739 174,1481 1456,739 174,0 Z M 1358,739 L 309,1346 659,739 1358,739 Z"/>
  </g>
  <g id="bullet-char-template(10132)" transform="scale(0.00048828125,-0.00048828125)">
   <path d="M 2015,739 L 1276,0 717,0 1260,543 174,543 174,936 1260,936 717,1481 1274,1481 2015,739 Z"/>
  </g>
  <g id="bullet-char-template(10007)" transform="scale(0.00048828125,-0.00048828125)">
   <path d="M 0,-2 C -7,14 -16,27 -25,37 L 356,567 C 262,823 215,952 215,954 215,979 228,992 255,992 264,992 276,990 289,987 310,991 331,999 354,1012 L 381,999 492,748 772,1049 836,1024 860,1049 C 881,1039 901,1025 922,1006 886,937 835,863 770,784 769,783 710,716 594,584 L 774,223 C 774,196 753,168 711,139 L 727,119 C 717,90 699,76 672,76 641,76 570,178 457,381 L 164,-76 C 142,-110 111,-127 72,-127 30,-127 9,-110 8,-76 1,-67 -2,-52 -2,-32 -2,-23 -1,-13 0,-2 Z"/>
  </g>
  <g id="bullet-char-template(10004)" transform="scale(0.00048828125,-0.00048828125)">
   <path d="M 285,-33 C 182,-33 111,30 74,156 52,228 41,333 41,471 41,549 55,616 82,672 116,743 169,778 240,778 293,778 328,747 346,684 L 369,508 C 377,444 397,411 428,410 L 1163,1116 C 1174,1127 1196,1133 1229,1133 1271,1133 1292,1118 1292,1087 L 1292,965 C 1292,929 1282,901 1262,881 L 442,47 C 390,-6 338,-33 285,-33 Z"/>
  </g>
  <g id="bullet-char-template(9679)" transform="scale(0.00048828125,-0.00048828125)">
   <path d="M 813,0 C 632,0 489,54 383,161 276,268 223,411 223,592 223,773 276,916 383,1023 489,1130 632,1184 813,1184 992,1184 1136,1130 1245,1023 1353,916 1407,772 1407,592 1407,412 1353,268 1245,161 1136,54 992,0 813,0 Z"/>
  </g>
  <g id="bullet-char-template(8226)" transform="scale(0.00048828125,-0.00048828125)">
   <path d="M 346,457 C 273,457 209,483 155,535 101,586 74,649 74,723 74,796 101,859 155,911 209,963 273,989 346,989 419,989 480,963 531,910 582,859 608,796 608,723 608,648 583,586 532,535 482,483 420,457 346,457 Z"/>
  </g>
  <g id="bullet-char-template(8211)" transform="scale(0.00048828125,-0.00048828125)">
   <path d="M -4,459 L 1135,459 1135,606 -4,606 -4,459 Z"/>
  </g>
 </defs>
 <defs class="TextEmbeddedBitmaps"/>
 <g>
  <g id="id2" class="Master_Slide">
   <g id="bg-id2" class="Background"/>
   <g id="bo-id2" class="BackgroundObjects"/>
  </g>
 </g>
 <g class="SlideGroup">
  <g>
   <g id="id1" class="Slide" clip-path="url(#presentation_clip_path)">
    <g class="Page">
     <g class="Graphic">
      <g id="id3">
       <path fill="rgb(252,252,253)" stroke="rgb(252,252,253)" d="M 1042,3949 L 14656,3949 14699,3991 14656,4034 14402,4034 13002,4500 9737,6324 6725,7639 1636,9209 1594,9209 1509,9124 1297,8572 1254,8530 1212,8530 1127,8572 1042,8657 1000,8615 1000,3991 Z M 15250,3949 L 19915,3949 19958,3991 19958,25666 19915,25709 11433,25709 11391,25666 11433,25624 11560,25581 11942,25581 13045,25369 14105,25030 15250,24479 16692,23461 17667,22485 18219,21764 18813,20788 19406,19261 19788,17480 19788,15783 19618,14680 19067,12984 18431,11796 17922,11075 17498,10608 17498,10566 17625,10439 17752,10354 17795,10354 17879,10311 17964,10227 18982,9718 19746,9421 19873,9421 19873,9378 19746,9251 19703,9251 18219,7809 18219,7682 18940,5518 18982,5476 18982,5434 17243,6155 17116,6197 16862,6324 17498,8106 17498,8233 17455,8275 17371,8275 17328,8233 17328,8063 17286,7851 15971,4416 15759,4203 15632,4119 15547,4076 15420,4034 15250,4034 15208,3991 Z M 13426,5179 L 13469,5179 13511,5221 13511,5306 13299,5688 13299,5730 13214,5815 13087,5900 13002,5943 12833,5943 12748,5900 12663,5815 12621,5688 12621,5646 12663,5603 12705,5476 12705,5434 12833,5306 12917,5391 12960,5476 13087,5476 13214,5391 Z M 15504,5264 L 15674,5264 15801,5391 15844,5476 15844,5646 15801,5773 15674,5943 15589,6027 15547,6027 15420,6155 15420,6324 15462,6536 15504,6664 15547,6706 15589,6706 15632,6664 15632,6621 15674,6494 15717,6452 15759,6452 15801,6494 15801,6748 15717,6918 15674,6961 15547,7045 15420,7088 15335,7088 15250,7045 15165,6961 15038,6621 15038,5943 15080,5773 15208,5518 15420,5306 Z M 15504,5518 L 15547,5561 15547,5773 15504,5858 15420,5900 15420,5603 Z M 14614,5518 L 14699,5518 14868,5688 14911,5773 14911,5815 14868,5900 14741,6027 14699,6027 14614,5985 14571,5943 14571,5900 14487,5858 14444,5900 14444,5943 14656,6367 14699,6494 14783,6664 14826,6706 14826,6918 14783,7088 14699,7257 14529,7427 14359,7512 14105,7512 14063,7470 14020,7554 14020,7597 13808,7809 13723,7851 13681,7851 13596,7809 13554,7766 13554,7724 13469,7639 13426,7682 13342,7851 13342,7894 13172,8063 13087,8106 13045,8106 12960,8063 12917,8021 12790,6833 12748,6664 12705,6621 12663,6664 12621,6664 12578,6621 12578,6536 12705,6409 12917,6239 13002,6197 13087,6282 13172,7385 13214,7554 13257,7554 13299,7512 13384,7257 13426,6833 13426,6579 13384,6536 13384,6070 13469,5985 13638,5943 13681,5943 13766,6027 13808,7215 13850,7342 13893,7342 14020,7215 14190,7003 14190,6961 14275,6876 14317,6876 14359,6918 14359,7088 14402,7173 14444,7173 14487,7130 14487,6918 14105,6070 14147,5943 14190,5858 14444,5603 Z M 12239,6621 L 12324,6621 12408,6706 12493,7809 12536,7936 12578,7979 12621,7936 12705,8021 12705,8191 12663,8233 12621,8318 12621,8360 12493,8488 12408,8530 12324,8530 12239,8488 12112,8360 11984,8615 11815,8784 11688,8827 11518,8742 11475,8700 11391,8572 11348,8403 11348,7894 11603,7173 11688,7045 11984,6748 12027,6748 12196,6664 Z M 12027,7088 L 12069,7088 12112,7257 12112,7554 12069,7809 11984,8106 11900,8275 11857,8318 11815,8318 11772,8275 11772,7809 11857,7385 11900,7257 11942,7173 Z M 9652,7088 L 9864,7088 9991,7130 10161,7300 10161,7597 10076,7809 10033,7851 10033,8148 10118,8275 10203,8360 10246,8360 10500,8615 10585,8784 10585,9124 10542,9166 10415,9421 10415,9463 10161,9718 10118,9718 9991,9760 9949,9802 9737,9802 9652,9760 9567,9675 9567,9463 9609,9378 9864,9124 9949,9081 9991,9081 10033,9124 10033,9166 9991,9209 9991,9378 10033,9421 10076,9421 10161,9378 10203,9336 10203,9039 10118,8912 9694,8488 9652,8403 9652,8063 9694,7936 9737,7894 9737,7597 9609,7470 9313,7470 9185,7512 9016,7597 8804,7809 8761,7936 8761,7979 8804,8063 9016,8063 9100,7979 9100,7936 9185,7682 9270,7597 9397,7554 9482,7554 9525,7597 9525,9293 9355,9802 9270,9972 9058,10184 9016,10184 8931,10227 8888,10269 8761,10269 8676,10227 8592,10142 8592,9845 8634,9760 8846,9548 8888,9548 8931,9590 8931,9760 8973,9802 9100,9802 9100,9760 9143,9633 9185,9590 9185,8233 9100,8318 9100,8360 9016,8445 8888,8530 8804,8572 8592,8572 8464,8445 8422,8360 8422,8148 8676,7639 8931,7427 9058,7342 Z M 11306,7173 L 11391,7173 11433,7215 11433,7257 11391,7300 11348,7470 11348,7597 11306,7639 11179,7682 11136,7682 11094,7724 11051,7809 11094,9039 11136,9081 11051,9166 10797,9293 10754,9251 10670,7894 10627,7851 10585,7851 10542,7894 10542,7936 10500,7979 10458,7979 10373,7894 10373,7851 10458,7766 10542,7639 10542,7597 10670,7470 11221,7215 Z M 16692,8063 L 16904,8063 17116,8106 17201,8148 17243,8191 17328,8360 17328,8572 17201,8784 16522,9506 16268,9887 16225,9972 16183,10015 16141,9972 15589,8445 15674,8360 15844,8275 Z M 7701,8148 L 7786,8148 7828,8191 7828,8275 7701,8615 7616,8700 7531,8700 7489,8657 7446,8488 7446,8360 7616,8191 Z M 15420,8445 L 15504,8445 15547,8488 15589,8572 15717,8954 15717,8997 15674,9039 15589,8997 15504,8912 15080,8700 14996,8615 15038,8572 15123,8572 15377,8488 Z M 5623,8572 L 5835,8572 5920,8657 5623,8954 5538,8869 5453,8869 5411,8912 5368,9251 5368,9972 5538,9802 5665,9718 5750,9675 5920,9675 6004,9760 6047,9887 6047,9930 6004,9972 6004,11075 6089,11075 6132,11033 6174,11033 6217,11075 6217,11160 6174,11202 6132,11287 6132,11329 5962,11499 5877,11542 5792,11542 5708,11457 5665,11372 5623,11033 5623,10227 5580,10184 5496,10184 5453,10227 5411,10311 5368,10439 5368,11329 5411,11372 5411,11584 5368,11626 5283,11669 5156,11711 5029,11711 4987,11669 4987,10227 4944,10184 4944,9548 5114,9039 5199,8912 5411,8700 5538,8615 Z M 1042,8700 L 1085,8742 1085,8827 2612,12772 2612,12899 2103,14299 1806,15826 1806,17395 2060,18880 2230,19473 2951,21085 3375,21764 3502,21891 3757,22230 3757,22273 4902,23461 6344,24479 7192,24903 8549,25369 9652,25581 10033,25581 10161,25624 10203,25666 10161,25709 1042,25709 1000,25666 1000,8742 Z M 7743,8912 L 7786,8912 7828,8954 7871,9039 7955,9930 7955,10820 7743,11372 7658,11499 7319,11838 7192,11923 6980,11923 6895,11838 6895,11754 6980,11626 7234,11372 7277,11414 7277,11457 7319,11499 7404,11499 7446,11457 7616,10863 7531,9378 7489,9336 7319,9336 7277,9293 7446,9124 Z M 4520,9081 L 4563,9081 4647,9166 4690,11796 4605,11881 4308,11966 4266,11923 4266,11287 4223,10948 4138,10948 3926,11033 3842,11202 3714,11669 3545,12008 3290,12263 3163,12305 3121,12305 2993,12263 2908,12220 2824,12135 2781,12051 2781,11796 2951,11372 3078,11245 3163,11245 3205,11287 3205,11329 3163,11372 3163,11838 3248,11923 3333,11881 3375,11838 3460,11669 3672,10269 3884,9548 4138,9293 4266,9209 Z M 8719,9081 L 8804,9081 8846,9124 8846,9251 8761,9336 8719,9336 8210,9590 8167,9633 8125,9633 8083,9590 8083,9421 8125,9378 8167,9378 8676,9124 Z M 13893,9124 L 14020,9124 15080,9675 16353,10651 17074,11414 17795,12432 18473,13917 18685,14638 18940,16038 18897,17649 18558,19134 18049,20364 17413,21382 17286,21509 17158,21679 17158,21721 15886,22994 15801,23036 15717,23036 15674,22994 15674,21679 15632,21552 15504,21425 15250,21425 15123,21552 15080,21637 15080,22994 15038,23036 14783,23036 14359,23121 14317,23164 14359,23164 14571,23376 14614,23461 14614,23588 14571,23673 14444,23800 14402,23800 14275,23842 14232,23885 13978,23885 13257,23630 13045,23630 12536,23970 12366,24139 12324,24139 11391,23206 11306,23164 11221,23164 11136,23206 11051,23291 11009,23376 11009,23545 11051,23630 11560,24139 11603,24139 11942,24479 11942,24563 11815,24691 11730,24733 11688,24733 11645,24691 11815,24521 11560,24266 11518,24266 10967,23715 10882,23588 10882,23291 11094,23079 11179,23036 11348,23036 11433,23079 12324,23970 12408,23927 12536,23800 12917,23545 13002,23503 13299,23503 14105,23757 14147,23757 14317,23715 14444,23588 14444,23418 14275,23248 14020,23121 13935,23121 13935,23164 13978,23206 14020,23206 14275,23376 14402,23503 14359,23588 14317,23630 14232,23673 13935,23673 13893,23630 13002,23333 12960,23333 12833,23206 12536,21934 12196,20491 12196,20279 12239,20237 12324,20322 12875,22824 12917,22867 13214,22824 13893,22739 14275,22655 14444,22655 14571,22697 14656,22739 14783,22867 14953,22867 14741,22655 14699,22655 14571,22527 14571,22358 13808,18625 13723,18371 13681,18286 13554,18158 13511,18158 10797,19643 10542,19728 9906,19728 9864,19685 9821,19685 9652,19728 9482,19898 9482,19940 9440,20067 9397,20110 9397,20237 9440,20279 9609,20279 9694,20237 9737,20194 9864,20194 9949,20279 9949,20364 9906,20407 9864,20576 9864,20619 9821,20661 9737,20661 9609,20534 9609,20491 9525,20407 9397,20407 9355,20491 9355,20534 9313,20576 9228,20576 9185,20619 9185,20746 9270,20831 9270,20873 9228,20916 9143,20916 9058,20831 9058,20661 9100,20619 9143,20534 9143,20449 9016,20449 8888,20491 8846,20534 8761,20534 8676,20449 8676,20110 8719,20067 8761,20067 8804,20110 9058,20237 9185,20279 9228,20237 9228,20152 9270,19940 9355,19770 9440,19685 9525,19643 9609,19643 9694,19558 9694,19516 8167,17056 8167,17013 8040,16886 5453,15741 5156,15444 5156,15401 5114,15274 5071,15189 4817,14935 4605,14765 4308,14638 3799,14638 3757,14680 3672,14596 3672,14553 3333,13662 3290,13620 3333,13578 7022,12475 11306,10566 13850,9166 Z M 6895,9293 L 7107,9293 7277,9463 7277,9506 7319,9633 7362,9675 7362,10311 7277,10651 7192,10820 7107,10948 6938,11117 6895,11117 6810,11160 6768,11202 6556,11202 6429,11075 6301,10651 6301,10227 6344,10015 6386,9887 6513,9633 6598,9506 6683,9421 6810,9336 Z M 4266,9548 L 4266,10651 4223,10693 4138,10736 3969,10778 3884,10778 4054,10015 4181,9633 Z M 6810,9633 L 6895,9633 6938,9675 6938,10566 6895,10736 6853,10778 6810,10778 6768,10736 6725,10608 6725,9845 6768,9802 6810,9675 Z M 10373,12432 L 10542,12432 10882,12560 11475,13196 11475,13238 11688,13493 11942,13747 12324,14214 12324,14256 12493,14468 12705,14680 12748,14765 12748,15147 12833,15232 12917,15274 12960,15274 13172,15486 13257,15656 13299,15783 13299,16080 13257,16122 13257,16250 13299,16292 13426,16250 13596,16165 13681,16080 13850,15995 14020,16165 14020,16250 13978,16292 13850,16377 13214,16631 13172,16674 13172,16801 13257,16886 13299,16886 13681,16759 14020,16589 14190,16589 14232,16631 14359,16844 14359,16928 14317,16971 14063,16971 13893,17013 13426,17183 13384,17225 13087,17225 13002,17183 12917,17098 12875,16971 12875,16674 12833,16631 12748,16631 12578,16462 12366,15741 12281,15571 12239,15529 12069,15529 11942,15571 11857,15656 11645,16928 11645,17480 11688,17522 11984,17607 12621,17819 12705,17819 12663,17862 9737,19346 9652,19261 8379,17056 8379,17013 8464,17013 8761,17098 8931,17140 8973,17225 9016,17353 9652,18625 9737,19049 9779,19134 9821,19176 10246,18922 10839,18328 11009,18116 11009,18074 11263,17734 11391,17607 11475,17437 11518,17310 11730,15910 11730,15741 11688,15698 11645,15698 11560,15613 11560,15529 11772,15529 11857,15444 11900,15274 11984,15062 11984,15020 11942,14935 11857,14850 11730,14850 11688,14892 11603,14935 11560,14935 11475,14892 11433,14850 11009,14002 10924,13917 10882,13832 10882,13790 10797,13662 10542,13408 10500,13450 10288,13450 10246,13408 9779,13408 9694,13450 9609,13535 9567,13620 9525,13874 9525,13917 9567,13959 9652,13959 9737,13917 9779,13874 9779,13578 9821,13535 10415,13535 10458,13578 10585,13620 10627,13620 10754,13747 10967,14129 10967,14171 11051,14341 11094,14383 11051,14426 10967,14383 10882,14299 10585,14171 10076,14044 9694,14044 9652,14087 9652,14256 9737,14341 9779,14341 9864,14383 9906,14426 9906,14468 9949,14553 9991,14596 9991,14892 9906,15062 9821,15189 9737,15274 9737,15401 9821,15486 9779,15529 9694,15444 9694,15274 9779,15104 9779,14935 9737,14892 9609,14892 9525,14808 9482,14808 9440,14850 9228,15359 9228,15529 9482,16292 9567,16419 9737,16589 9779,16589 9864,16631 9906,16674 10330,16674 10670,16547 10712,16589 10712,16631 10670,16674 10585,16716 10458,16759 10203,16759 10118,16801 10076,16844 9864,18328 9864,18583 9821,18625 9313,17607 9270,17480 9185,17310 9143,17268 9143,17225 9270,17225 9313,17268 9864,17395 9906,17353 9949,17183 9949,16801 9906,16759 9821,16759 9694,16716 9440,16462 9143,15656 9143,15274 9355,14808 9482,14383 9525,14087 9525,13959 9440,13874 9313,13790 9270,13790 9016,13535 8931,13408 8846,13238 8846,12984 8888,12856 8973,12772 10330,12475 Z M 3078,14129 L 3163,14214 3333,14680 3248,14765 3205,14765 3163,14808 3121,14892 3121,14977 3163,15020 3205,15104 3205,15147 3163,15189 3121,15274 3121,15359 3460,16080 3842,16462 4096,16547 4181,16631 4775,18243 4817,18286 4944,18243 5029,18201 5071,18158 5029,18116 4817,17480 4817,17437 4859,17395 4902,17395 7022,18710 7065,18710 7234,18795 7489,18964 7913,19176 8040,19304 7531,24012 7489,24054 7446,24054 6768,23715 5877,23121 4478,21764 4096,21255 4096,21212 4011,21085 3926,21000 3714,20661 3333,19855 2993,18880 2654,17140 2696,15656 2781,15104 2993,14256 3036,14171 Z M 9609,14468 L 9694,14468 9779,14553 9737,14596 9609,14638 9567,14596 9567,14511 Z M 10712,14553 L 10882,14553 11009,14596 11051,14638 11051,14680 11009,14723 10967,14680 10627,14680 10627,14638 Z M 9821,14638 L 9864,14680 9864,14765 9821,14808 9779,14765 9779,14680 Z M 3842,14765 L 4350,14765 4393,14808 4478,14850 4520,14850 4902,15189 4987,15359 5029,15486 5071,15571 5411,15910 5241,16377 5156,16547 5114,16589 5071,16589 4902,16504 4775,16377 4775,16335 4732,16165 4690,16080 4605,15953 4520,15868 4478,15868 4435,15826 4350,15698 4181,15232 4138,15189 4054,15147 3545,15147 3502,15104 3375,15062 3333,15062 3248,14977 3248,14892 3290,14850 3417,14808 Z M 10670,14850 L 10797,14850 10924,14892 11094,15062 11094,15104 11051,15147 10967,15189 10797,15189 10670,15147 10542,15020 10542,14977 10585,14892 Z M 10924,14935 L 11051,15062 10967,15147 10924,15147 10882,15104 10882,14977 Z M 3290,15232 L 3460,15232 3502,15274 3587,15317 3714,15359 3884,15359 3926,15317 3969,15317 4096,15359 4138,15401 4266,15656 4435,16250 4266,16419 4096,16419 4054,16377 3884,16292 3842,16292 3629,16080 3460,15826 3248,15401 3248,15274 Z M 9906,15444 L 9949,15444 10033,15529 9949,15529 9906,15486 Z M 12578,15486 L 12621,15486 12663,15529 12748,15656 12960,16207 12960,16292 12917,16335 12875,16335 12748,16207 12748,16165 12578,15571 12536,15529 Z M 9525,15656 L 9652,15656 9694,15698 10076,15826 10330,15868 10542,15868 10585,15910 10585,15995 10500,15995 10373,16038 10203,16122 10033,16165 9864,16165 9652,15953 9567,15826 9525,15741 Z M 9779,15826 L 9906,15826 9949,15868 10118,15910 10246,15910 10288,15953 10203,16038 10076,16080 9949,16080 9821,15995 9737,15910 9737,15868 Z M 4563,16504 L 4605,16504 4647,16547 4902,16674 4944,16674 5071,16801 4859,17353 4817,17395 4775,17353 4605,16844 4563,16759 4520,16631 4520,16547 Z M 12875,17904 L 13002,17904 13045,17946 13299,18031 13342,18031 13342,18074 13299,18116 10797,19473 10500,19558 9991,19558 9864,19516 9821,19473 9864,19431 12833,17946 Z"/>
       <path fill="rgb(223,126,135)" stroke="rgb(223,126,135)" d="M 16310,10608 L 16353,10651 16310,10693 16268,10651 Z M 3078,14087 L 3121,14129 3078,14171 3036,14129 Z M 2060,14299 L 2103,14341 2060,14383 2018,14341 Z M 2018,14468 L 2060,14511 2018,14553 1975,14511 Z M 2230,19431 L 2272,19473 2230,19516 2188,19473 Z M 3375,21721 L 3417,21764 3375,21806 3333,21764 Z M 10203,25624 L 10246,25666 10203,25709 10161,25666 Z"/>
       <path fill="rgb(109,140,194)" stroke="rgb(109,140,194)" d="M 14699,3949 L 14741,3949 14783,3991 14741,4034 14699,4034 14656,3991 Z M 15165,3949 L 15208,3949 15250,3991 15208,4034 15165,4034 15123,3991 Z M 14402,3991 L 14444,4034 14402,4076 14359,4034 Z M 15420,3991 L 15462,4034 15420,4076 15377,4034 Z M 15547,4034 L 15589,4076 15547,4119 15504,4076 Z M 14063,4076 L 14105,4119 14063,4161 14020,4119 Z M 15632,4076 L 15674,4119 15632,4161 15589,4119 Z M 13554,4246 L 13596,4288 13554,4331 13511,4288 Z M 13426,4288 L 13469,4331 13426,4373 13384,4331 Z M 13214,4373 L 13257,4416 13214,4458 13172,4416 Z M 15971,4373 L 16013,4416 15971,4458 15929,4416 Z M 13002,4458 L 13045,4500 13002,4543 12960,4500 Z M 16013,4458 L 16056,4500 16013,4543 15971,4500 Z M 16056,4543 L 16098,4585 16056,4628 16013,4585 Z M 12705,4585 L 12748,4628 12705,4670 12663,4628 Z M 12621,4628 L 12663,4670 12621,4712 12578,4670 Z M 16183,4882 L 16225,4925 16183,4967 16141,4925 Z M 11942,4967 L 11984,5009 11942,5052 11900,5009 Z M 11857,5009 L 11900,5052 11857,5094 11815,5052 Z M 16268,5094 L 16310,5137 16268,5179 16225,5137 Z M 11560,5179 L 11603,5221 11560,5264 11518,5221 Z M 11263,5349 L 11306,5391 11263,5434 11221,5391 Z M 13214,5349 L 13257,5391 13214,5434 13172,5391 Z M 15801,5391 L 15844,5434 15801,5476 15759,5434 Z M 13426,5434 L 13469,5476 13426,5518 13384,5476 Z M 16395,5434 L 16438,5476 16395,5518 16353,5476 Z M 18855,5434 L 18897,5476 18855,5518 18813,5476 Z M 11051,5476 L 11094,5518 11051,5561 11009,5518 Z M 13002,5476 L 13045,5518 13002,5561 12960,5518 Z M 15504,5476 L 15547,5518 15504,5561 15462,5518 Z M 13384,5518 L 13426,5561 13384,5603 13342,5561 Z M 15208,5518 L 15250,5561 15208,5603 15165,5561 Z M 18643,5518 L 18685,5561 18643,5603 18600,5561 Z M 12663,5561 L 12705,5603 12663,5646 12621,5603 Z M 14487,5561 L 14529,5603 14487,5646 14444,5603 Z M 15420,5561 L 15462,5603 15420,5646 15377,5603 Z M 15165,5603 L 15208,5646 15165,5688 15123,5646 Z M 10754,5646 L 10797,5688 10754,5730 10712,5688 Z M 13299,5646 L 13342,5688 13299,5730 13257,5688 Z M 15801,5646 L 15844,5688 15801,5730 15759,5688 Z M 18346,5646 L 18388,5688 18346,5730 18304,5688 Z M 14317,5688 L 14359,5730 14317,5773 14275,5730 Z M 18134,5730 L 18176,5773 18134,5815 18092,5773 Z M 10542,5773 L 10585,5815 10542,5858 10500,5815 Z M 13172,5773 L 13214,5815 13172,5858 13129,5815 Z M 16522,5773 L 16565,5815 16522,5858 16480,5815 Z M 14868,5815 L 14911,5858 14868,5900 14826,5858 Z M 15504,5815 L 15547,5858 15504,5900 15462,5858 Z M 12790,5858 L 12833,5900 12790,5943 12748,5900 Z M 14190,5858 L 14232,5900 14190,5943 14147,5900 Z M 14571,5858 L 14614,5900 14571,5943 14529,5900 Z M 15420,5858 L 15462,5900 15420,5943 15377,5900 Z M 15674,5858 L 15717,5900 15674,5943 15632,5900 Z M 17837,5858 L 17879,5900 17837,5943 17795,5900 Z M 10330,5900 L 10373,5943 10330,5985 10288,5943 Z M 14826,5900 L 14868,5943 14826,5985 14783,5943 Z M 13723,5943 L 13766,5985 13723,6027 13681,5985 Z M 14656,5943 L 14699,5985 14656,6027 14614,5985 Z M 17625,5943 L 17667,5985 17625,6027 17583,5985 Z M 13426,5985 L 13469,6027 13426,6070 13384,6027 Z M 14147,5985 L 14190,6027 14147,6070 14105,6027 Z M 15547,5985 L 15589,6027 15547,6070 15504,6027 Z M 16607,5985 L 16650,6027 16607,6070 16565,6027 Z M 17540,5985 L 17583,6027 17540,6070 17498,6027 Z M 10118,6027 L 10161,6070 10118,6112 10076,6070 Z M 14147,6070 L 14190,6112 14147,6155 14105,6112 Z M 17328,6070 L 17371,6112 17328,6155 17286,6112 Z M 17116,6155 L 17158,6197 17116,6239 17074,6197 Z M 9821,6197 L 9864,6239 9821,6282 9779,6239 Z M 12960,6197 L 13002,6239 12960,6282 12917,6239 Z M 13045,6197 L 13087,6239 13045,6282 13002,6239 Z M 17031,6197 L 17074,6239 17031,6282 16989,6239 Z M 14232,6282 L 14275,6324 14232,6367 14190,6324 Z M 15420,6282 L 15462,6324 15420,6367 15377,6324 Z M 16734,6324 L 16777,6367 16734,6409 16692,6367 Z M 9525,6367 L 9567,6409 9525,6452 9482,6409 Z M 12748,6367 L 12790,6409 12748,6452 12705,6409 Z M 14275,6367 L 14317,6409 14275,6452 14232,6409 Z M 9440,6409 L 9482,6452 9440,6494 9397,6452 Z M 13087,6409 L 13129,6452 13087,6494 13045,6452 Z M 9355,6452 L 9397,6494 9355,6536 9313,6494 Z M 14699,6452 L 14741,6494 14699,6536 14656,6494 Z M 9270,6494 L 9313,6536 9270,6579 9228,6536 Z M 13766,6494 L 13808,6536 13808,6579 13766,6621 13723,6579 13723,6536 Z M 9185,6536 L 9228,6579 9185,6621 9143,6579 Z M 13426,6536 L 13469,6579 13469,6833 13426,6876 13384,6833 13384,6579 Z M 16946,6536 L 16989,6579 16946,6621 16904,6579 Z M 12705,6579 L 12748,6621 12705,6664 12663,6621 Z M 18600,6579 L 18643,6621 18600,6664 18558,6621 Z M 12366,6621 L 12408,6664 12366,6706 12324,6664 Z M 15080,6621 L 15123,6664 15080,6706 15038,6664 Z M 12112,6664 L 12154,6706 12112,6748 12069,6706 Z M 16862,6664 L 16904,6706 16862,6748 16819,6706 Z M 16989,6664 L 17031,6706 16989,6748 16946,6706 Z M 12027,6706 L 12069,6748 12027,6791 11984,6748 Z M 18558,6706 L 18600,6748 18558,6791 18516,6748 Z M 14444,6748 L 14487,6791 14444,6833 14402,6791 Z M 15759,6748 L 15801,6791 15759,6833 15717,6791 Z M 12790,6791 L 12833,6833 12790,6876 12748,6833 Z M 8592,6833 L 8634,6876 8592,6918 8549,6876 Z M 13129,6833 L 13172,6876 13172,6918 13129,6961 13087,6918 13087,6876 Z M 18516,6833 L 18558,6876 18516,6918 18473,6876 Z M 8507,6876 L 8549,6918 8507,6961 8464,6918 Z M 12408,6918 L 12451,6961 12408,7003 12366,6961 Z M 14783,6918 L 14826,6961 14783,7003 14741,6961 Z M 15632,6918 L 15674,6961 15632,7003 15589,6961 Z M 14190,6961 L 14232,7003 14190,7045 14147,7003 Z M 18473,6961 L 18516,7003 18473,7045 18431,7003 Z M 8210,7003 L 8252,7045 8210,7088 8167,7045 Z M 15462,7003 L 15504,7045 15462,7088 15420,7045 Z M 16989,7003 L 17031,7045 16989,7088 16946,7045 Z M 17116,7003 L 17158,7045 17116,7088 17074,7045 Z M 11688,7045 L 11730,7088 11688,7130 11645,7088 Z M 9609,7088 L 9652,7130 9609,7173 9567,7130 Z M 9906,7088 L 9949,7130 9906,7173 9864,7130 Z M 18431,7088 L 18473,7130 18431,7173 18388,7130 Z M 7913,7130 L 7955,7173 7913,7215 7871,7173 Z M 9440,7130 L 9482,7173 9440,7215 9397,7173 Z M 11391,7130 L 11433,7173 11391,7215 11348,7173 Z M 11942,7130 L 11984,7173 11942,7215 11900,7173 Z M 13808,7130 L 13850,7173 13850,7215 13808,7257 13766,7215 13766,7173 Z M 14402,7130 L 14444,7130 14487,7173 14444,7215 14402,7215 14359,7173 Z M 17031,7130 L 17074,7173 17031,7215 16989,7173 Z M 10076,7173 L 10118,7215 10076,7257 10033,7215 Z M 11263,7173 L 11306,7215 11263,7257 11221,7215 Z M 14020,7173 L 14063,7215 14020,7257 13978,7215 Z M 7701,7215 L 7743,7257 7701,7300 7658,7257 Z M 11900,7215 L 11942,7257 11900,7300 11857,7257 Z M 12112,7215 L 12154,7257 12154,7554 12112,7597 12069,7554 12069,7257 Z M 13384,7215 L 13426,7257 13384,7300 13342,7257 Z M 18388,7215 L 18431,7257 18388,7300 18346,7257 Z M 11391,7257 L 11433,7300 11391,7342 11348,7300 Z M 12833,7257 L 12875,7300 12875,7342 12833,7385 12790,7342 12790,7300 Z M 7489,7300 L 7531,7342 7489,7385 7446,7342 Z M 9100,7300 L 9143,7342 9100,7385 9058,7342 Z M 11094,7300 L 11136,7342 11051,7427 11009,7385 Z M 12451,7300 L 12493,7342 12493,7385 12451,7427 12408,7385 12408,7342 Z M 13172,7300 L 13214,7342 13214,7385 13172,7427 13129,7385 13129,7342 Z M 10967,7342 L 11009,7385 10967,7427 10924,7385 Z M 11857,7342 L 11900,7385 11857,7427 11815,7385 Z M 17243,7342 L 17286,7385 17243,7427 17201,7385 Z M 18346,7342 L 18388,7385 18346,7427 18304,7385 Z M 7277,7385 L 7319,7427 7277,7470 7234,7427 Z M 8973,7385 L 9016,7427 8973,7470 8931,7427 Z M 10797,7385 L 10839,7427 10797,7470 10754,7427 Z M 9313,7427 L 9355,7470 9313,7512 9270,7470 Z M 11348,7427 L 11391,7470 11348,7512 11306,7470 Z M 14063,7427 L 14105,7470 14063,7512 14020,7470 Z M 13299,7470 L 13342,7512 13299,7554 13257,7512 Z M 17158,7470 L 17201,7512 17158,7554 17116,7512 Z M 17286,7470 L 17328,7512 17286,7554 17243,7512 Z M 18304,7470 L 18346,7512 18304,7554 18261,7512 Z M 6938,7512 L 6980,7554 6938,7597 6895,7554 Z M 8804,7512 L 8846,7554 8761,7639 8719,7597 Z M 11815,7512 L 11857,7554 11815,7597 11772,7554 Z M 6810,7554 L 6853,7597 6810,7639 6768,7597 Z M 9016,7554 L 9058,7597 9016,7639 8973,7597 Z M 9355,7554 L 9397,7597 9355,7639 9313,7597 Z M 9737,7554 L 9779,7597 9737,7639 9694,7597 Z M 9228,7597 L 9270,7639 9228,7682 9185,7639 Z M 10542,7597 L 10585,7639 10542,7682 10500,7639 Z M 11221,7597 L 11263,7639 11221,7682 11179,7639 Z M 18261,7597 L 18304,7639 18261,7682 18219,7639 Z M 8676,7639 L 8719,7682 8676,7724 8634,7682 Z M 10076,7682 L 10118,7724 10076,7766 10033,7724 Z M 13554,7682 L 13596,7724 13554,7766 13511,7724 Z M 13893,7682 L 13935,7724 13850,7809 13808,7766 Z M 6344,7724 L 6386,7766 6344,7809 6301,7766 Z M 10458,7724 L 10500,7766 10458,7809 10415,7766 Z M 12493,7724 L 12536,7766 12536,7809 12493,7851 12451,7809 12451,7766 Z M 18219,7724 L 18261,7766 18219,7809 18176,7766 Z M 6217,7766 L 6259,7809 6217,7851 6174,7809 Z M 8592,7766 L 8634,7809 8592,7851 8549,7809 Z M 8804,7766 L 8846,7809 8804,7851 8761,7809 Z M 11772,7766 L 11815,7809 11772,7851 11730,7809 Z M 12875,7766 L 12917,7809 12875,7851 12833,7809 Z M 13766,7766 L 13808,7809 13766,7851 13723,7809 Z M 6089,7809 L 6132,7851 6089,7894 6047,7851 Z M 10033,7809 L 10076,7851 10033,7894 9991,7851 Z M 10585,7809 L 10627,7851 10585,7894 10542,7851 Z M 11391,7809 L 11433,7851 11391,7894 11348,7851 Z M 17286,7809 L 17328,7851 17286,7894 17243,7851 Z M 17413,7809 L 17455,7851 17413,7894 17371,7851 Z M 5962,7851 L 6004,7894 5962,7936 5920,7894 Z M 9737,7851 L 9779,7894 9737,7936 9694,7894 Z M 5835,7894 L 5877,7936 5835,7979 5792,7936 Z M 8761,7894 L 8804,7936 8804,7979 8761,8021 8719,7979 8719,7936 Z M 5708,7936 L 5750,7979 5708,8021 5665,7979 Z M 8507,7936 L 8549,7979 8507,8021 8464,7979 Z M 12027,7936 L 12069,7979 12027,8021 11984,7979 Z M 12578,7936 L 12621,7979 12578,8021 12536,7979 Z M 12917,7936 L 12960,7979 12917,8021 12875,7979 Z M 5580,7979 L 5623,8021 5580,8063 5538,8021 Z M 5453,8021 L 5496,8063 5453,8106 5411,8063 Z M 8804,8021 L 8846,8063 8804,8106 8761,8063 Z M 17328,8021 L 17371,8063 17328,8106 17286,8063 Z M 17455,8021 L 17498,8063 17455,8106 17413,8063 Z M 5326,8063 L 5368,8106 5326,8148 5283,8106 Z M 8464,8063 L 8507,8106 8464,8148 8422,8106 Z M 16650,8063 L 16692,8106 16650,8148 16607,8106 Z M 16946,8063 L 16989,8106 16946,8148 16904,8106 Z M 5199,8106 L 5241,8148 5199,8191 5156,8148 Z M 10033,8106 L 10076,8148 10033,8191 9991,8148 Z M 16438,8106 L 16480,8148 16438,8191 16395,8148 Z M 16268,8148 L 16310,8191 16268,8233 16225,8191 Z M 12663,8191 L 12705,8233 12663,8275 12621,8233 Z M 16098,8191 L 16141,8233 16098,8275 16056,8233 Z M 17243,8191 L 17286,8233 17243,8275 17201,8233 Z M 10118,8233 L 10161,8275 10118,8318 10076,8275 Z M 17413,8233 L 17455,8275 17413,8318 17371,8275 Z M 4647,8275 L 4690,8318 4647,8360 4605,8318 Z M 7786,8275 L 7828,8318 7786,8360 7743,8318 Z M 9100,8275 L 9143,8318 9100,8360 9058,8318 Z M 10712,8275 L 10754,8318 10754,8403 10712,8445 10670,8403 10670,8318 Z M 11051,8275 L 11094,8318 11094,8403 11051,8445 11009,8403 11009,8318 Z M 12621,8275 L 12663,8318 12621,8360 12578,8318 Z M 17286,8275 L 17328,8318 17286,8360 17243,8318 Z M 4520,8318 L 4563,8360 4520,8403 4478,8360 Z M 10203,8318 L 10246,8360 10203,8403 10161,8360 Z M 15717,8318 L 15759,8360 15717,8403 15674,8360 Z M 15632,8360 L 15674,8403 15632,8445 15589,8403 Z M 18855,8360 L 19025,8530 18982,8572 18813,8403 Z M 8973,8403 L 9016,8445 8973,8488 8931,8445 Z M 9694,8403 L 9737,8445 9694,8488 9652,8445 Z M 11391,8403 L 11433,8445 11391,8488 11348,8445 Z M 4096,8445 L 4138,8488 4096,8530 4054,8488 Z M 7743,8445 L 7786,8488 7743,8530 7701,8488 Z M 8507,8445 L 8549,8488 8507,8530 8464,8488 Z M 12451,8445 L 12493,8488 12451,8530 12408,8488 Z M 15377,8445 L 15420,8488 15377,8530 15335,8488 Z M 15632,8445 L 15674,8488 15632,8530 15589,8488 Z M 1212,8488 L 1254,8530 1212,8572 1170,8530 Z M 3969,8488 L 4011,8530 3969,8572 3926,8530 Z M 7489,8488 L 7531,8530 7489,8572 7446,8530 Z M 8846,8488 L 8888,8530 8846,8572 8804,8530 Z M 9737,8488 L 9906,8657 9864,8700 9694,8530 Z M 15250,8488 L 15292,8530 15250,8572 15208,8530 Z M 5708,8530 L 5750,8530 5792,8572 5750,8615 5708,8615 5665,8572 Z M 7701,8530 L 7743,8572 7701,8615 7658,8572 Z M 11984,8530 L 12027,8572 11984,8615 11942,8572 Z M 15123,8530 L 15165,8572 15123,8615 15080,8572 Z M 3672,8572 L 3714,8615 3672,8657 3629,8615 Z M 5580,8572 L 5623,8615 5580,8657 5538,8615 Z M 5877,8572 L 5920,8615 5877,8657 5835,8615 Z M 1339,8615 L 1382,8657 1339,8700 1297,8657 Z M 10500,8615 L 10542,8657 10500,8700 10458,8657 Z M 11475,8615 L 11518,8657 11475,8700 11433,8657 Z M 3375,8657 L 3417,8700 3375,8742 3333,8700 Z M 5453,8657 L 5496,8700 5453,8742 5411,8700 Z M 17243,8657 L 17286,8700 17243,8742 17201,8700 Z M 1382,8700 L 1424,8742 1382,8784 1339,8742 Z M 11560,8700 L 11603,8742 11560,8784 11518,8742 Z M 3078,8742 L 3121,8784 3078,8827 3036,8784 Z M 11645,8742 L 11688,8784 11645,8827 11603,8784 Z M 11730,8742 L 11772,8784 11730,8827 11688,8784 Z M 15632,8742 L 15674,8784 15632,8827 15589,8784 Z M 9525,8784 L 9567,8827 9567,8869 9525,8912 9482,8869 9482,8827 Z M 2781,8827 L 2824,8869 2781,8912 2739,8869 Z M 5580,8869 L 5623,8912 5580,8954 5538,8912 Z M 10118,8869 L 10161,8912 10118,8954 10076,8912 Z M 15674,8869 L 15717,8912 15674,8954 15632,8912 Z M 1127,8912 L 1170,8954 1127,8997 1085,8954 Z M 1467,8912 L 1509,8954 1467,8997 1424,8954 Z M 2484,8912 L 2527,8954 2484,8997 2442,8954 Z M 5199,8912 L 5241,8954 5199,8997 5156,8954 Z M 10754,8912 L 10797,8954 10797,9039 10754,9081 10712,9039 10712,8954 Z M 11094,8912 L 11136,8954 11136,9039 11094,9081 11051,9039 11051,8954 Z M 7658,8954 L 7701,8997 7658,9039 7616,8997 Z M 7828,8954 L 7871,8997 7828,9039 7786,8997 Z M 10203,8997 L 10246,9039 10203,9081 10161,9039 Z M 2018,9039 L 2060,9081 2018,9124 1975,9081 Z M 5114,9039 L 5156,9081 5114,9124 5071,9081 Z M 15844,9039 L 15886,9081 15844,9124 15801,9081 Z M 1848,9081 L 1891,9124 1848,9166 1806,9124 Z M 7489,9081 L 7531,9124 7489,9166 7446,9124 Z M 1212,9124 L 1254,9166 1212,9209 1170,9166 Z M 1679,9124 L 1721,9166 1679,9209 1636,9166 Z M 10924,9166 L 10967,9209 10924,9251 10882,9209 Z M 15886,9166 L 15929,9209 15886,9251 15844,9209 Z M 5368,9209 L 5411,9251 5411,9421 5368,9463 5326,9421 5326,9251 Z M 9737,9209 L 9779,9251 9694,9336 9652,9293 Z M 10500,9209 L 10542,9251 10500,9293 10458,9251 Z M 19746,9209 L 19915,9378 19915,9421 19873,9463 19830,9421 19703,9251 Z M 1254,9251 L 1297,9293 1254,9336 1212,9293 Z M 4181,9251 L 4223,9293 4181,9336 4138,9293 Z M 5029,9251 L 5071,9293 5029,9336 4987,9293 Z M 7362,9293 L 7404,9336 7362,9378 7319,9336 Z M 8252,9293 L 8295,9336 8252,9378 8210,9336 Z M 9482,9293 L 9525,9336 9482,9378 9440,9336 Z M 10458,9293 L 10500,9336 10458,9378 10415,9336 Z M 13554,9293 L 13596,9336 13554,9378 13511,9336 Z M 7531,9336 L 7574,9378 7531,9421 7489,9378 Z M 8634,9336 L 8676,9378 8634,9421 8592,9378 Z M 9991,9336 L 10076,9421 10033,9463 9949,9378 Z M 13469,9336 L 13511,9378 13469,9421 13426,9378 Z M 6725,9378 L 6768,9421 6725,9463 6683,9421 Z M 7871,9378 L 7913,9421 7913,9463 7871,9506 7828,9463 7828,9421 Z M 8549,9378 L 8592,9421 8549,9463 8507,9421 Z M 9609,9378 L 9652,9421 9609,9463 9567,9421 Z M 10415,9378 L 10458,9421 10415,9463 10373,9421 Z M 4987,9421 L 5029,9463 5029,9506 4987,9548 4944,9506 4944,9463 Z M 8464,9421 L 8507,9463 8464,9506 8422,9463 Z M 1339,9463 L 1382,9506 1339,9548 1297,9506 Z M 8379,9463 L 8422,9506 8379,9548 8337,9506 Z M 16522,9463 L 16565,9506 16522,9548 16480,9506 Z M 6598,9506 L 6641,9548 6598,9590 6556,9548 Z M 8888,9506 L 8931,9548 8888,9590 8846,9548 Z M 9567,9506 L 9609,9548 9609,9590 9567,9633 9525,9590 9525,9548 Z M 19491,9506 L 19533,9548 19491,9590 19449,9548 Z M 8804,9548 L 8846,9590 8719,9718 8676,9675 Z M 9185,9548 L 9228,9590 9185,9633 9143,9590 Z M 13087,9548 L 13129,9590 13087,9633 13045,9590 Z M 6810,9590 L 6853,9633 6810,9675 6768,9633 Z M 13002,9590 L 13045,9633 13002,9675 12960,9633 Z M 6513,9633 L 6556,9675 6513,9718 6471,9675 Z M 6938,9633 L 6980,9675 6938,9718 6895,9675 Z M 19067,9675 L 19109,9718 19067,9760 19025,9718 Z M 6471,9718 L 6513,9760 6471,9802 6429,9760 Z M 3799,9760 L 3842,9802 3799,9845 3757,9802 Z M 5580,9760 L 5623,9802 5580,9845 5538,9802 Z M 7574,9760 L 7616,9802 7616,9845 7574,9887 7531,9845 7531,9802 Z M 9100,9760 L 9143,9802 9100,9845 9058,9802 Z M 12705,9760 L 12748,9802 12705,9845 12663,9802 Z M 16098,9760 L 16141,9802 16098,9845 16056,9802 Z M 1467,9802 L 1509,9845 1467,9887 1424,9845 Z M 6004,9802 L 6047,9845 6004,9887 5962,9845 Z M 6725,9802 L 6768,9845 6725,9887 6683,9845 Z M 12621,9802 L 12663,9845 12621,9887 12578,9845 Z M 16268,9802 L 16310,9845 16268,9887 16225,9845 Z M 18770,9802 L 18813,9845 18770,9887 18728,9845 Z M 7913,9845 L 7955,9887 7913,9930 7871,9887 Z M 18685,9845 L 18728,9887 18685,9930 18643,9887 Z M 3757,9887 L 3799,9930 3757,9972 3714,9930 Z M 9270,9887 L 9313,9930 9270,9972 9228,9930 Z M 16141,9887 L 16183,9930 16141,9972 16098,9930 Z M 16225,9887 L 16268,9930 16225,9972 16183,9930 Z M 18600,9887 L 18643,9930 18600,9972 18558,9930 Z M 6004,9930 L 6047,9972 6047,10142 6004,10184 5962,10142 5962,9972 Z M 18516,9930 L 18558,9972 18516,10015 18473,9972 Z M 8592,9972 L 8634,10015 8592,10057 8549,10015 Z M 12324,9972 L 12366,10015 12324,10057 12281,10015 Z M 18431,9972 L 18473,10015 18431,10057 18388,10015 Z M 1551,10015 L 1594,10057 1551,10099 1509,10057 Z M 4011,10015 L 4054,10057 4011,10099 3969,10057 Z M 18346,10015 L 18388,10057 18346,10099 18304,10057 Z M 3714,10057 L 3757,10099 3714,10142 3672,10099 Z M 18261,10057 L 18304,10099 18261,10142 18219,10099 Z M 1594,10142 L 1636,10184 1594,10227 1551,10184 Z M 6344,10142 L 6386,10184 6344,10227 6301,10184 Z M 9016,10142 L 9058,10184 9016,10227 8973,10184 Z M 4987,10184 L 5029,10227 5029,10736 4987,10778 4944,10736 4944,10227 Z M 5623,10184 L 5665,10227 5623,10269 5580,10227 Z M 8719,10184 L 8761,10227 8719,10269 8676,10227 Z M 11942,10184 L 11984,10227 11942,10269 11900,10227 Z M 4647,10227 L 4690,10269 4690,10439 4647,10481 4605,10439 4605,10269 Z M 17879,10269 L 17922,10311 17879,10354 17837,10311 Z M 7319,10311 L 7362,10354 7319,10396 7277,10354 Z M 7616,10311 L 7658,10354 7658,10396 7616,10439 7574,10396 7574,10354 Z M 7955,10311 L 7998,10354 7998,10524 7955,10566 7913,10524 7913,10354 Z M 1679,10354 L 1721,10396 1679,10439 1636,10396 Z M 4266,10396 L 4308,10439 4308,10651 4266,10693 4223,10651 4223,10439 Z M 11560,10396 L 11603,10439 11560,10481 11518,10439 Z M 17667,10396 L 17710,10439 17667,10481 17625,10439 Z M 3926,10439 L 3969,10481 3926,10524 3884,10481 Z M 7277,10481 L 7319,10524 7277,10566 7234,10524 Z M 17540,10481 L 17583,10524 17540,10566 17498,10524 Z M 3629,10524 L 3672,10566 3629,10608 3587,10566 Z M 6938,10524 L 6980,10566 6938,10608 6895,10566 Z M 6725,10566 L 6768,10608 6725,10651 6683,10608 Z M 11179,10608 L 11221,10651 11179,10693 11136,10651 Z M 6344,10651 L 6386,10693 6386,10736 6344,10778 6301,10736 6301,10693 Z M 11094,10651 L 11136,10693 11094,10736 11051,10693 Z M 1806,10693 L 1848,10736 1806,10778 1763,10736 Z M 6895,10693 L 6938,10736 6895,10778 6853,10736 Z M 11009,10693 L 11051,10736 11009,10778 10967,10736 Z M 3884,10736 L 3926,10778 3884,10820 3842,10778 Z M 3969,10736 L 4011,10778 3969,10820 3926,10778 Z M 7616,10778 L 7658,10820 7658,10863 7616,10905 7574,10863 7574,10820 Z M 3587,10820 L 3629,10863 3587,10905 3545,10863 Z M 7913,10820 L 7955,10863 7913,10905 7871,10863 Z M 7107,10863 L 7150,10905 7107,10948 7065,10905 Z M 4138,10905 L 4181,10948 4138,10990 4096,10948 Z M 3969,10948 L 4011,10990 3969,11033 3926,10990 Z M 3842,10990 L 3884,11033 3842,11075 3799,11033 Z M 6429,10990 L 6471,11033 6429,11075 6386,11033 Z M 7871,10990 L 7913,11033 7871,11075 7828,11033 Z M 1933,11033 L 1975,11075 1933,11117 1891,11075 Z M 5665,11033 L 5708,11075 5708,11160 5665,11202 5623,11160 5623,11075 Z M 6004,11033 L 6047,11075 6004,11117 5962,11075 Z M 6217,11033 L 6259,11075 6217,11117 6174,11075 Z M 10330,11033 L 10373,11075 10330,11117 10288,11075 Z M 6895,11075 L 6938,11117 6895,11160 6853,11117 Z M 10246,11075 L 10288,11117 10246,11160 10203,11117 Z M 3545,11117 L 3587,11160 3545,11202 3502,11160 Z M 6810,11117 L 6853,11160 6810,11202 6768,11160 Z M 7574,11117 L 7616,11160 7574,11202 7531,11160 Z M 10161,11117 L 10203,11160 10161,11202 10118,11160 Z M 10076,11160 L 10118,11202 10076,11245 10033,11202 Z M 3799,11202 L 3842,11245 3799,11287 3757,11245 Z M 5368,11202 L 5411,11245 5411,11329 5368,11372 5326,11329 5326,11245 Z M 7786,11202 L 7828,11245 7786,11287 7743,11245 Z M 9991,11202 L 10033,11245 9991,11287 9949,11245 Z M 2018,11245 L 2060,11287 2018,11329 1975,11287 Z M 4266,11245 L 4308,11287 4308,11881 4266,11923 4223,11881 4223,11287 Z M 7743,11287 L 7786,11329 7743,11372 7701,11329 Z M 3163,11329 L 3205,11372 3163,11414 3121,11372 Z M 2060,11372 L 2103,11414 2060,11457 2018,11414 Z M 3757,11372 L 3799,11414 3757,11457 3714,11414 Z M 5708,11372 L 5750,11414 5708,11457 5665,11414 Z M 7192,11372 L 7234,11414 7192,11457 7150,11414 Z M 3502,11414 L 3545,11457 3545,11499 3502,11542 3460,11499 3460,11457 Z M 7658,11414 L 7701,11457 7658,11499 7616,11457 Z M 9525,11414 L 9567,11457 9525,11499 9482,11457 Z M 5920,11457 L 5962,11499 5920,11542 5877,11499 Z M 9440,11457 L 9482,11499 9440,11542 9397,11499 Z M 2145,11584 L 2188,11626 2145,11669 2103,11626 Z M 5326,11584 L 5368,11626 5326,11669 5283,11626 Z M 3460,11626 L 3502,11669 3460,11711 3417,11669 Z M 6980,11626 L 7022,11669 6980,11711 6938,11669 Z M 9058,11626 L 9100,11669 9058,11711 9016,11669 Z M 4690,11669 L 4732,11711 4732,11796 4690,11838 4647,11796 4647,11711 Z M 5029,11669 L 5071,11711 5029,11754 4987,11711 Z M 2824,11711 L 2866,11754 2824,11796 2781,11754 Z M 3629,11754 L 3672,11796 3629,11838 3587,11796 Z M 8761,11754 L 8804,11796 8761,11838 8719,11796 Z M 7277,11796 L 7319,11838 7277,11881 7234,11838 Z M 8676,11796 L 8719,11838 8676,11881 8634,11838 Z M 4478,11838 L 4520,11881 4478,11923 4435,11881 Z M 3248,11881 L 3290,11923 3248,11966 3205,11923 Z M 2272,11923 L 2315,11966 2272,12008 2230,11966 Z M 3545,11923 L 3587,11966 3545,12008 3502,11966 Z M 8379,11923 L 8422,11966 8379,12008 8337,11966 Z M 8167,12008 L 8210,12051 8167,12093 8125,12051 Z M 3460,12051 L 3502,12093 3375,12220 3333,12178 Z M 7871,12135 L 7913,12178 7871,12220 7828,12178 Z M 3205,12220 L 3248,12263 3205,12305 3163,12263 Z M 7658,12220 L 7701,12263 7658,12305 7616,12263 Z M 2400,12263 L 2442,12305 2400,12347 2357,12305 Z M 7446,12305 L 7489,12347 7446,12390 7404,12347 Z M 7234,12390 L 7277,12432 7234,12475 7192,12432 Z M 10373,12390 L 10415,12390 10458,12432 10415,12475 10373,12475 10330,12432 Z M 10500,12390 L 10542,12390 10585,12432 10542,12475 10500,12475 10458,12432 Z M 7107,12432 L 7150,12475 7107,12517 7065,12475 Z M 10161,12432 L 10203,12475 10161,12517 10118,12475 Z M 2484,12475 L 2527,12517 2484,12560 2442,12517 Z M 6895,12517 L 6938,12560 6895,12602 6853,12560 Z M 9779,12517 L 9821,12560 9779,12602 9737,12560 Z M 9567,12560 L 9609,12602 9567,12644 9525,12602 Z M 2527,12602 L 2569,12644 2527,12687 2484,12644 Z M 9355,12602 L 9397,12644 9355,12687 9313,12644 Z M 6556,12644 L 6598,12687 6556,12729 6513,12687 Z M 6429,12687 L 6471,12729 6429,12772 6386,12729 Z M 8888,12814 L 8931,12856 8888,12899 8846,12856 Z M 11179,12814 L 11263,12899 11221,12941 11136,12856 Z M 5156,13111 L 5199,13153 5156,13196 5114,13153 Z M 11433,13111 L 11518,13196 11475,13238 11391,13153 Z M 4859,13196 L 4902,13238 4859,13281 4817,13238 Z M 8846,13196 L 8888,13238 8846,13281 8804,13238 Z M 4563,13281 L 4605,13323 4563,13365 4520,13323 Z M 10500,13365 L 10542,13408 10500,13450 10458,13408 Z M 4054,13408 L 4096,13450 4054,13493 4011,13450 Z M 10288,13408 L 10330,13450 10288,13493 10246,13450 Z M 10585,13408 L 10670,13493 10627,13535 10542,13450 Z M 11688,13408 L 11730,13450 11688,13493 11645,13450 Z M 3884,13450 L 3926,13493 3884,13535 3842,13493 Z M 9016,13493 L 9058,13535 9016,13578 8973,13535 Z M 10415,13493 L 10458,13535 10415,13578 10373,13535 Z M 3502,13535 L 3545,13578 3502,13620 3460,13578 Z M 9609,13535 L 9652,13578 9609,13620 9567,13578 Z M 9779,13535 L 9821,13578 9821,13620 9779,13662 9737,13620 9737,13578 Z M 3333,13620 L 3375,13662 3333,13705 3290,13662 Z M 11900,13662 L 11984,13747 11942,13790 11857,13705 Z M 10754,13705 L 10797,13747 10754,13790 10712,13747 Z M 9270,13747 L 9313,13790 9270,13832 9228,13790 Z M 9567,13790 L 9609,13832 9567,13874 9525,13832 Z M 9694,13874 L 9737,13917 9694,13959 9652,13917 Z M 10924,13874 L 10967,13917 10924,13959 10882,13917 Z M 12112,13917 L 12154,13959 12112,14002 12069,13959 Z M 3460,13959 L 3502,14002 3460,14044 3417,14002 Z M 10118,14044 L 10161,14087 10118,14129 10076,14087 Z M 9482,14087 L 9525,14129 9482,14171 9440,14129 Z M 10330,14087 L 10373,14129 10330,14171 10288,14129 Z M 10967,14087 L 11009,14129 10967,14171 10924,14129 Z M 9652,14129 L 9694,14171 9694,14214 9652,14256 9609,14214 9609,14171 Z M 3545,14171 L 3587,14214 3545,14256 3502,14214 Z M 12324,14171 L 12366,14214 12324,14256 12281,14214 Z M 10712,14214 L 10754,14256 10712,14299 10670,14256 Z M 11136,14256 L 11179,14299 11136,14341 11094,14299 Z M 9864,14341 L 9949,14426 9906,14468 9821,14383 Z M 10967,14341 L 11009,14383 10967,14426 10924,14383 Z M 11094,14341 L 11136,14383 11051,14468 11009,14426 Z M 11179,14341 L 11221,14383 11179,14426 11136,14383 Z M 3205,14383 L 3248,14426 3205,14468 3163,14426 Z M 3629,14383 L 3672,14426 3629,14468 3587,14426 Z M 9440,14383 L 9482,14426 9440,14468 9397,14426 Z M 12493,14383 L 12536,14426 12493,14468 12451,14426 Z M 9609,14426 L 9652,14468 9609,14511 9567,14468 Z M 11221,14426 L 11263,14468 11221,14511 11179,14468 Z M 10882,14511 L 10924,14553 10882,14596 10839,14553 Z M 11263,14511 L 11306,14553 11263,14596 11221,14553 Z M 9567,14553 L 9609,14596 9567,14638 9525,14596 Z M 9652,14553 L 9737,14553 9779,14596 9737,14638 9652,14638 9609,14596 Z M 3290,14596 L 3333,14638 3290,14680 3248,14638 Z M 3714,14596 L 3757,14638 3714,14680 3672,14638 Z M 3799,14596 L 3842,14638 3799,14680 3757,14638 Z M 4308,14596 L 4350,14638 4308,14680 4266,14638 Z M 11306,14596 L 11348,14638 11306,14680 11263,14638 Z M 4435,14638 L 4478,14680 4435,14723 4393,14680 Z M 9779,14638 L 9821,14680 9779,14723 9737,14680 Z M 10627,14638 L 10670,14680 10627,14723 10585,14680 Z M 12705,14638 L 12748,14680 12705,14723 12663,14680 Z M 3290,14680 L 3333,14723 3290,14765 3248,14723 Z M 9355,14680 L 9397,14723 9355,14765 9313,14723 Z M 9864,14680 L 9906,14723 9864,14765 9821,14723 Z M 11009,14680 L 11051,14723 11009,14765 10967,14723 Z M 11348,14680 L 11391,14723 11348,14765 11306,14723 Z M 3205,14723 L 3248,14765 3205,14808 3163,14765 Z M 4605,14723 L 4647,14765 4605,14808 4563,14765 Z M 12748,14723 L 12790,14765 12748,14808 12705,14765 Z M 3799,14765 L 3842,14808 3799,14850 3757,14808 Z M 4393,14765 L 4435,14808 4393,14850 4350,14808 Z M 3375,14808 L 3417,14850 3375,14892 3333,14850 Z M 4478,14808 L 4520,14850 4478,14892 4435,14850 Z M 10670,14808 L 10712,14850 10670,14892 10627,14850 Z M 10797,14808 L 10839,14850 10797,14892 10754,14850 Z M 9440,14850 L 9482,14892 9440,14935 9397,14892 Z M 9609,14850 L 9652,14892 9609,14935 9567,14892 Z M 10585,14850 L 10627,14892 10585,14935 10542,14892 Z M 11475,14850 L 11518,14892 11475,14935 11433,14892 Z M 11688,14850 L 11730,14892 11688,14935 11645,14892 Z M 3248,14892 L 3290,14935 3248,14977 3205,14935 Z M 4817,14892 L 4859,14935 4817,14977 4775,14935 Z M 3121,14935 L 3163,14977 3121,15020 3078,14977 Z M 9228,14977 L 9270,15020 9228,15062 9185,15020 Z M 10542,14977 L 10585,15020 10542,15062 10500,15020 Z M 3163,15020 L 3205,15062 3163,15104 3121,15062 Z M 3502,15062 L 3545,15104 3502,15147 3460,15104 Z M 11009,15062 L 11051,15104 11009,15147 10967,15104 Z M 11942,15062 L 11984,15104 11942,15147 11900,15104 Z M 3205,15104 L 3248,15147 3205,15189 3163,15147 Z M 4054,15104 L 4096,15147 4054,15189 4011,15147 Z M 12748,15104 L 12790,15147 12748,15189 12705,15147 Z M 4138,15147 L 4223,15232 4181,15274 4096,15189 Z M 5071,15147 L 5114,15189 5071,15232 5029,15189 Z M 9821,15147 L 9864,15189 9821,15232 9779,15189 Z M 10797,15147 L 10839,15189 10797,15232 10754,15189 Z M 10967,15147 L 11009,15189 10967,15232 10924,15189 Z M 5114,15232 L 5156,15274 5114,15317 5071,15274 Z M 9143,15232 L 9185,15274 9143,15317 9100,15274 Z M 12960,15232 L 13002,15274 12960,15317 12917,15274 Z M 9270,15274 L 9313,15317 9270,15359 9228,15317 Z M 9652,15274 L 9694,15317 9652,15359 9609,15317 Z M 9737,15274 L 9779,15317 9737,15359 9694,15317 Z M 3714,15317 L 3757,15359 3714,15401 3672,15359 Z M 3884,15317 L 3926,15359 3884,15401 3842,15359 Z M 4011,15317 L 4054,15359 4011,15401 3969,15359 Z M 11857,15317 L 11900,15359 11857,15401 11815,15359 Z M 5156,15359 L 5199,15401 5156,15444 5114,15401 Z M 3290,15401 L 3333,15444 3290,15486 3248,15444 Z M 4138,15401 L 4181,15444 4138,15486 4096,15444 Z M 9821,15444 L 9864,15486 9779,15571 9737,15529 Z M 12578,15444 L 12621,15486 12578,15529 12536,15486 Z M 13172,15444 L 13214,15486 13172,15529 13129,15486 Z M 4181,15486 L 4223,15529 4181,15571 4138,15529 Z M 5241,15486 L 5368,15613 5326,15656 5199,15529 Z M 11560,15486 L 11688,15486 11730,15529 11688,15571 11560,15571 11518,15529 Z M 9270,15529 L 9313,15571 9270,15613 9228,15571 Z M 11984,15529 L 12027,15529 12069,15571 12027,15613 11984,15613 11942,15571 Z M 12663,15529 L 12705,15571 12663,15613 12621,15571 Z M 3205,15571 L 3248,15613 3205,15656 3163,15613 Z M 9143,15613 L 9185,15656 9143,15698 9100,15656 Z M 3417,15656 L 3460,15698 3417,15741 3375,15698 Z M 9779,15656 L 9821,15698 9779,15741 9737,15698 Z M 12324,15656 L 12366,15698 12324,15741 12281,15698 Z M 12748,15656 L 12790,15698 12748,15741 12705,15698 Z M 9906,15698 L 9949,15741 9906,15783 9864,15741 Z M 3460,15741 L 3502,15783 3460,15826 3417,15783 Z M 4435,15741 L 4478,15783 4435,15826 4393,15783 Z M 5580,15741 L 5623,15783 5580,15826 5538,15783 Z M 10033,15741 L 10076,15783 10033,15826 9991,15783 Z M 11857,15741 L 11900,15783 11857,15826 11815,15783 Z M 12790,15741 L 12833,15783 12790,15826 12748,15783 Z M 5665,15783 L 5708,15826 5665,15868 5623,15826 Z M 9355,15783 L 9397,15826 9355,15868 9313,15826 Z M 9567,15783 L 9609,15826 9567,15868 9525,15826 Z M 9737,15783 L 9779,15826 9779,15868 9737,15910 9694,15868 9694,15826 Z M 10288,15783 L 10330,15826 10288,15868 10246,15826 Z M 12366,15783 L 12408,15826 12366,15868 12324,15826 Z M 12663,15783 L 12705,15826 12663,15868 12621,15826 Z M 3333,15826 L 3375,15868 3333,15910 3290,15868 Z M 4520,15826 L 4647,15953 4605,15995 4478,15868 Z M 3545,15868 L 3587,15910 3545,15953 3502,15910 Z M 4308,15868 L 4350,15910 4308,15953 4266,15910 Z M 9228,15868 L 9270,15910 9228,15953 9185,15910 Z M 10118,15868 L 10161,15910 10118,15953 10076,15910 Z M 11688,15910 L 11730,15953 11688,15995 11645,15953 Z M 12408,15910 L 12451,15953 12408,15995 12366,15953 Z M 9864,15953 L 9906,15995 9864,16038 9821,15995 Z M 11815,15953 L 11857,15995 11815,16038 11772,15995 Z M 12705,15953 L 12748,15995 12705,16038 12663,15995 Z M 13850,15953 L 13893,15995 13850,16038 13808,15995 Z M 4350,15995 L 4393,16038 4350,16080 4308,16038 Z M 5326,15995 L 5368,16038 5326,16080 5283,16038 Z M 10458,15995 L 10500,16038 10458,16080 10415,16038 Z M 13766,15995 L 13808,16038 13766,16080 13723,16038 Z M 3460,16038 L 3502,16080 3460,16122 3417,16080 Z M 6174,16038 L 6217,16080 6174,16122 6132,16080 Z M 13299,16038 L 13342,16080 13299,16122 13257,16080 Z M 13681,16038 L 13723,16080 13681,16122 13638,16080 Z M 6259,16080 L 6301,16122 6259,16165 6217,16122 Z M 9313,16080 L 9355,16122 9313,16165 9270,16122 Z M 12451,16080 L 12493,16122 12451,16165 12408,16122 Z M 5283,16122 L 5326,16165 5283,16207 5241,16165 Z M 6344,16122 L 6386,16165 6344,16207 6301,16165 Z M 10161,16122 L 10203,16165 10161,16207 10118,16165 Z M 12917,16122 L 12960,16165 12917,16207 12875,16165 Z M 14020,16122 L 14063,16165 14020,16207 13978,16165 Z M 4393,16165 L 4435,16207 4393,16250 4350,16207 Z M 6429,16165 L 6471,16207 6429,16250 6386,16207 Z M 9991,16165 L 10033,16207 9991,16250 9949,16207 Z M 11645,16207 L 11688,16250 11645,16292 11603,16250 Z M 11772,16207 L 11815,16250 11772,16292 11730,16250 Z M 12493,16207 L 12536,16250 12493,16292 12451,16250 Z M 13257,16207 L 13299,16250 13257,16292 13214,16250 Z M 13342,16207 L 13384,16250 13342,16292 13299,16250 Z M 3969,16292 L 4011,16335 3969,16377 3926,16335 Z M 4775,16292 L 4817,16335 4775,16377 4732,16335 Z M 9397,16292 L 9440,16335 9397,16377 9355,16335 Z M 4054,16335 L 4096,16377 4054,16419 4011,16377 Z M 6810,16335 L 6853,16377 6810,16419 6768,16377 Z M 9567,16335 L 9609,16377 9567,16419 9525,16377 Z M 13850,16335 L 13893,16377 13850,16419 13808,16377 Z M 4817,16377 L 4859,16419 4817,16462 4775,16419 Z M 6895,16377 L 6938,16419 6895,16462 6853,16419 Z M 13766,16377 L 13808,16419 13766,16462 13723,16419 Z M 3842,16419 L 3884,16462 3842,16504 3799,16462 Z M 9440,16419 L 9482,16462 9440,16504 9397,16462 Z M 13681,16419 L 13723,16462 13681,16504 13638,16462 Z M 4520,16462 L 4563,16504 4520,16547 4478,16504 Z M 5156,16462 L 5199,16504 5156,16547 5114,16504 Z M 11603,16462 L 11645,16504 11603,16547 11560,16504 Z M 7192,16504 L 7234,16547 7192,16589 7150,16547 Z M 10670,16504 L 10712,16547 10670,16589 10627,16547 Z M 11730,16504 L 11772,16547 11730,16589 11688,16547 Z M 9779,16547 L 9821,16589 9779,16631 9737,16589 Z M 10500,16547 L 10542,16589 10500,16631 10458,16589 Z M 13384,16547 L 13426,16589 13384,16631 13342,16589 Z M 14020,16547 L 14063,16589 14020,16631 13978,16589 Z M 14232,16589 L 14275,16631 14232,16674 14190,16631 Z M 7489,16631 L 7531,16674 7489,16716 7446,16674 Z M 4181,16674 L 4223,16716 4181,16759 4138,16716 Z M 9694,16674 L 9737,16716 9694,16759 9652,16716 Z M 5029,16716 L 5071,16759 5029,16801 4987,16759 Z M 7701,16716 L 7743,16759 7701,16801 7658,16759 Z M 10458,16716 L 10500,16759 10458,16801 10415,16759 Z M 13172,16716 L 13214,16759 13172,16801 13129,16759 Z M 10161,16759 L 10203,16801 10161,16844 10118,16801 Z M 11560,16759 L 11603,16801 11560,16844 11518,16801 Z M 4223,16801 L 4266,16844 4223,16886 4181,16844 Z M 7913,16801 L 7955,16844 7913,16886 7871,16844 Z M 11688,16801 L 11730,16844 11730,16886 11688,16928 11645,16886 11645,16844 Z M 13342,16801 L 13384,16844 13342,16886 13299,16844 Z M 14359,16801 L 14402,16844 14359,16886 14317,16844 Z M 4647,16844 L 4690,16886 4647,16928 4605,16886 Z M 8040,16844 L 8083,16886 8040,16928 7998,16886 Z M 14317,16928 L 14359,16971 14317,17013 14275,16971 Z M 4690,16971 L 4732,17013 4690,17056 4647,17013 Z M 8464,16971 L 8507,17013 8464,17056 8422,17013 Z M 10076,16971 L 10118,17013 10076,17056 10033,17013 Z M 14020,16971 L 14063,17013 14020,17056 13978,17013 Z M 4308,17013 L 4350,17056 4308,17098 4266,17056 Z M 4944,17013 L 4987,17056 4944,17098 4902,17056 Z M 8634,17013 L 8676,17056 8634,17098 8592,17056 Z M 11518,17013 L 11560,17056 11518,17098 11475,17056 Z M 13850,17013 L 13893,17056 13850,17098 13808,17056 Z M 12917,17056 L 12960,17098 12917,17140 12875,17098 Z M 13723,17056 L 13766,17098 13723,17140 13681,17098 Z M 4732,17098 L 4775,17140 4732,17183 4690,17140 Z M 8931,17098 L 8973,17140 8931,17183 8888,17140 Z M 4902,17140 L 4944,17183 4902,17225 4859,17183 Z M 8295,17183 L 8337,17225 8295,17268 8252,17225 Z M 8464,17183 L 8507,17225 8464,17268 8422,17225 Z M 8973,17183 L 9016,17225 8973,17268 8931,17225 Z M 9270,17183 L 9313,17225 9270,17268 9228,17225 Z M 9906,17183 L 9949,17225 9949,17268 9906,17310 9864,17268 9864,17225 Z M 4393,17225 L 4435,17268 4393,17310 4350,17268 Z M 4775,17225 L 4817,17268 4775,17310 4732,17268 Z M 9440,17225 L 9482,17268 9440,17310 9397,17268 Z M 9652,17268 L 9694,17310 9652,17353 9609,17310 Z M 10033,17268 L 10076,17310 10033,17353 9991,17310 Z M 9821,17310 L 9864,17353 9821,17395 9779,17353 Z M 11475,17310 L 11518,17353 11475,17395 11433,17353 Z M 11645,17310 L 11688,17353 11688,17437 11645,17480 11603,17437 11603,17353 Z M 8422,17395 L 8464,17437 8422,17480 8379,17437 Z M 11433,17437 L 11475,17480 11433,17522 11391,17480 Z M 5029,17480 L 5071,17522 5029,17565 4987,17522 Z M 11815,17480 L 11857,17522 11815,17565 11772,17522 Z M 9270,17522 L 9313,17565 9270,17607 9228,17565 Z M 11391,17522 L 11433,17565 11391,17607 11348,17565 Z M 11942,17522 L 11984,17565 11942,17607 11900,17565 Z M 4520,17565 L 4563,17607 4520,17649 4478,17607 Z M 8676,17565 L 8719,17607 8676,17649 8634,17607 Z M 9991,17565 L 10033,17607 10033,17649 9991,17692 9949,17649 9949,17607 Z M 12069,17565 L 12112,17607 12069,17649 12027,17607 Z M 4902,17607 L 4944,17649 4902,17692 4859,17649 Z M 8549,17607 L 8592,17649 8549,17692 8507,17649 Z M 9313,17607 L 9355,17649 9313,17692 9270,17649 Z M 5368,17692 L 5411,17734 5368,17777 5326,17734 Z M 9355,17692 L 9397,17734 9355,17777 9313,17734 Z M 11263,17692 L 11306,17734 11263,17777 11221,17734 Z M 4944,17734 L 4987,17777 4944,17819 4902,17777 Z M 4605,17777 L 4647,17819 4605,17862 4563,17819 Z M 5496,17777 L 5538,17819 5496,17862 5453,17819 Z M 9397,17777 L 9440,17819 9397,17862 9355,17819 Z M 8676,17819 L 8719,17862 8676,17904 8634,17862 Z M 4987,17862 L 5029,17904 4987,17946 4944,17904 Z M 8846,17862 L 8888,17904 8846,17946 8804,17904 Z M 9440,17862 L 9482,17904 9440,17946 9397,17904 Z M 11136,17862 L 11179,17904 11136,17946 11094,17904 Z M 13002,17862 L 13045,17904 13002,17946 12960,17904 Z M 5708,17904 L 5750,17946 5708,17989 5665,17946 Z M 9949,17904 L 9991,17946 9949,17989 9906,17946 Z M 8888,17946 L 8931,17989 8888,18031 8846,17989 Z M 9482,17946 L 9525,17989 9482,18031 9440,17989 Z M 5029,17989 L 5071,18031 5029,18074 4987,18031 Z M 12366,17989 L 12408,18031 12366,18074 12324,18031 Z M 12621,17989 L 12663,18031 12621,18074 12578,18031 Z M 5920,18031 L 5962,18074 5920,18116 5877,18074 Z M 8804,18031 L 8846,18074 8804,18116 8761,18074 Z M 9525,18031 L 9567,18074 9525,18116 9482,18074 Z M 11009,18031 L 11051,18074 11009,18116 10967,18074 Z M 12281,18031 L 12324,18074 12281,18116 12239,18074 Z M 12536,18031 L 12578,18074 12536,18116 12493,18074 Z M 12196,18074 L 12239,18116 12196,18158 12154,18116 Z M 13299,18074 L 13342,18116 13299,18158 13257,18116 Z M 4732,18116 L 4775,18158 4732,18201 4690,18158 Z M 5071,18116 L 5114,18158 5071,18201 5029,18158 Z M 9567,18116 L 9609,18158 9567,18201 9525,18158 Z M 12112,18116 L 12154,18158 12112,18201 12069,18158 Z M 6132,18158 L 6174,18201 6132,18243 6089,18201 Z M 9016,18158 L 9058,18201 9016,18243 8973,18201 Z M 13426,18158 L 13469,18201 13426,18243 13384,18201 Z M 4944,18201 L 4987,18243 4944,18286 4902,18243 Z M 9482,18201 L 9525,18243 9482,18286 9440,18243 Z M 9609,18201 L 9652,18243 9609,18286 9567,18243 Z M 9906,18201 L 9949,18243 9949,18286 9906,18328 9864,18286 9864,18243 Z M 13087,18201 L 13129,18243 13087,18286 13045,18243 Z M 8931,18243 L 8973,18286 8931,18328 8888,18286 Z M 9058,18243 L 9100,18286 9058,18328 9016,18286 Z M 10839,18243 L 10882,18286 10839,18328 10797,18286 Z M 13681,18243 L 13723,18286 13681,18328 13638,18286 Z M 9525,18286 L 9567,18328 9525,18371 9482,18328 Z M 9652,18286 L 9694,18328 9652,18371 9609,18328 Z M 6429,18328 L 6471,18371 6429,18413 6386,18371 Z M 11984,18328 L 12027,18371 11984,18413 11942,18371 Z M 13723,18328 L 13766,18371 13723,18413 13681,18371 Z M 11900,18371 L 11942,18413 11900,18455 11857,18413 Z M 12790,18371 L 12833,18413 12790,18455 12748,18413 Z M 13045,18371 L 13087,18413 13045,18455 13002,18413 Z M 11815,18413 L 11857,18455 11815,18498 11772,18455 Z M 9058,18455 L 9100,18498 9058,18540 9016,18498 Z M 9185,18455 L 9228,18498 9185,18540 9143,18498 Z M 6725,18498 L 6768,18540 6725,18583 6683,18540 Z M 9864,18540 L 9906,18583 9864,18625 9821,18583 Z M 9143,18583 L 9185,18625 9143,18667 9100,18625 Z M 11221,18583 L 11263,18625 11221,18667 11179,18625 Z M 13808,18583 L 13850,18625 13808,18667 13766,18625 Z M 9694,18625 L 9737,18667 9694,18710 9652,18667 Z M 11136,18625 L 11179,18667 11136,18710 11094,18667 Z M 12324,18625 L 12366,18667 12324,18710 12281,18667 Z M 12578,18625 L 12621,18667 12578,18710 12536,18667 Z M 7022,18667 L 7065,18710 7022,18752 6980,18710 Z M 9313,18667 L 9355,18710 9313,18752 9270,18710 Z M 11051,18667 L 11094,18710 11051,18752 11009,18710 Z M 12239,18667 L 12281,18710 12239,18752 12196,18710 Z M 12493,18667 L 12536,18710 12493,18752 12451,18710 Z M 10967,18710 L 11009,18752 10967,18795 10924,18752 Z M 10882,18752 L 10924,18795 10882,18837 10839,18795 Z M 9270,18795 L 9313,18837 9270,18880 9228,18837 Z M 10797,18795 L 10839,18837 10797,18880 10754,18837 Z M 7319,18837 L 7362,18880 7319,18922 7277,18880 Z M 10712,18837 L 10754,18880 10712,18922 10670,18880 Z M 9737,18880 L 9779,18922 9737,18964 9694,18922 Z M 10203,18880 L 10246,18922 10203,18964 10161,18922 Z M 10627,18880 L 10670,18922 10627,18964 10585,18922 Z M 12112,18880 L 12154,18922 12112,18964 12069,18922 Z M 10542,18922 L 10585,18964 10542,19007 10500,18964 Z M 12027,18922 L 12069,18964 12027,19007 11984,18964 Z M 10076,18964 L 10118,19007 10076,19049 10033,19007 Z M 10458,18964 L 10500,19007 10458,19049 10415,19007 Z M 11688,18964 L 11730,19007 11688,19049 11645,19007 Z M 11942,18964 L 11984,19007 11942,19049 11900,19007 Z M 13893,18964 L 13935,19007 13893,19049 13850,19007 Z M 7616,19007 L 7658,19049 7616,19092 7574,19049 Z M 10373,19007 L 10415,19049 10373,19092 10330,19049 Z M 11603,19007 L 11645,19049 11603,19092 11560,19049 Z M 7701,19049 L 7743,19092 7701,19134 7658,19092 Z M 9779,19049 L 9821,19092 9779,19134 9737,19092 Z M 10288,19049 L 10330,19092 10288,19134 10246,19092 Z M 9567,19092 L 9609,19134 9567,19176 9525,19134 Z M 9864,19092 L 9906,19134 9864,19176 9821,19134 Z M 10203,19092 L 10246,19134 10203,19176 10161,19134 Z M 9482,19134 L 9525,19176 9482,19219 9440,19176 Z M 10118,19134 L 10161,19176 10118,19219 10076,19176 Z M 13935,19176 L 13978,19219 13935,19261 13893,19219 Z M 7998,19219 L 8040,19261 7998,19304 7955,19261 Z M 10203,19219 L 10246,19261 10203,19304 10161,19261 Z M 11475,19219 L 11518,19261 11475,19304 11433,19261 Z M 9567,19261 L 9609,19304 9567,19346 9525,19304 Z M 10118,19261 L 10161,19304 10118,19346 10076,19304 Z M 11391,19261 L 11433,19304 11391,19346 11348,19304 Z M 9737,19304 L 9779,19346 9737,19389 9694,19346 Z M 11051,19304 L 11094,19346 11051,19389 11009,19346 Z M 11306,19304 L 11348,19346 11306,19389 11263,19346 Z M 10967,19346 L 11009,19389 10967,19431 10924,19389 Z M 10882,19389 L 10924,19431 10882,19473 10839,19431 Z M 13978,19389 L 14020,19431 13978,19473 13935,19431 Z M 10797,19431 L 10839,19473 10797,19516 10754,19473 Z M 9694,19473 L 9737,19516 9694,19558 9652,19516 Z M 9864,19473 L 9906,19516 9864,19558 9821,19516 Z M 10670,19473 L 10712,19516 10670,19558 10627,19516 Z M 10500,19516 L 10542,19558 10500,19601 10458,19558 Z M 7998,19558 L 8040,19601 7998,19643 7955,19601 Z M 10712,19601 L 10754,19643 10712,19685 10670,19643 Z M 14020,19601 L 14063,19643 14020,19685 13978,19643 Z M 9482,19643 L 9525,19685 9482,19728 9440,19685 Z M 9821,19643 L 9864,19643 9906,19685 9864,19728 9821,19728 9779,19685 Z M 10585,19643 L 10627,19685 10585,19728 10542,19685 Z M 10246,19685 L 10288,19685 10330,19728 10288,19770 10246,19770 10203,19728 Z M 9355,19770 L 9397,19813 9355,19855 9313,19813 Z M 7955,19940 L 7998,19982 7955,20025 7913,19982 Z M 9440,19940 L 9482,19982 9440,20025 9397,19982 Z M 8804,20067 L 8846,20110 8804,20152 8761,20110 Z M 8888,20110 L 8931,20152 8888,20194 8846,20152 Z M 8973,20152 L 9016,20194 8973,20237 8931,20194 Z M 9058,20194 L 9100,20237 9058,20279 9016,20237 Z M 9906,20194 L 9949,20237 9906,20279 9864,20237 Z M 14147,20194 L 14190,20237 14147,20279 14105,20237 Z M 9185,20237 L 9228,20279 9185,20322 9143,20279 Z M 12196,20279 L 12239,20322 12196,20364 12154,20322 Z M 7913,20322 L 7955,20364 7913,20407 7871,20364 Z M 9906,20364 L 9949,20407 9906,20449 9864,20407 Z M 12324,20407 L 12366,20449 12324,20491 12281,20449 Z M 14190,20407 L 14232,20449 14190,20491 14147,20449 Z M 8888,20449 L 8931,20491 8888,20534 8846,20491 Z M 9355,20449 L 9397,20491 9355,20534 9313,20491 Z M 9143,20491 L 9185,20534 9143,20576 9100,20534 Z M 9228,20534 L 9270,20576 9185,20661 9143,20619 Z M 9864,20534 L 9906,20576 9864,20619 9821,20576 Z M 9100,20576 L 9143,20619 9100,20661 9058,20619 Z M 14232,20619 L 14275,20661 14232,20703 14190,20661 Z M 12281,20661 L 12324,20703 12281,20746 12239,20703 Z M 7871,20703 L 7913,20746 7871,20788 7828,20746 Z M 12408,20788 L 12451,20831 12408,20873 12366,20831 Z M 12324,20831 L 12366,20873 12324,20916 12281,20873 Z M 14275,20831 L 14317,20873 14275,20916 14232,20873 Z M 12451,20958 L 12493,21000 12451,21043 12408,21000 Z M 14317,21043 L 14359,21085 14317,21128 14275,21085 Z M 7828,21085 L 7871,21128 7828,21170 7786,21128 Z M 12408,21212 L 12451,21255 12408,21297 12366,21255 Z M 14359,21255 L 14402,21297 14359,21340 14317,21297 Z M 12536,21340 L 12578,21382 12536,21425 12493,21382 Z M 12451,21382 L 12493,21425 12451,21467 12408,21425 Z M 15250,21382 L 15292,21425 15250,21467 15208,21425 Z M 15504,21382 L 15547,21425 15504,21467 15462,21425 Z M 7786,21467 L 7828,21509 7786,21552 7743,21509 Z M 12578,21509 L 12621,21552 12578,21594 12536,21552 Z M 15632,21509 L 15674,21552 15632,21594 15589,21552 Z M 12621,21721 L 12663,21764 12621,21806 12578,21764 Z M 12536,21764 L 12578,21806 12536,21849 12493,21806 Z M 7743,21849 L 7786,21891 7743,21934 7701,21891 Z M 12663,21891 L 12705,21934 12663,21976 12621,21934 Z M 12578,21934 L 12621,21976 12578,22018 12536,21976 Z M 12705,22061 L 12748,22103 12705,22146 12663,22103 Z M 7701,22230 L 7743,22273 7701,22315 7658,22273 Z M 12663,22315 L 12705,22358 12663,22400 12621,22358 Z M 12790,22443 L 12833,22485 12790,22527 12748,22485 Z M 12705,22485 L 12748,22527 12705,22570 12663,22527 Z M 7658,22612 L 7701,22655 7658,22697 7616,22655 Z M 12833,22612 L 12875,22655 12833,22697 12790,22655 Z M 14741,22612 L 14783,22655 14741,22697 14699,22655 Z M 14232,22655 L 14275,22697 14232,22739 14190,22697 Z M 14487,22655 L 14529,22697 14487,22739 14444,22697 Z M 13893,22697 L 13935,22739 13893,22782 13850,22739 Z M 14614,22697 L 14656,22739 14614,22782 14571,22739 Z M 13554,22739 L 13596,22739 13638,22782 13596,22824 13554,22824 13511,22782 Z M 13214,22782 L 13257,22824 13214,22867 13172,22824 Z M 12917,22824 L 12960,22867 12917,22909 12875,22867 Z M 12790,22867 L 12833,22909 12790,22952 12748,22909 Z M 7616,22994 L 7658,23036 7658,23079 7616,23121 7574,23079 7574,23036 Z M 14783,22994 L 14826,23036 14783,23079 14741,23036 Z M 12833,23036 L 12875,23079 12833,23121 12790,23079 Z M 14529,23036 L 14571,23079 14529,23121 14487,23079 Z M 14359,23079 L 14402,23121 14359,23164 14317,23121 Z M 11221,23121 L 11306,23121 11348,23164 11306,23206 11221,23206 11179,23164 Z M 11391,23164 L 11433,23206 11391,23248 11348,23206 Z M 14275,23206 L 14317,23248 14275,23291 14232,23248 Z M 14105,23248 L 14147,23291 14105,23333 14063,23291 Z M 13002,23291 L 13045,23333 13002,23376 12960,23333 Z M 13129,23333 L 13172,23376 13129,23418 13087,23376 Z M 14232,23333 L 14275,23376 14232,23418 14190,23376 Z M 7574,23376 L 7616,23418 7574,23461 7531,23418 Z M 13257,23376 L 13299,23418 13257,23461 13214,23418 Z M 14571,23376 L 14614,23418 14571,23461 14529,23418 Z M 13384,23418 L 13426,23461 13384,23503 13342,23461 Z M 13129,23461 L 13172,23461 13214,23503 13172,23545 13129,23545 13087,23503 Z M 13511,23461 L 13554,23503 13511,23545 13469,23503 Z M 13638,23503 L 13681,23545 13638,23588 13596,23545 Z M 14359,23503 L 14402,23545 14359,23588 14317,23545 Z M 13469,23545 L 13511,23588 13469,23630 13426,23588 Z M 13766,23545 L 13808,23588 13766,23630 13723,23588 Z M 12833,23588 L 12875,23630 12833,23673 12790,23630 Z M 13045,23588 L 13087,23630 13045,23673 13002,23630 Z M 13257,23588 L 13299,23630 13257,23673 13214,23630 Z M 13596,23588 L 13638,23630 13596,23673 13554,23630 Z M 13893,23588 L 13935,23630 13893,23673 13850,23630 Z M 14275,23588 L 14317,23630 14275,23673 14232,23630 Z M 14571,23588 L 14614,23630 14571,23673 14529,23630 Z M 10967,23630 L 11009,23673 10967,23715 10924,23673 Z M 12705,23673 L 12748,23715 12705,23757 12663,23715 Z M 13554,23673 L 13596,23715 13554,23757 13511,23715 Z M 14317,23673 L 14359,23715 14317,23757 14275,23715 Z M 12833,23715 L 12875,23757 12833,23800 12790,23757 Z M 13681,23715 L 13723,23757 13681,23800 13638,23757 Z M 14105,23715 L 14147,23715 14190,23757 14147,23800 14105,23800 14063,23757 Z M 7531,23757 L 7574,23800 7531,23842 7489,23800 Z M 12578,23757 L 12621,23800 12578,23842 12536,23800 Z M 13808,23757 L 13850,23800 13808,23842 13766,23800 Z M 14402,23757 L 14444,23800 14402,23842 14359,23800 Z M 11263,23800 L 11603,24139 11560,24182 11221,23842 Z M 12705,23800 L 12748,23842 12705,23885 12663,23842 Z M 13935,23800 L 13978,23842 13935,23885 13893,23842 Z M 14275,23800 L 14317,23842 14275,23885 14232,23842 Z M 12281,23885 L 12366,23970 12324,24012 12239,23927 Z M 12408,23885 L 12451,23927 12408,23970 12366,23927 Z M 11560,24224 L 11730,24394 11688,24436 11518,24266 Z M 11815,24479 L 11857,24521 11815,24563 11772,24521 Z"/>
       <path fill="rgb(237,35,37)" stroke="rgb(237,35,37)" d="M 14953,8615 L 15038,8615 15250,8742 15504,8869 15632,8954 15759,9081 16310,10608 16268,10651 16013,10396 15208,9802 15165,9802 14953,9675 14868,9590 14020,9166 13978,9166 13935,9124 13978,9081 14020,9081 Z M 17498,10524 L 18473,11796 19109,12984 19661,14680 19830,15783 19830,17480 19279,19770 18855,20788 18643,21170 17710,22485 16692,23503 15674,24266 15632,24266 15547,24309 15462,24394 14147,25030 12493,25497 11560,25624 11433,25666 11391,25709 10246,25709 8252,25327 7616,25115 6344,24521 5326,23842 5156,23673 4944,23503 4902,23503 3926,22527 3036,21297 2400,19982 2103,19092 1763,17395 1806,15444 2060,14214 2272,13535 2527,12941 2612,12856 2654,12899 3036,13959 3078,14002 3078,14214 2696,16122 2739,17607 2908,18540 3248,19601 3757,20661 4732,22018 5665,22909 6047,23206 6089,23206 6217,23291 6301,23376 6556,23545 6598,23545 6683,23588 6768,23673 7743,24139 8592,24436 9906,24691 11136,24733 12366,24563 13045,24394 14699,23757 15547,23206 15674,23079 15844,22952 15886,22952 16904,21976 17795,20746 18092,20152 18558,18922 18897,17225 18855,15613 18770,15062 18473,13959 17879,12644 17795,12560 17752,12475 17752,12432 17031,11414 16438,10778 16480,10736 16522,10778 16946,10778 Z"/>
       <path fill="rgb(105,64,118)" stroke="rgb(105,64,118)" d="M 14911,8615 L 14953,8657 14911,8700 14868,8657 Z M 14359,8869 L 14402,8912 14359,8954 14317,8912 Z M 14275,8912 L 14317,8954 14275,8997 14232,8954 Z M 15844,9336 L 15886,9378 15844,9421 15801,9378 Z M 15886,9463 L 15929,9506 15886,9548 15844,9506 Z M 15929,9590 L 15971,9633 15929,9675 15886,9633 Z M 16056,9930 L 16098,9972 16056,10015 16013,9972 Z M 16098,10057 L 16141,10099 16098,10142 16056,10099 Z M 16141,10184 L 16183,10227 16141,10269 16098,10227 Z M 16268,10524 L 16310,10566 16268,10608 16225,10566 Z M 17116,10693 L 17158,10736 17116,10778 17074,10736 Z M 2654,12941 L 2696,12984 2654,13026 2612,12984 Z M 2739,13153 L 2781,13196 2739,13238 2696,13196 Z M 2824,13365 L 2866,13408 2824,13450 2781,13408 Z M 2866,13493 L 2908,13535 2866,13578 2824,13535 Z M 2951,13705 L 2993,13747 2951,13790 2908,13747 Z M 2993,13832 L 3036,13874 2993,13917 2951,13874 Z M 3078,14044 L 3121,14087 3078,14129 3036,14087 Z M 15717,23036 L 15759,23079 15717,23121 15674,23079 Z M 15377,23291 L 15420,23333 15377,23376 15335,23333 Z M 15250,23376 L 15292,23418 15250,23461 15208,23418 Z M 15123,23461 L 15165,23503 15123,23545 15080,23503 Z M 14996,23545 L 15038,23588 14996,23630 14953,23588 Z M 14699,23715 L 14741,23757 14699,23800 14656,23757 Z M 14614,23757 L 14656,23800 14614,23842 14571,23800 Z M 14529,23800 L 14571,23842 14529,23885 14487,23842 Z M 14359,23885 L 14402,23927 14359,23970 14317,23927 Z M 14275,23927 L 14317,23970 14275,24012 14232,23970 Z M 14190,23970 L 14232,24012 14190,24054 14147,24012 Z M 13893,24097 L 13935,24139 13893,24182 13850,24139 Z M 7955,24182 L 7998,24224 7955,24266 7913,24224 Z M 13681,24182 L 13723,24224 13681,24266 13638,24224 Z M 13554,24224 L 13596,24266 13554,24309 13511,24266 Z M 13426,24266 L 13469,24309 13426,24351 13384,24309 Z M 13299,24309 L 13342,24351 13299,24394 13257,24351 Z M 13172,24351 L 13214,24394 13172,24436 13129,24394 Z M 8592,24394 L 8634,24436 8592,24479 8549,24436 Z M 8761,24436 L 8804,24479 8761,24521 8719,24479 Z M 12875,24436 L 12917,24479 12875,24521 12833,24479 Z M 8931,24479 L 8973,24521 8931,24563 8888,24521 Z M 12705,24479 L 12748,24521 12705,24563 12663,24521 Z M 12281,24563 L 12324,24563 12366,24606 12324,24648 12281,24648 12239,24606 Z M 12027,24606 L 12069,24606 12112,24648 12069,24691 12027,24691 11984,24648 Z M 9906,24648 L 9949,24691 9906,24733 9864,24691 Z M 10500,24691 L 10670,24691 10712,24733 10670,24775 10500,24775 10458,24733 Z M 10924,24691 L 11136,24691 11179,24733 11136,24775 10924,24775 10882,24733 Z"/>
       <path fill="rgb(32,79,163)" stroke="rgb(32,79,163)" d="M 14783,3949 L 15123,3949 15759,4161 15971,4373 16141,4712 16565,5858 17328,7894 17371,8106 17371,8233 17413,8275 17455,8233 17455,8063 17413,7851 16862,6367 16819,6324 16862,6282 17583,5985 18982,5391 19025,5434 19025,5476 18219,7766 18982,8530 19025,8530 19873,9378 19873,9421 19830,9463 19025,9760 17201,10736 16946,10820 16522,10820 16438,10778 16268,10608 15547,8572 15504,8488 15377,8488 10924,10820 7319,12432 3460,13620 3333,13620 3333,13662 3502,14087 3714,14638 3799,14638 3842,14596 4266,14596 4605,14765 4859,14935 5071,15147 5156,15317 5156,15401 5241,15529 5326,15613 5580,15783 8083,16886 8210,17013 8379,17310 8379,17353 8422,17437 8549,17607 8804,18031 8804,18074 9737,19558 9609,19685 9482,19685 9355,19813 9355,19898 9313,20110 9270,20237 9228,20279 9100,20279 8846,20152 8804,20110 8719,20110 8719,20449 8761,20491 8888,20491 8931,20449 9016,20407 9143,20407 9185,20449 9185,20491 9143,20534 9100,20619 9100,20831 9143,20873 9228,20873 9228,20831 9143,20746 9143,20661 9270,20534 9313,20534 9355,20491 9355,20407 9397,20364 9525,20364 9652,20491 9652,20534 9737,20619 9821,20619 9864,20576 9906,20407 9906,20237 9737,20237 9694,20279 9609,20322 9440,20322 9355,20237 9355,20110 9440,19898 9652,19685 10203,19685 10246,19728 10288,19728 10585,19685 10712,19643 13511,18116 13554,18116 13681,18243 13808,18498 14614,22358 14614,22527 14741,22655 14783,22655 14996,22867 14953,22909 14783,22909 14614,22739 14487,22697 14232,22697 14190,22739 13172,22867 12875,22867 12833,22824 12281,20407 12281,20322 12239,20279 12196,20322 12875,23121 12875,23206 13002,23333 13893,23630 14275,23630 14359,23545 14359,23503 14232,23376 14105,23291 14020,23248 13978,23248 13893,23164 13893,23121 13935,23079 14020,23079 14190,23164 14317,23248 14487,23418 14487,23588 14359,23715 14275,23757 13893,23757 13214,23545 13172,23503 13129,23503 13002,23545 12833,23630 12578,23800 12451,23927 12366,23970 12324,23970 12239,23927 11433,23121 11348,23079 11179,23079 11094,23121 10924,23291 10924,23588 10967,23673 11688,24394 11730,24394 11815,24479 11815,24563 11645,24733 10712,24775 9567,24648 7574,24097 7489,24012 7955,19643 7998,19601 7998,19261 4987,17522 4902,17437 4859,17437 4859,17480 5071,18074 5071,18201 5029,18243 4817,18328 4732,18243 4138,16674 4138,16631 4096,16589 3969,16547 3799,16462 3460,16122 3375,15995 3375,15953 3333,15868 3248,15783 3078,15359 3078,15274 3121,15189 3163,15147 3205,15147 3163,15104 3078,14935 3078,14892 3121,14808 3163,14765 3248,14723 3290,14723 3290,14638 1000,8700 1000,8657 1127,8530 1254,8488 1339,8572 1467,8954 1551,9124 1594,9166 1679,9166 6344,7766 8507,6918 10542,5815 10627,5730 10839,5603 10882,5603 11051,5518 11221,5391 12069,4925 13638,4246 Z M 13426,5221 L 13469,5221 13469,5306 13426,5476 13384,5561 13299,5688 13172,5815 13002,5900 12790,5900 12705,5815 12663,5688 12663,5603 12748,5434 12833,5349 12875,5391 12875,5476 12917,5518 13087,5518 13257,5391 Z M 15504,5306 L 15674,5306 15801,5434 15801,5688 15759,5773 15674,5900 15547,6027 15504,6027 15377,6155 15377,6282 15420,6536 15462,6664 15547,6748 15589,6748 15674,6664 15674,6621 15717,6494 15759,6494 15759,6791 15674,6918 15632,6961 15462,7045 15335,7045 15250,7003 15208,6961 15123,6791 15080,6664 15080,5943 15208,5561 15420,5349 Z M 15462,5518 L 15547,5518 15589,5561 15589,5773 15462,5900 15420,5900 15377,5858 15377,5646 15420,5561 Z M 14614,5561 L 14699,5561 14826,5688 14868,5773 14868,5858 14741,5985 14656,5985 14487,5815 14402,5900 14402,5943 14444,5985 14783,6706 14783,6961 14656,7257 14529,7385 14359,7470 14063,7470 13978,7554 13978,7597 13893,7724 13850,7766 13766,7809 13681,7809 13596,7766 13554,7724 13511,7639 13511,7597 13469,7554 13426,7597 13426,7639 13299,7894 13172,8021 13087,8063 13045,8063 12960,8021 12917,7979 12790,6664 12748,6621 12621,6621 12621,6536 12748,6409 12960,6239 13045,6239 13172,7554 13214,7597 13257,7597 13299,7554 13384,7385 13426,7215 13426,6027 13638,5985 13723,5985 13766,7130 13808,7342 13850,7385 13893,7385 14020,7257 14190,7045 14190,7003 14275,6918 14317,6918 14317,7088 14402,7173 14487,7173 14529,7130 14529,6918 14487,6876 14444,6791 14402,6664 14147,6112 14147,6027 14190,5900 14487,5603 Z M 12239,6664 L 12366,6664 12493,7936 12536,7979 12621,7979 12663,8021 12663,8233 12621,8318 12451,8488 12324,8488 12239,8445 12112,8318 12069,8360 12069,8403 11984,8572 11815,8742 11730,8784 11645,8784 11560,8742 11475,8657 11475,8615 11433,8488 11391,8445 11391,7851 11518,7427 11688,7088 12027,6748 12112,6706 Z M 12027,7045 L 12069,7045 12112,7088 12112,7809 12069,7851 11942,8233 11942,8275 11857,8360 11815,8360 11730,8275 11730,7851 11942,7130 Z M 9609,7130 L 9906,7130 10033,7215 10118,7300 10118,7597 10033,7851 9991,7894 9991,8106 10033,8191 10118,8318 10161,8360 10203,8360 10500,8657 10542,8784 10542,9124 10415,9421 10161,9675 10118,9675 9991,9718 9949,9760 9737,9760 9652,9718 9609,9675 9567,9590 9567,9548 9609,9421 9694,9293 9737,9251 9864,9166 9949,9124 9991,9124 9991,9166 9949,9209 9949,9336 10076,9463 10161,9421 10246,9336 10246,9081 10203,8997 10118,8869 9906,8657 9864,8657 9737,8530 9694,8445 9694,8063 9737,7894 9779,7851 9779,7639 9737,7554 9609,7427 9355,7427 9185,7470 9100,7512 8973,7597 8804,7766 8761,7851 8761,8021 8846,8106 9016,8106 9143,7979 9185,7894 9228,7766 9313,7639 9355,7597 9482,7597 9482,8784 9525,8827 9525,8869 9397,9548 9270,9930 9016,10184 8888,10227 8719,10227 8634,10142 8592,10015 8634,9845 8719,9675 8804,9590 8888,9548 8888,9760 8973,9845 9058,9845 9185,9718 9228,9548 9228,8233 9185,8191 9100,8275 9100,8318 8973,8445 8846,8530 8592,8530 8549,8488 8464,8360 8464,8106 8507,7979 8592,7809 8676,7682 8804,7554 9100,7342 Z M 11391,7173 L 11391,7300 11263,7597 11136,7639 11051,7724 11009,7809 11051,8912 11094,8954 11094,9081 11051,9124 10924,9209 10797,9251 10712,7894 10627,7809 10542,7851 10500,7894 10500,7936 10458,7936 10415,7894 10415,7851 10458,7766 10542,7639 10670,7512 10797,7427 Z M 16650,8106 L 16946,8106 16989,8148 17158,8191 17201,8191 17243,8233 17286,8318 17286,8572 17243,8700 17158,8827 16522,9463 16268,9845 16225,9930 16183,9972 16141,9930 15674,8572 15632,8488 15632,8403 Z M 7701,8191 L 7786,8191 7786,8318 7743,8488 7701,8572 7616,8657 7531,8657 7489,8530 7489,8360 7616,8233 Z M 5708,8572 L 5750,8572 5877,8615 5877,8657 5623,8912 5580,8912 5580,8869 5538,8827 5453,8827 5368,8912 5326,9972 5368,10015 5580,9802 5623,9802 5708,9760 5750,9718 5920,9718 5962,9760 6004,9845 6004,10142 5962,10184 5962,11033 6047,11117 6089,11117 6132,11075 6217,11075 6174,11117 6089,11287 6089,11329 5920,11499 5792,11499 5708,11414 5665,11160 5665,10269 5623,10184 5580,10142 5496,10142 5411,10227 5411,10269 5368,10396 5326,10439 5326,11202 5368,11245 5368,11584 5326,11626 5199,11626 5071,11669 5029,11711 4987,9463 5029,9293 5114,9081 5199,8954 5453,8700 5580,8615 Z M 7743,8954 L 7786,8954 7828,8997 7955,10524 7828,11075 7786,11160 7743,11287 7743,11329 7658,11457 7277,11838 7192,11881 6980,11881 6938,11838 6938,11754 6980,11669 7192,11457 7192,11414 7234,11414 7234,11457 7319,11542 7404,11542 7489,11457 7658,10778 7574,9421 7531,9336 7489,9293 7404,9293 7362,9336 7319,9293 7489,9124 7658,8997 Z M 4520,9124 L 4563,9124 4605,9166 4690,11796 4308,11923 4266,11881 4266,10948 4223,10905 4181,10905 4138,10948 3969,10990 3884,10990 3799,11075 3799,11245 3629,11796 3545,11966 3460,12093 3375,12178 3333,12178 3248,12220 3205,12263 3121,12263 2993,12220 2908,12178 2866,12135 2824,12051 2824,11754 2866,11626 2993,11372 3078,11287 3163,11287 3163,11372 3121,11414 3121,11838 3205,11923 3333,11923 3417,11838 3799,9802 3926,9548 4181,9293 Z M 8719,9124 L 8804,9124 8804,9251 8761,9293 8634,9378 8167,9590 8125,9590 8125,9421 8252,9336 8337,9336 8676,9166 Z M 6895,9336 L 7107,9336 7234,9463 7277,9548 7319,9675 7319,10354 7107,10905 6895,11117 6810,11160 6556,11160 6429,11033 6344,10736 6344,10184 6513,9675 6598,9548 6725,9421 6768,9421 6853,9378 Z M 4266,9506 L 4308,9548 4308,10396 4266,10693 4223,10736 4138,10778 3926,10820 3884,10778 3884,10524 4138,9633 Z M 6853,9590 L 6895,9590 6938,9633 6980,9718 6980,10524 6938,10566 6895,10736 6895,10778 6853,10820 6810,10820 6725,10736 6683,10566 6683,9887 6725,9718 Z M 10712,12432 L 10882,12517 12493,14426 13257,15571 13257,15613 13299,15741 13342,15783 13342,16038 13299,16207 13257,16250 13342,16250 13766,16038 13808,15995 13893,15995 14020,16122 14063,16207 14063,16250 13978,16335 13469,16589 13342,16631 13257,16674 13172,16759 13257,16844 13342,16844 13638,16759 14063,16547 14190,16547 14232,16589 14317,16716 14402,16886 14402,16928 14359,16971 14275,17013 13978,17056 13681,17140 13511,17225 13384,17268 13087,17268 13002,17225 12917,17140 12748,16674 12536,16462 12493,16377 12324,15783 12239,15571 11984,15571 11900,15656 11730,16801 11645,17353 11645,17437 11688,17480 11772,17480 12705,17777 12748,17819 12663,17904 12621,17904 12112,18158 12027,18243 9821,19346 9694,19346 9609,19261 9609,19219 8337,17056 8337,17013 8379,16971 8422,16971 8888,17098 8973,17183 9525,18286 9609,18413 9694,18667 9779,19092 9821,19134 9864,19134 10203,18922 10839,18286 11391,17565 11433,17480 11475,17353 11603,16504 11688,15953 11688,15741 11645,15741 11518,15613 11518,15571 11560,15529 11688,15529 11772,15486 11815,15444 11815,15401 11900,15147 11942,15104 11942,15020 11900,14935 11857,14892 11688,14892 11603,14977 11560,14977 11433,14892 11391,14850 11391,14808 10839,13790 10627,13493 10585,13450 10542,13450 10500,13493 10330,13493 10288,13450 9779,13450 9694,13493 9609,13578 9567,13832 9567,13917 9694,13917 9737,13874 9779,13620 9779,13535 9821,13493 10373,13493 10415,13535 10585,13578 10627,13578 10754,13705 10839,13832 10839,13874 10967,14129 11051,14214 11094,14299 11094,14383 11051,14426 11009,14426 10967,14383 10712,14256 10330,14129 10118,14087 9694,14087 9652,14171 9652,14214 9737,14299 9779,14299 9991,14511 10033,14596 10033,14892 9821,15486 9779,15529 9737,15529 9652,15444 9652,15232 9694,15147 9737,15104 9737,14935 9525,14850 9482,14850 9440,14892 9270,15317 9270,15571 9313,15613 9567,16335 9567,16377 9779,16589 9906,16631 10330,16631 10373,16589 10542,16547 10712,16547 10754,16589 10754,16631 10670,16716 10161,16801 10118,16844 9906,18540 9864,18625 9821,18667 9779,18625 9100,17268 9100,17225 9143,17183 9228,17183 9270,17225 9821,17353 9864,17353 9906,17268 9906,16801 9694,16716 9652,16716 9440,16504 9143,15783 9100,15613 9100,15317 9355,14723 9440,14426 9482,14129 9482,13959 9440,13917 9397,13917 9228,13790 9016,13578 8888,13408 8846,13323 8804,13196 8804,12984 8846,12941 8888,12856 8888,12814 8973,12729 10415,12432 Z M 9609,14468 L 9694,14511 9737,14553 9737,14596 9567,14596 Z M 10712,14511 L 10839,14511 11009,14553 11094,14638 11094,14680 11051,14723 10670,14723 10585,14638 Z M 9779,14680 L 9821,14680 9864,14723 9821,14765 Z M 3799,14808 L 4393,14808 4478,14850 4859,15189 4944,15359 4987,15486 5029,15571 5368,15910 5156,16504 5114,16547 5071,16547 4817,16419 4775,16335 4775,16165 4732,16080 4435,15783 4393,15698 4266,15317 4096,15147 4011,15104 3502,15104 3333,15020 3248,14935 3290,14892 3375,14850 Z M 10712,14808 L 10754,14808 10924,14850 11136,15062 11136,15104 11051,15189 10924,15232 10839,15232 10670,15189 10542,15062 10500,14977 10627,14850 Z M 10924,14977 L 11009,15062 11009,15104 10924,15104 Z M 3290,15274 L 3460,15274 3502,15317 3587,15359 3757,15401 3842,15401 3884,15359 4011,15359 4096,15401 4138,15444 4181,15529 4393,16207 4393,16250 4266,16377 4054,16377 3969,16335 3842,16250 3672,16080 3545,15910 3290,15444 Z M 9906,15401 L 9949,15401 10076,15529 10033,15571 9949,15571 9864,15486 9864,15444 Z M 12578,15486 L 12663,15571 12748,15698 12748,15741 12875,16122 12917,16165 12917,16292 12875,16292 12790,16207 12621,15571 12578,15529 Z M 9525,15613 L 9652,15613 9694,15656 9779,15698 10033,15783 10288,15826 10542,15826 10627,15910 10627,15995 10585,16038 10118,16207 9864,16207 9609,15953 9482,15741 9482,15656 Z M 9737,15826 L 9906,15868 10118,15910 10246,15953 10203,15995 10076,16038 9949,16038 9864,15995 9737,15868 Z M 4563,16547 L 4605,16547 4647,16589 4987,16759 5029,16759 5029,16801 4902,17183 4859,17268 4817,17310 4775,17268 4563,16631 Z M 12875,17862 L 12960,17862 13172,17946 13342,17989 13384,18031 13384,18074 13342,18116 13214,18201 13172,18201 13087,18243 13002,18328 10458,19601 9991,19601 9821,19516 9779,19473 9864,19389 10118,19304 Z M 15292,21382 L 15462,21382 15547,21425 15632,21509 15632,21552 15674,21637 15717,21679 15717,22994 15759,22994 15801,23036 15547,23248 15420,23333 15377,23333 15250,23418 15165,23503 14911,23673 13978,24139 13002,24479 11984,24691 11857,24691 11815,24648 11900,24563 11900,24479 11263,23842 11221,23842 11009,23630 10967,23545 10967,23376 11009,23291 11136,23164 11348,23164 11433,23206 12324,24097 12366,24097 12917,23673 13087,23588 13214,23588 13935,23842 14275,23842 14402,23800 14571,23630 14571,23418 14359,23206 14317,23206 14275,23164 14317,23121 14402,23079 14826,22994 15038,22994 15038,21637 15080,21552 15208,21425 Z"/>
      </g>
     </g>
    </g>
   </g>
  </g>
 </g>
</svg>