<?xml version="1.0" encoding="UTF-8" standalone="no"?>
<!-- Created with Inkscape (http://www.inkscape.org/) by Marsupilami -->
<svg xmlns:svg="http://www.w3.org/2000/svg" xmlns="http://www.w3.org/2000/svg" version="1.0" width="669" height="768" viewBox="0 0 51.392033 58.966881" id="svg4137">
  <defs id="defs4139">
    <clipPath id="clipPath21515">
      <path d="M 0.015,566.01 L 793.005,566.01 L 793.005,0 L 0.015,0 L 0.015,566.01 z " id="path21517"/>
    </clipPath>
    <clipPath id="clipPath21509">
      <path d="M -2,568 L 794,568 L 794,-1 L -2,-1 L -2,568 z " id="path21511"/>
    </clipPath>
    <clipPath id="clipPath21503">
      <path d="M 7.5,42.59 L 52.86,42.59 L 52.86,-14.1 L 7.5,-14.1 L 7.5,42.59 z " id="path21505"/>
    </clipPath>
  </defs>
  <g transform="translate(-299.2645,-509.11536)" id="layer1">
    <path d="M 322.60278,534.63724 L 322.59528,534.63724 L 322.38278,536.18349 L 322.71403,536.58099 L 322.55528,537.34974 L 322.20903,538.45599 L 321.63403,539.77849 L 321.59528,540.88849 L 322.60903,543.46474 L 323.94028,543.98349 L 323.70278,545.79474 L 321.31153,545.17099 L 320.84528,545.03724 L 319.21903,544.61099 L 318.60653,544.41974 L 319.28778,549.11224 L 319.18153,551.88474 L 318.64778,558.39474 L 328.18278,565.36349 L 328.68278,565.31099 L 328.98028,565.26724 L 335.05528,563.48224 L 336.40528,562.76974 L 337.75778,561.58099 L 337.52278,560.69224 L 337.16528,560.62349 L 336.20903,559.85224 L 333.34403,547.75974 L 333.00403,547.50974 L 331.67403,547.02724 L 331.25778,546.90474 L 330.84403,546.91724 L 328.05153,546.03849 L 328.43778,542.61974 L 328.73028,540.78349 L 330.24278,539.86099 L 328.99653,538.34599 L 327.34278,536.69349 L 325.20653,534.46349 L 322.60278,534.63724" style="fill:#ffffff;fill-opacity:1;fill-rule:nonzero;stroke:none" id="path21521"/>
    <path d="M 350.44153,543.50724 L 350.44153,543.50724 C 350.44153,529.93474 339.43903,518.93349 325.86653,518.93349 C 312.29403,518.93349 301.29278,529.93474 301.29278,543.50724 C 301.29278,557.07974 312.29403,568.08224 325.86653,568.08224 C 339.43903,568.08224 350.44153,557.07974 350.44153,543.50724 z M 303.78278,543.50724 L 303.78278,543.50724 C 303.78278,531.31099 313.67028,521.42349 325.86653,521.42349 C 338.06278,521.42349 347.95028,531.31099 347.95028,543.50724 C 347.95028,555.70349 338.06278,565.59099 325.86653,565.59099 C 313.67028,565.59099 303.78278,555.70349 303.78278,543.50724" style="fill:#ee2223;fill-opacity:1;fill-rule:nonzero;stroke:none" id="path21519"/>
    <path d="M 37.59375,0 C 35.821381,0.086220695 34.0625,0.84375 34.0625,0.84375 C 29.47625,2.445 25.8625,5.245 22.40625,6.96875 C 16.1425,10.445 1.5,14.1875 1.5,14.1875 L 0.78125,12.46875 C 0.74499998,12.27875 0.5,12.375 0.5,12.375 L 0.15625,12.53125 C -0.070000003,12.705 0,12.8125 0,12.8125 L 6.21875,29.1875 C 5.1550001,29.570001 5.96875,30.34375 5.96875,30.34375 C 5.5049999,30.62 5.71875,31.125 5.71875,31.125 C 6.80125,34.12125 8.4375,34.3125 8.4375,34.3125 L 10.25,39 L 11.0625,38.65625 L 10.34375,36.46875 L 9.5,34.03125 L 10.9375,34.78125 L 10.34375,36.46875 C 12.53,38.042501 19.0625,41.625 19.0625,41.625 L 17.625,54.5625 C 23.358751,57.209998 28.9375,56.34375 28.9375,56.34375 L 29.40625,55.875 L 27.21875,53.78125 C 26.43625,52.845001 27.15625,52.25 27.15625,52.25 C 27.9425,51.45 28.5625,52.28125 28.5625,52.28125 L 30.78125,54.4375 C 31.94125,53.516248 32.46875,53.28125 32.46875,53.28125 C 32.8025,53.0275 33.21875,53.15625 33.21875,53.15625 L 35.125,53.75 C 36.568752,54.08 36.94,53.015 36.3125,52.5625 C 35.980001,52.322498 35.40625,52.03125 35.40625,52.03125 C 34.836251,51.828749 35.00875,52.215 35.21875,52.3125 C 35.5025,52.454998 35.9375,52.78125 35.9375,52.78125 C 36.487499,52.990002 36.21875,53.3125 36.21875,53.3125 C 35.898749,53.68625 35.125,53.46875 35.125,53.46875 L 32.6875,52.65625 C 32.171249,52.4925 32.15625,52 32.15625,52 L 30.4375,44.5625 C 30.361249,44.213751 30.61625,44.3 30.65625,44.5 C 30.92375,45.698749 32.25,51.40625 32.25,51.40625 L 35.90625,50.9375 C 37.106249,50.74375 37.40625,51.45875 37.5,51.46875 C 37.550001,51.508751 38.03125,51.4375 38.03125,51.4375 C 37.4275,50.8 37,50.5625 37,50.5625 C 36.599998,48.41 34.84375,40 34.84375,40 C 34.590001,38.692501 34.03125,38.5 34.03125,38.5 C 32.467499,39.423748 27.40625,42.09375 27.40625,42.09375 C 26.14,42.81 25.40625,42.91625 24.34375,42.75 C 23.219999,42.53 22.96875,43.34375 22.96875,43.34375 C 22.1125,45.090001 23.71875,44.21875 23.71875,44.21875 C 24.1675,43.997501 24.24,44.2425 24.1875,44.5625 C 24.187501,44.578751 24.09375,45 24.09375,45 C 23.857501,45.749998 23.46875,45 23.46875,45 C 23.1525,44.5375 23,44.5625 23,44.5625 C 22.7325,44.555001 22.71875,44.78125 22.71875,44.78125 C 22.635,45.073752 22.46875,45.0625 22.46875,45.0625 C 21.97,45.208749 22.12375,45.8225 22.34375,45.8125 C 22.595001,45.876249 22.33625,46.01 22.25,46 C 21.62625,45.997498 22.02875,45.08375 22.125,45 C 22.325001,44.58375 21.875,44.71875 21.875,44.71875 L 21.3125,44.9375 C 20.90875,45.13375 20.90625,44.6875 20.90625,44.6875 L 20.90625,44.15625 C 20.821249,43.608751 21.25,43.9375 21.25,43.9375 L 21.875,44.25 C 22.423751,44.552501 22.3975,44.13875 22.46875,43.875 C 22.6075,42.938751 22.8225,42.72375 23.3125,42.6875 C 23.89875,42.513752 23.5,42.0625 23.5,42.0625 C 21.803749,39.448751 19.3125,35.1875 19.3125,35.1875 C 15.765,33.860001 12.6875,32.25 12.6875,32.25 C 11.23125,31.480001 11.23875,31.01375 11.21875,30.90625 C 10.985,30.120001 10.15625,29.6875 10.15625,29.6875 C 9.1762497,28.51875 7.34375,29.03125 7.34375,29.03125 L 6.25,26.21875 C 13.90625,24.83625 24.3225,19.97875 28,17.96875 C 31.93125,15.81375 35.2575,13.83375 38.125,12.59375 L 39.40625,12.1875 L 41.3125,17.53125 C 41.862499,19.713749 44.75,17.9375 44.75,17.9375 C 48.362501,15.605 51.40625,14.78125 51.40625,14.78125 L 46.78125,10.375 L 48.96875,3.875 L 42.75,6.46875 L 40.90625,1.625 C 40.341875,0.25890623 38.972259,-0.067060541 37.59375,0 z M 25.6875,22.96875 C 25.2425,22.96875 24.90625,23.09375 24.90625,23.09375 L 22.09375,23.6875 C 20.925,23.93625 21.28125,25.21875 21.28125,25.21875 C 21.75,26.443749 22.965,27.07375 23.0625,27.125 C 23.05125,27.1675 23.06,27.21375 23.0625,27.25 C 23.066249,27.28125 23.06875,27.31 23.0625,27.34375 C 23.004999,27.468751 22.98,27.69875 22.96875,27.875 C 22.9575,28.044999 22.9375,28.175 22.9375,28.1875 C 22.87,28.53375 22.625,29.34375 22.625,29.34375 C 22.55375,29.521251 22.465,29.6675 22.40625,29.8125 C 22.14125,30.4525 21.9875,30.8425 22,31.28125 C 22.0125,31.720001 22.20875,32.2275 22.59375,33.15625 C 22.6075,33.2275 22.69625,33.425 22.75,33.5625 C 22.773751,33.618751 22.775,33.66875 22.78125,33.6875 C 23.1025,34.72125 24.1325,34.865 24.21875,34.875 C 24.26125,35.03125 24.225,35.43625 24.1875,35.78125 C 24.15375,36.093751 24.13375,36.35375 24.125,36.40625 L 21.96875,35.90625 C 22.41,37.102501 24,40.03125 24,40.03125 L 24.03125,40.03125 L 24.71875,34.90625 C 25.889999,34.843748 26.35125,34.54625 26.375,34.53125 C 26.454999,34.501248 26.44625,34.43375 26.4375,34.375 C 26.42875,34.321248 26.41,34.2875 26.40625,34.28125 C 26.38125,34.195 26.2975,34.15625 26.21875,34.15625 C 26.199999,34.156251 26.17375,34.185 26.15625,34.1875 C 26.05875,34.198751 25.96875,34.21875 25.96875,34.21875 C 25.455,34.408751 25.0375,34.5 24.6875,34.5 C 24.16125,34.500001 23.80625,34.305 23.5625,34.09375 C 23.156251,33.74125 23.0625,33.28125 23.0625,33.28125 L 22.65625,32.125 C 22.136251,31.08 22.65625,30.25 22.65625,30.25 L 23.03125,29.46875 C 23.2425,29.733749 23.625,29.78125 23.625,29.78125 C 23.64375,29.778749 23.6725,29.78125 23.6875,29.78125 C 23.77,29.781249 23.80625,29.805 23.8125,29.84375 C 23.821251,29.8925 23.78125,29.9375 23.78125,29.9375 C 23.79,30.01875 23.74375,30.18 23.6875,30.3125 C 23.6325,30.445001 23.5625,30.5625 23.5625,30.5625 C 23.246249,31.108749 23.8125,31.4375 23.8125,31.4375 C 23.83875,31.44375 23.85625,31.4375 23.875,31.4375 C 23.901249,31.4375 23.9225,31.4175 23.9375,31.40625 C 23.965,31.38625 23.97125,31.34875 23.96875,31.3125 C 23.9625,31.238749 23.90125,31.16875 23.84375,31.125 C 23.58125,30.9 23.8425,30.625 23.84375,30.625 C 24.546249,29.8725 24.59375,29.23875 24.40625,28.78125 C 24.22125,28.328749 23.80375,28.04375 23.53125,28.03125 C 23.40625,27.796249 23.57375,27.47875 23.59375,27.4375 C 23.67625,27.433749 23.76375,27.4375 23.84375,27.4375 C 25.79875,27.4375 27.25,28.4375 27.25,28.4375 L 27.28125,28.4375 C 27.490001,28.431249 27.40625,28.21875 27.40625,28.21875 L 26.5625,26.6875 C 26.223751,25.95875 25.3525,25.9375 25.1875,25.9375 C 25.16875,25.937499 25.15625,25.9375 25.15625,25.9375 L 24.21875,25.875 C 24.210001,25.874999 24.195,25.875 24.1875,25.875 C 23.98625,25.874999 23.89,25.925 23.84375,26 C 23.79875,26.0725 23.8125,26.1475 23.8125,26.15625 L 23.71875,27 C 23.572499,27.047499 23.3325,27.0625 23.25,27.0625 C 23.2425,27.062499 23.22375,27.0625 23.21875,27.0625 L 23.375,26.09375 C 23.426249,25.91875 23.615,25.82375 23.78125,25.78125 C 23.933749,25.74125 24.0725,25.75 24.09375,25.75 C 24.175,25.745001 24.25875,25.71875 24.34375,25.71875 C 25.086249,25.718749 25.875,25.90625 25.875,25.90625 L 25.90625,25.90625 L 25.75,25.59375 C 26.038751,25.7275 26.4375,26.22875 26.8125,26.84375 C 27.193749,27.47125 27.56,28.20125 27.84375,28.75 L 27.84375,28.78125 C 27.96,29.004999 28.04875,29.17 28.125,29.3125 C 28.2,29.45125 28.2825,29.56875 28.3125,29.59375 C 28.321251,29.6175 28.3325,29.62375 28.375,29.65625 C 28.42,29.69 28.4775,29.74625 28.53125,29.78125 C 28.641251,29.851251 28.75,29.90625 28.75,29.90625 C 28.96125,29.702499 29.16125,29.625 29.3125,29.625 C 29.40375,29.625 29.47,29.6375 29.53125,29.6875 C 29.698749,29.82375 29.77,30.11375 29.65625,30.40625 C 29.64,30.535 29.4375,31.03125 29.4375,31.03125 C 29.32875,31.3625 29.10375,31.40625 28.9375,31.40625 C 28.82875,31.40625 28.75,31.40625 28.75,31.40625 C 28.74375,31.406251 28.725,31.40625 28.71875,31.40625 C 28.65375,31.40625 28.61875,31.40875 28.59375,31.4375 C 28.566249,31.469999 28.56,31.52125 28.5625,31.5625 C 28.57,31.64625 28.625,31.71875 28.625,31.71875 C 28.68375,31.80875 28.805,31.8925 28.90625,31.9375 C 28.992499,31.975 29.07,31.99375 29.09375,32 L 28.46875,36.0625 C 28.436249,36.85375 27.90625,37.34375 27.90625,37.34375 C 26.1875,39.681251 25.20875,40.6425 23.90625,41.28125 C 23.90125,41.2725 23.9125,41.265 23.90625,41.25 C 23.895001,41.218751 23.8575,41.175 23.84375,41.125 C 23.814999,41.025 23.78125,40.88125 23.75,40.75 C 23.6875,40.48125 23.65625,40.21875 23.65625,40.21875 C 23.642501,39.762499 23.21875,39.15625 23.21875,39.15625 C 22.2,37.289999 21.53125,35.78125 21.53125,35.78125 L 19.875,35.34375 C 20.3225,36.323748 23.3175,41.48375 23.625,41.84375 L 23.65625,41.84375 C 23.993749,41.757499 26.07,40.70875 28.0625,39.6875 C 30.0525,38.666252 31.96875,37.65625 31.96875,37.65625 L 28.90625,36.6875 C 29.00125,34.376251 29.53125,31.96875 29.53125,31.96875 C 29.542499,31.915 29.565,31.8 29.59375,31.71875 C 29.6225,31.63625 29.64625,31.57125 29.6875,31.5625 C 30.196251,31.55125 30.455,31.48625 30.5,31.46875 L 30.78125,31.96875 L 31.21875,33.5 C 31.42,34.4525 32.12625,34.5275 32.21875,34.53125 C 32.077498,35.526251 32.3775,35.93375 32.8125,36.0625 C 32.9175,36.0925 33.03875,36.125 33.15625,36.125 C 33.523751,36.125001 33.92375,35.98875 34.25,35.84375 C 35.168749,35.391249 36.34375,35.34375 36.34375,35.34375 C 36.345001,35.34375 36.37375,35.34375 36.375,35.34375 C 36.3875,35.34375 36.3975,35.32 36.40625,35.3125 C 36.415,35.30375 36.405,35.29625 36.40625,35.28125 C 36.407502,35.252502 36.39375,35.20625 36.375,35.15625 C 36.336249,35.056248 36.2675,34.91625 36.1875,34.78125 C 36.028752,34.51125 35.84375,34.25 35.84375,34.25 C 35.829999,34.205002 35.76875,34.1875 35.71875,34.1875 C 35.7,34.187501 35.70625,34.185 35.6875,34.1875 C 35.617499,34.1975 35.53125,34.21875 35.53125,34.21875 C 35.218748,34.316249 35.015,34.42375 34.8125,34.53125 C 34.513748,34.687499 34.21125,34.85875 33.59375,34.96875 C 33.50375,34.985 33.43875,35 33.375,35 C 33.296249,35 33.2325,34.9875 33.1875,34.96875 C 33.1075,34.936249 33.0725,34.87375 33.0625,34.8125 C 33.046251,34.697502 33.115,34.55125 33.125,34.53125 C 35.040001,33.78 35.4125,33.4325 35.4375,33.40625 C 35.5375,33.361251 35.46875,33.25 35.46875,33.25 L 35.0625,32.71875 C 35.025,32.675001 35.00625,32.65625 34.96875,32.65625 C 34.893749,32.65625 34.8125,32.6875 34.8125,32.6875 C 34.207498,33.0875 33.40625,33.40625 33.40625,33.40625 C 33.37125,33.415002 33.33125,33.40625 33.3125,33.40625 C 33.297501,33.406248 33.2875,33.41 33.28125,33.40625 C 33.267502,33.4 33.275,33.3925 33.28125,33.375 C 33.29375,33.337499 33.34375,33.28125 33.34375,33.28125 C 33.95625,31.2 32.04875,30.45875 31.90625,30.40625 C 32.30125,29.44625 31.59375,28.875 31.59375,28.875 C 29.6475,26.408751 27.28125,23.71875 27.28125,23.71875 C 26.76125,23.12375 26.165,22.96875 25.6875,22.96875 z M 26.40625,28.71875 C 26.3525,28.732344 26.288125,28.749375 26.25,28.78125 C 26.25,28.78125 26.1425,28.875 26.09375,28.96875 C 26.04625,29.06125 26.0675,29.17 26.34375,29.21875 C 26.343749,29.218749 26.51625,29.1875 26.71875,29.1875 C 26.88,29.1875 27.06375,29.21125 27.21875,29.25 C 27.21875,29.25 27.3225,29.22125 27.375,29.15625 C 27.427499,29.093751 27.42,29 27.21875,28.84375 C 27.21875,28.843751 26.86,28.71875 26.5625,28.71875 C 26.500625,28.71875 26.46,28.705156 26.40625,28.71875 z M 26.34375,29.53125 C 26.22375,29.531249 26.04,29.6125 25.9375,29.75 C 25.825,29.89875 25.825,30.1075 26.125,30.375 C 26.125,30.375001 26.45875,30.53125 26.8125,30.53125 C 26.912501,30.53125 27.03125,30.5325 27.125,30.5 C 27.137499,30.4975 27.27875,30.46625 27.375,30.375 C 27.426251,30.32875 27.485,30.27375 27.46875,30.1875 C 27.453751,30.103751 27.38875,30.00125 27.25,29.875 C 27.24875,29.875 26.94125,29.53125 26.375,29.53125 C 26.3675,29.531249 26.35375,29.53125 26.34375,29.53125 z M 24.21875,31.125 C 24.1775,31.125001 24.1475,31.13 24.125,31.15625 C 24.06875,31.223749 24.10875,31.345 24.21875,31.4375 C 24.28625,31.4925 24.34375,31.53125 24.40625,31.53125 C 24.44625,31.531249 24.5075,31.5275 24.53125,31.5 C 24.5875,31.43375 24.51625,31.28 24.40625,31.1875 C 24.33875,31.13125 24.28,31.125 24.21875,31.125 z M 31.375,31.28125 C 31.54375,31.34375 31.73,31.605 31.875,31.875 C 32.0225,32.152499 32.125,32.40625 32.125,32.40625 C 32.27625,32.83375 32.34375,33.125 32.34375,33.125 C 32.366251,33.338751 32.40125,33.545 32.40625,33.59375 C 31.994999,33.450001 31.84375,32.875 31.84375,32.875 C 31.786249,32.369998 31.4275,31.42 31.375,31.28125 z M 23.28125,31.65625 C 23.21625,31.656249 23.1375,31.69625 23.09375,31.75 C 23.025,31.836249 23.02125,31.95 23.15625,32.125 C 23.52375,32.724999 23.8275,33.16 24.15625,33.25 C 24.22375,33.267501 24.3075,33.28125 24.375,33.28125 C 24.636251,33.281252 24.9075,33.16 25.1875,33.03125 C 25.3925,32.938751 25.59,32.83625 25.8125,32.78125 C 25.831249,32.783751 25.8575,32.78125 25.875,32.78125 C 25.988751,32.78125 26.05875,32.71625 26.09375,32.625 C 26.150001,32.472498 26.08875,32.27375 25.78125,32.25 C 25.78125,32.249999 25.73125,32.25 25.65625,32.25 C 25.37125,32.250001 24.5575,32.2025 23.375,31.6875 C 23.343751,31.666249 23.31875,31.65625 23.28125,31.65625 z M 32.34375,37.78125 C 32.343748,37.781251 26.9275,40.74 23.875,42.0625 L 23.84375,42.0625 C 23.82625,42.1375 23.92375,42.20875 24.0625,42.28125 C 24.203751,42.355001 24.395,42.43625 24.65625,42.46875 C 24.7725,42.482501 24.89625,42.46875 25.03125,42.46875 C 25.50875,42.468749 26.1075,42.38625 26.75,42.09375 C 26.749999,42.093749 28.34125,41.2625 30,40.375 C 31.65625,39.487498 33.38,38.54875 33.6875,38.28125 L 33.6875,38.25 C 33.685,38.248751 33.39375,38.085 32.34375,37.78125 z M 39,47.375 C 38.896248,47.374998 38.2525,47.4325 38.1875,48.21875 L 38.1875,51.75 C 38.118751,51.75625 37.6875,51.7825 37.25,51.84375 C 37.010001,51.87625 36.7725,51.91875 36.5625,51.96875 C 36.355002,52.017501 36.17375,52.09 36.09375,52.15625 C 36.0875,52.161249 36.08625,52.18375 36.09375,52.1875 C 36.885001,52.585 37.0575,53.12875 36.8125,53.53125 C 36.625,53.8375 36.20375,54.0625 35.65625,54.0625 C 35.48125,54.062499 35.29125,54.04875 35.09375,54 C 35.09375,54 34.57,53.82125 34.03125,53.65625 C 33.76125,53.57375 33.4925,53.495 33.28125,53.4375 C 33.175,53.407499 33.0675,53.39 33,53.375 C 32.966248,53.3675 32.95875,53.34625 32.9375,53.34375 C 32.927499,53.342499 32.915,53.34375 32.90625,53.34375 C 32.89875,53.343752 32.88,53.3425 32.875,53.34375 C 32.874999,53.343749 31.5975,54.02625 30.8125,54.78125 L 28.34375,52.375 C 28.34375,52.375001 28.225,52.24625 28.03125,52.1875 C 27.9775,52.171252 27.90625,52.15625 27.84375,52.15625 C 27.68125,52.156251 27.5,52.22125 27.3125,52.4375 C 27.312501,52.437501 26.805,53.03 27.3125,53.53125 C 27.3125,53.531249 29.0575,55.21375 29.53125,55.6875 C 29.53125,55.687501 29.58625,55.72875 29.625,55.78125 C 29.665,55.83375 29.70625,55.90875 29.6875,55.96875 L 29.34375,56.28125 C 29.340001,56.284998 29.3425,56.30875 29.34375,56.3125 C 29.343749,56.312499 35.18375,55.9075 40.1875,51.8125 C 40.186249,51.807501 40.16,51.7825 40.15625,51.78125 L 39.9375,51.78125 L 39.90625,48.375 C 39.906251,48.374998 39.925,48.13125 39.8125,47.875 C 39.706251,47.6325 39.49125,47.375 39.09375,47.375 C 39.071252,47.375001 39.05625,47.37375 39.03125,47.375 C 39.031249,47.374998 39.01,47.375 39,47.375 z " transform="translate(299.2645,509.11536)" style="fill:#1f4fa3;fill-opacity:1;fill-rule:nonzero;stroke:none" id="path21523"/>
    <g transform="matrix(1.25,0,0,-1.25,287.33028,558.33724)" id="g21499">
      <g clip-path="url(#clipPath21503)" id="g21501">
        <g clip-path="url(#clipPath21509)" id="g21507">
          <g clip-path="url(#clipPath21515)" id="g21513">
            <path d="M 28.617,16.07 L 28.617,16.07 C 28.617,16.07 28.659,15.99 28.643,15.894 C 28.643,15.894 28.681,15.803 28.766,15.91 C 28.766,15.91 28.814,16.096 28.676,16.123 C 28.676,16.123 28.601,16.16 28.617,16.07" style="fill:#ffffff;fill-opacity:1;fill-rule:nonzero;stroke:none" id="path21529"/>
            <path d="M 28.641,16.124 L 28.641,16.124 C 28.642,16.124 28.644,16.124 28.645,16.124 C 28.658,16.124 28.672,16.117 28.672,16.117 L 28.674,16.117 C 28.739,16.104 28.761,16.054 28.766,16.006 C 28.77,15.962 28.762,15.921 28.759,15.913 C 28.729,15.875 28.706,15.865 28.69,15.865 C 28.685,15.865 28.68,15.866 28.676,15.868 C 28.661,15.875 28.653,15.89 28.65,15.895 C 28.665,15.986 28.628,16.063 28.623,16.072 C 28.619,16.094 28.622,16.106 28.625,16.113 C 28.629,16.121 28.634,16.123 28.641,16.124 z M 28.678,16.13 L 28.678,16.13 C 28.674,16.131 28.659,16.138 28.644,16.138 C 28.643,16.138 28.641,16.138 28.639,16.138 C 28.629,16.136 28.619,16.131 28.613,16.12 C 28.607,16.109 28.606,16.092 28.61,16.069 L 28.611,16.067 C 28.611,16.067 28.652,15.989 28.636,15.895 L 28.637,15.892 C 28.637,15.892 28.647,15.867 28.67,15.856 C 28.676,15.853 28.683,15.851 28.69,15.851 C 28.712,15.851 28.739,15.865 28.771,15.906 L 28.772,15.909 C 28.772,15.909 28.784,15.956 28.779,16.008 C 28.774,16.059 28.75,16.116 28.678,16.13" style="fill:#ffffff;fill-opacity:1;fill-rule:nonzero;stroke:none" id="path21531"/>
            <path d="M 28.585,16.283 L 28.585,16.283 C 28.585,16.283 28.366,16.598 28.211,16.534 L 28.152,16.23 C 28.152,16.23 28.28,16.331 28.585,16.283" style="fill:#ffffff;fill-opacity:1;fill-rule:nonzero;stroke:none" id="path21533"/>
            <path d="M 28.256,16.268 L 28.256,16.268 C 28.299,16.28 28.356,16.29 28.429,16.29 C 28.474,16.29 28.526,16.286 28.584,16.277 L 28.599,16.274 L 28.59,16.287 C 28.59,16.287 28.535,16.367 28.461,16.438 C 28.4,16.495 28.326,16.549 28.255,16.549 C 28.24,16.549 28.224,16.547 28.208,16.54 L 28.206,16.539 L 28.142,16.214 L 28.157,16.224 C 28.157,16.224 28.188,16.249 28.256,16.268 z M 28.57,16.293 L 28.57,16.293 C 28.518,16.3 28.471,16.303 28.429,16.303 C 28.278,16.303 28.194,16.263 28.162,16.244 L 28.217,16.529 C 28.23,16.534 28.243,16.536 28.255,16.536 C 28.319,16.536 28.391,16.486 28.451,16.428 C 28.506,16.375 28.551,16.318 28.57,16.293" style="fill:#ffffff;fill-opacity:1;fill-rule:nonzero;stroke:none" id="path21535"/>
            <path d="M 31.027,15.478 L 31.027,15.478 C 31.027,15.478 31.15,15.264 31.011,15.121 C 31.011,15.121 31.283,15.078 31.289,15.211 C 31.289,15.211 31.299,15.329 31.027,15.478" style="fill:#ffffff;fill-opacity:1;fill-rule:nonzero;stroke:none" id="path21537"/>
            <path d="M 31.03,15.484 L 31.009,15.496 L 31.021,15.475 C 31.022,15.474 31.141,15.265 31.006,15.125 L 30.997,15.116 L 31.01,15.114 C 31.01,15.114 31.052,15.108 31.104,15.108 C 31.118,15.108 31.133,15.108 31.148,15.11 C 31.216,15.115 31.292,15.138 31.295,15.211 C 31.296,15.215 31.303,15.333 31.03,15.484 z M 31.025,15.126 L 31.025,15.126 C 31.129,15.245 31.069,15.405 31.043,15.461 C 31.166,15.391 31.225,15.329 31.254,15.285 C 31.269,15.262 31.277,15.243 31.279,15.23 C 31.282,15.218 31.281,15.212 31.281,15.212 C 31.279,15.152 31.217,15.129 31.147,15.123 C 31.132,15.122 31.117,15.121 31.104,15.121 C 31.07,15.121 31.04,15.124 31.025,15.126" style="fill:#ffffff;fill-opacity:1;fill-rule:nonzero;stroke:none" id="path21539"/>
            <path d="M 28.457,13.605 L 28.457,13.605 C 28.457,13.605 28.708,13.257 28.983,13.119 C 28.983,13.119 29.301,13.079 29.689,13.314 C 29.689,13.314 28.53,13.557 28.457,13.605" style="fill:#ffffff;fill-opacity:1;fill-rule:nonzero;stroke:none" id="path21541"/>
            <path d="M 28.682,13.546 L 28.682,13.546 C 28.562,13.576 28.478,13.599 28.461,13.611 L 28.452,13.601 C 28.452,13.601 28.703,13.252 28.981,13.113 L 28.983,13.113 C 28.983,13.113 29.003,13.11 29.042,13.11 C 29.078,13.11 29.129,13.112 29.192,13.122 C 29.32,13.141 29.497,13.19 29.693,13.308 L 29.708,13.317 L 29.691,13.321 C 29.691,13.321 29.618,13.336 29.509,13.359 C 29.4,13.383 29.251,13.414 29.102,13.448 C 28.954,13.481 28.801,13.516 28.682,13.546 z M 28.986,13.126 L 28.986,13.126 C 28.752,13.243 28.536,13.512 28.478,13.589 C 28.516,13.574 28.589,13.555 28.678,13.532 C 28.798,13.503 28.949,13.468 29.099,13.434 C 29.355,13.378 29.605,13.325 29.671,13.311 C 29.389,13.145 29.148,13.124 29.042,13.124 C 29.01,13.124 28.99,13.125 28.986,13.126" style="fill:#ffffff;fill-opacity:1;fill-rule:nonzero;stroke:none" id="path21543"/>
            <path d="M 43.642,30.401 C 43.642,30.401 42.107,30.122 41.314,29.717 L 41.308,29.714 L 42.533,26.234 L 42.539,26.254 C 42.539,26.254 42.595,26.436 42.86,26.815 C 43.125,27.195 43.599,27.77 44.436,28.555 C 44.436,28.555 44.646,28.752 44.804,29.04 C 44.962,29.328 45.07,29.709 44.865,30.076 C 44.86,30.101 44.791,30.402 43.765,30.402 C 43.726,30.402 43.684,30.402 43.642,30.401" style="fill:#ffffff;fill-opacity:1;fill-rule:nonzero;stroke:none" id="path21547"/>
            <path d="M 43.939,34.314 L 43.741,34.231 L 43.748,34.211 C 43.871,33.878 44.087,33.295 44.306,32.702 C 44.388,32.48 44.471,32.256 44.548,32.044 C 44.627,31.832 44.701,31.631 44.766,31.454 C 44.831,31.276 44.887,31.122 44.93,31.005 C 44.971,30.892 45,30.813 45.013,30.778 C 45.023,30.708 45.032,30.645 45.04,30.588 C 45.049,30.532 45.057,30.482 45.063,30.438 C 45.077,30.35 45.088,30.285 45.096,30.238 C 45.105,30.189 45.11,30.162 45.115,30.14 C 45.119,30.121 45.121,30.113 45.122,30.11 C 45.137,30.057 45.185,30.023 45.237,30.023 C 45.247,30.023 45.258,30.025 45.269,30.027 C 45.333,30.045 45.369,30.111 45.351,30.175 C 45.351,30.175 45.35,30.18 45.348,30.189 C 45.345,30.207 45.339,30.232 45.331,30.28 C 45.327,30.303 45.322,30.33 45.317,30.363 C 45.311,30.396 45.306,30.434 45.298,30.477 C 45.285,30.566 45.268,30.679 45.247,30.821 L 45.242,30.841 C 45.233,30.869 45.206,30.945 45.163,31.061 C 45.121,31.176 45.065,31.331 44.999,31.51 C 44.933,31.69 44.858,31.894 44.778,32.111 C 44.698,32.328 44.614,32.556 44.53,32.784 C 44.309,33.382 44.092,33.969 43.969,34.301 L 43.961,34.323 L 43.939,34.314" style="fill:#ffffff;fill-opacity:1;fill-rule:nonzero;stroke:none" id="path21549"/>
            <path d="M 40.844,35.627 L 40.844,35.627 C 40.838,36.046 41.049,36.049 41.053,36.049 L 41.055,36.049 C 41.155,36.024 41.204,35.939 41.228,35.861 C 41.252,35.783 41.252,35.711 41.252,35.711 C 41.236,35.52 41.16,35.375 41.081,35.281 C 41.042,35.233 41.003,35.199 40.97,35.178 C 40.953,35.167 40.938,35.16 40.926,35.157 C 40.92,35.154 40.914,35.153 40.909,35.153 C 40.905,35.153 40.901,35.154 40.898,35.156 C 40.897,35.156 40.896,35.156 40.895,35.157 C 40.864,35.162 40.847,35.196 40.838,35.238 C 40.828,35.282 40.825,35.341 40.826,35.398 C 40.828,35.509 40.842,35.618 40.844,35.627 z M 41.221,36.529 L 41.221,36.529 C 41.219,36.529 41.216,36.529 41.213,36.529 C 41.211,36.529 40.188,36.42 40.097,34.613 C 40.097,34.613 40.062,34.125 40.138,33.64 C 40.212,33.165 40.393,32.686 40.824,32.686 C 40.831,32.686 40.838,32.686 40.845,32.687 C 40.845,32.687 41.689,32.727 41.695,33.755 C 41.695,33.755 41.691,33.804 41.677,33.853 C 41.664,33.899 41.639,33.952 41.593,33.953 C 41.59,33.954 41.581,33.957 41.571,33.957 C 41.567,33.957 41.563,33.956 41.559,33.956 C 41.539,33.951 41.521,33.932 41.521,33.888 C 41.52,33.879 41.497,33.657 41.357,33.481 C 41.357,33.481 41.32,33.434 41.264,33.408 C 41.243,33.398 41.218,33.39 41.192,33.39 C 41.153,33.39 41.111,33.407 41.069,33.454 C 41.059,33.475 40.842,33.923 40.852,34.689 C 40.881,34.707 41.1,34.845 41.315,35.066 C 41.546,35.302 41.775,35.635 41.758,36.016 C 41.758,36.016 41.705,36.529 41.221,36.529" style="fill:#ffffff;fill-opacity:1;fill-rule:nonzero;stroke:none" id="path21551"/>
            <path d="M 33.542,32.705 L 33.542,32.705 L 33.547,32.704 C 33.613,32.667 33.652,32.556 33.674,32.414 C 33.697,32.271 33.704,32.093 33.703,31.92 C 33.701,31.575 33.668,31.247 33.668,31.247 C 33.491,30.446 33.328,30.101 33.208,29.955 C 33.141,29.873 33.086,29.855 33.051,29.855 C 33.023,29.855 33.008,29.866 33.007,29.867 C 32.942,29.92 32.909,30.042 32.895,30.19 C 32.882,30.341 32.887,30.521 32.9,30.696 C 32.926,31.043 32.983,31.366 32.983,31.366 C 33.169,32.564 33.539,32.704 33.542,32.705 z M 26.491,28.268 L 26.491,28.267 C 26.49,28.267 26.49,28.267 26.489,28.267 C 26.462,28.254 26.122,28.098 25.768,27.931 C 25.401,27.756 25.019,27.569 24.964,27.52 L 24.962,27.514 L 25.006,27.121 L 25.014,27.124 C 25.014,27.124 25.868,27.477 26.551,27.882 L 26.555,27.884 L 26.499,28.271 L 26.491,28.268 z M 34.194,33.555 L 34.194,33.555 C 34.178,33.564 34.157,33.57 34.128,33.57 C 34.087,33.57 34.032,33.559 33.955,33.528 C 33.39,33.375 32.802,32.81 32.464,32.043 C 32.188,31.417 32.043,30.692 32.066,30.097 C 32.089,29.503 32.28,29.034 32.679,28.927 C 32.682,28.925 32.715,28.915 32.769,28.915 C 32.828,28.915 32.913,28.928 33.013,28.983 C 33.208,29.09 33.461,29.354 33.698,29.977 C 33.745,29.846 33.867,29.7 34.017,29.617 C 34.094,29.575 34.177,29.55 34.263,29.55 C 34.356,29.55 34.451,29.58 34.541,29.653 C 34.541,29.653 34.977,29.958 34.916,30.545 C 34.916,30.545 34.912,30.595 34.889,30.637 C 34.873,30.664 34.849,30.688 34.812,30.688 C 34.793,30.688 34.772,30.681 34.746,30.667 C 34.746,30.667 34.711,30.647 34.668,30.647 C 34.665,30.647 34.662,30.647 34.66,30.647 C 34.614,30.65 34.561,30.677 34.532,30.78 C 34.532,30.78 34.467,31.459 34.4,32.119 C 34.366,32.454 34.33,32.795 34.3,33.052 C 34.285,33.18 34.271,33.289 34.26,33.367 C 34.254,33.406 34.249,33.438 34.244,33.46 C 34.242,33.472 34.24,33.481 34.239,33.488 C 34.237,33.493 34.236,33.498 34.234,33.501 C 34.233,33.509 34.227,33.538 34.194,33.555 z M 27.959,31.553 C 27.959,31.553 27.629,31.463 27.465,31.457 L 27.46,31.455 C 27.46,31.455 27.378,31.368 27.367,31.255 C 27.365,31.244 27.318,31.011 27.256,30.834 C 27.256,30.834 27.208,30.677 27.093,30.548 C 27.013,30.459 26.902,30.384 26.752,30.384 C 26.686,30.384 26.611,30.398 26.529,30.433 C 26.523,30.437 26.432,30.494 26.393,30.617 C 26.352,30.743 26.367,30.941 26.595,31.223 C 26.595,31.223 27.015,31.674 27.616,31.801 C 27.616,31.801 27.765,31.845 27.948,31.845 C 28.051,31.845 28.164,31.831 28.266,31.787 C 28.545,31.667 28.743,31.319 28.397,30.397 C 28.397,30.397 28.209,29.812 28.612,29.377 C 28.612,29.377 29.193,28.865 29.315,28.695 C 29.544,28.45 29.648,28.149 29.625,27.911 C 29.602,27.675 29.455,27.5 29.178,27.5 L 29.173,27.5 C 29.163,27.505 29.094,27.539 29.045,27.621 C 28.993,27.711 28.965,27.857 29.065,28.088 C 29.068,28.092 29.09,28.133 29.087,28.164 C 29.084,28.181 29.074,28.197 29.049,28.201 C 29.045,28.201 29.04,28.202 29.035,28.202 C 29.012,28.202 28.979,28.194 28.934,28.177 C 28.934,28.177 28.814,28.104 28.683,28.01 C 28.552,27.916 28.406,27.8 28.355,27.71 C 28.355,27.71 28.241,27.552 28.184,27.369 C 28.127,27.185 28.126,26.974 28.356,26.87 C 28.381,26.835 28.474,26.798 28.602,26.782 C 28.646,26.777 28.693,26.773 28.744,26.773 C 28.849,26.773 28.969,26.787 29.096,26.822 C 29.471,26.927 29.902,27.225 30.169,27.928 C 30.185,27.955 30.801,29.021 29.517,29.824 C 29.24,30.079 29.115,30.29 29.1,30.54 C 29.084,30.79 29.18,31.083 29.348,31.501 C 29.348,31.501 29.677,32.427 28.789,32.524 C 28.782,32.525 28.714,32.542 28.59,32.542 C 28.239,32.542 27.438,32.41 26.329,31.435 C 26.329,31.435 26.09,31.174 25.912,30.808 C 25.734,30.442 25.618,29.968 25.864,29.538 L 25.866,29.536 C 25.866,29.536 26.014,29.4 26.258,29.4 C 26.272,29.4 26.287,29.401 26.302,29.402 C 26.571,29.42 26.941,29.606 27.352,30.266 C 27.361,30.145 27.4,29.513 27.41,28.817 C 27.421,28.042 27.394,27.19 27.245,26.878 L 27.244,26.876 C 27.244,26.876 27.201,26.618 26.937,26.618 C 26.913,26.618 26.887,26.621 26.859,26.625 C 26.843,26.633 26.592,26.761 26.698,27.096 C 26.701,27.103 26.732,27.156 26.732,27.196 C 26.732,27.219 26.722,27.239 26.693,27.245 C 26.688,27.246 26.683,27.246 26.677,27.246 C 26.65,27.246 26.611,27.236 26.555,27.212 L 26.554,27.211 C 26.554,27.211 26.06,26.841 26.039,26.267 C 26.039,26.267 26.038,26.066 26.147,25.916 C 26.212,25.825 26.317,25.753 26.484,25.753 C 26.597,25.753 26.737,25.785 26.913,25.866 C 26.915,25.867 28.01,26.317 28.036,28.752 L 27.967,31.555 L 27.959,31.553 z M 31.358,31.917 L 31.358,31.917 C 31.332,31.93 31.274,31.944 31.193,31.944 C 30.924,31.944 30.399,31.781 29.947,30.863 L 29.945,30.857 L 30.155,30.704 L 30.275,30.902 C 30.283,30.909 30.349,30.965 30.418,30.974 C 30.426,30.975 30.432,30.976 30.439,30.976 C 30.469,30.976 30.499,30.965 30.524,30.937 C 30.556,30.903 30.583,30.841 30.594,30.735 L 30.783,27.868 L 30.792,27.872 C 30.792,27.872 30.952,27.943 31.117,28.022 C 31.199,28.061 31.281,28.103 31.348,28.14 C 31.38,28.157 31.408,28.174 31.429,28.189 C 31.45,28.203 31.465,28.216 31.471,28.226 L 31.311,30.651 C 31.311,30.651 31.296,30.787 31.319,30.941 C 31.343,31.096 31.403,31.266 31.552,31.338 C 31.552,31.338 31.769,31.45 31.935,31.486 L 31.939,31.488 L 31.941,31.491 C 31.941,31.491 32.001,31.714 32.057,31.941 C 32.085,32.054 32.111,32.17 32.128,32.259 C 32.137,32.303 32.143,32.341 32.146,32.369 C 32.148,32.384 32.148,32.396 32.148,32.405 C 32.148,32.413 32.146,32.421 32.141,32.426 L 32.135,32.428 C 32.134,32.428 31.766,32.373 31.358,31.917 z M 38.874,35.307 C 38.934,35.302 39.015,35.268 39.09,35.139 C 39.09,35.139 39.205,34.983 39.359,34.983 C 39.409,34.983 39.465,35 39.521,35.046 C 39.53,35.052 39.708,35.172 39.684,35.472 C 39.684,35.472 39.574,35.944 39.185,35.944 L 39.179,35.944 C 39.178,35.944 38.683,35.898 38.262,35.252 C 38.252,35.239 38.009,34.95 38.178,34.571 L 38.823,33.154 C 38.823,33.154 38.898,32.985 38.928,32.807 C 38.958,32.627 38.941,32.445 38.767,32.409 L 38.765,32.409 C 38.765,32.409 38.743,32.399 38.712,32.399 C 38.69,32.399 38.665,32.404 38.64,32.421 C 38.58,32.464 38.523,32.582 38.548,32.89 C 38.548,32.89 38.55,32.956 38.526,32.994 C 38.516,33.01 38.5,33.022 38.479,33.022 C 38.473,33.022 38.468,33.021 38.462,33.02 C 38.433,33.013 38.394,32.987 38.345,32.933 L 37.604,32.024 C 37.598,32.019 37.536,31.965 37.478,31.952 C 37.471,31.951 37.463,31.95 37.457,31.95 C 37.435,31.95 37.416,31.958 37.402,31.978 C 37.382,32.006 37.371,32.059 37.377,32.152 L 37.185,35.046 L 36.477,34.881 L 36.478,34.875 C 36.478,34.875 36.548,34.291 36.557,33.597 C 36.566,32.903 36.513,32.099 36.269,31.659 C 36.237,31.587 36.181,31.513 36.13,31.493 C 36.121,31.491 36.113,31.489 36.105,31.489 C 36.09,31.489 36.075,31.495 36.062,31.509 C 36.042,31.532 36.024,31.575 36.014,31.649 L 35.754,34.402 C 35.754,34.402 35.739,34.438 35.702,34.459 C 35.685,34.469 35.666,34.475 35.641,34.475 C 35.608,34.475 35.568,34.464 35.519,34.432 L 34.91,33.941 C 34.897,33.937 34.766,33.875 34.731,33.734 C 34.731,33.734 34.721,33.69 34.728,33.651 C 34.731,33.632 34.74,33.613 34.758,33.602 C 34.768,33.596 34.78,33.592 34.795,33.592 C 34.807,33.592 34.822,33.594 34.838,33.599 L 34.84,33.601 C 34.84,33.601 34.903,33.646 34.965,33.646 C 34.975,33.646 34.986,33.644 34.996,33.641 C 34.996,33.641 35.023,33.639 35.055,33.61 C 35.088,33.581 35.127,33.525 35.152,33.416 L 35.351,31.133 C 35.351,31.123 35.348,30.934 35.408,30.763 C 35.459,30.615 35.558,30.48 35.743,30.48 C 35.782,30.48 35.823,30.485 35.868,30.497 C 35.886,30.5 36.294,30.569 36.618,31.631 C 36.633,31.58 36.677,31.45 36.755,31.324 C 36.845,31.177 36.983,31.033 37.175,31.033 C 37.192,31.033 37.21,31.035 37.228,31.037 C 37.247,31.037 37.587,31.048 37.892,31.8 C 38.023,31.752 38.153,31.729 38.281,31.729 C 38.571,31.729 38.847,31.847 39.063,32.056 C 39.376,32.358 39.565,32.851 39.495,33.452 L 39.494,33.454 C 39.494,33.454 39.268,34.035 38.765,35.005 L 38.765,35.006 C 38.765,35.006 38.728,35.051 38.711,35.109 C 38.694,35.167 38.695,35.235 38.77,35.284 C 38.77,35.284 38.806,35.307 38.86,35.307 C 38.864,35.307 38.869,35.307 38.874,35.307 z M 35.324,36.388 L 35.324,36.388 C 35.313,36.396 35.3,36.402 35.284,36.402 C 35.265,36.402 35.242,36.394 35.215,36.373 C 35.215,36.373 34.85,36.049 34.886,35.667 C 34.889,35.626 34.913,35.432 35.042,35.295 C 35.117,35.215 35.227,35.155 35.386,35.155 C 35.502,35.155 35.644,35.186 35.816,35.263 C 35.817,35.264 36.507,35.624 36.66,36.594 C 36.66,36.594 36.665,36.654 36.647,36.694 C 36.638,36.714 36.622,36.73 36.595,36.73 C 36.594,36.73 36.593,36.73 36.593,36.73 C 36.566,36.729 36.531,36.712 36.484,36.671 C 36.484,36.671 36.077,36.239 35.936,36.16 C 35.936,36.16 35.797,36.049 35.655,36.017 C 35.631,36.011 35.607,36.008 35.584,36.008 C 35.538,36.008 35.496,36.021 35.459,36.05 C 35.404,36.096 35.363,36.185 35.355,36.342 L 35.354,36.344 C 35.354,36.344 35.346,36.371 35.324,36.388" style="fill:#ffffff;fill-opacity:1;fill-rule:nonzero;stroke:none" id="path21553"/>
            <path d="M 22.076,27.011 L 22.076,27.011 C 22.153,27.13 22.231,27.139 22.254,27.139 C 22.258,27.139 22.26,27.139 22.262,27.139 C 22.35,27.136 22.409,27.059 22.446,26.95 C 22.483,26.841 22.501,26.696 22.508,26.553 C 22.522,26.27 22.495,25.99 22.494,25.979 C 22.494,25.242 22.422,24.87 22.349,24.681 C 22.276,24.493 22.203,24.488 22.2,24.488 C 22.196,24.487 22.192,24.487 22.188,24.487 C 22.101,24.487 22.041,24.58 22,24.712 C 21.956,24.85 21.931,25.037 21.917,25.225 C 21.889,25.601 21.904,25.98 21.904,25.98 C 21.899,26.583 21.986,26.872 22.076,27.011 z M 21.123,25.682 C 21.123,25.682 21.081,25.153 21.153,24.639 C 21.189,24.383 21.253,24.129 21.366,23.947 C 21.467,23.785 21.605,23.68 21.795,23.68 C 21.819,23.68 21.845,23.682 21.87,23.685 C 21.873,23.685 22.987,23.738 23.276,25.702 C 23.276,25.702 23.348,26.164 23.305,26.653 C 23.263,27.141 23.106,27.661 22.643,27.771 C 22.643,27.771 22.638,27.771 22.631,27.771 C 22.509,27.771 21.386,27.715 21.123,25.682 z M 23.55,27.758 L 23.55,27.758 C 23.55,27.758 23.568,27.767 23.595,27.767 C 23.607,27.767 23.622,27.764 23.637,27.758 C 23.684,27.739 23.738,27.68 23.76,27.516 L 23.935,25.156 C 23.935,25.156 23.986,23.704 23.572,23.12 C 23.572,23.12 23.495,22.989 23.399,22.93 C 23.371,22.912 23.341,22.901 23.311,22.901 C 23.291,22.901 23.271,22.906 23.251,22.917 C 23.202,22.946 23.152,23.018 23.111,23.159 C 23.111,23.159 23.1,23.194 23.076,23.212 C 23.068,23.219 23.058,23.223 23.047,23.223 C 23.041,23.223 23.034,23.222 23.028,23.219 C 23.009,23.212 22.989,23.194 22.965,23.16 L 22.429,22.511 C 22.429,22.511 22.372,22.391 22.404,22.284 C 22.431,22.198 22.515,22.124 22.722,22.124 C 22.779,22.124 22.845,22.129 22.92,22.142 L 22.922,22.142 C 22.925,22.144 24.926,23.062 24.586,25.95 L 24.35,28.484 C 24.35,28.489 24.348,28.537 24.326,28.569 C 24.313,28.586 24.294,28.6 24.267,28.6 L 24.264,28.6 C 24.237,28.599 24.2,28.585 24.154,28.551 C 24.154,28.551 23.954,28.407 23.741,28.244 C 23.529,28.081 23.3,27.898 23.243,27.82 C 23.243,27.82 23.223,27.789 23.228,27.763 C 23.233,27.739 23.256,27.722 23.309,27.722 C 23.325,27.722 23.342,27.724 23.363,27.727 L 23.55,27.758" style="fill:#ffffff;fill-opacity:1;fill-rule:nonzero;stroke:none" id="path21555"/>
            <path d="M 15.757,24.524 L 15.757,24.524 C 16.088,27.29 16.664,27.335 16.67,27.335 L 16.677,27.335 L 16.613,24.704 L 15.756,24.514 L 15.757,24.524 z M 17.133,28.169 C 17.112,28.16 17.092,28.15 17.07,28.14 C 17.069,28.139 17.068,28.138 17.066,28.137 L 17.053,28.131 C 16.658,27.943 16.289,27.768 16.011,27.448 C 15.635,27.015 15.449,26.334 15.272,25.332 L 14.926,22.811 C 14.926,22.811 14.885,22.635 14.804,22.454 C 14.723,22.271 14.6,22.09 14.44,22.075 L 14.438,22.074 C 14.438,22.074 14.414,22.064 14.38,22.064 C 14.357,22.064 14.33,22.068 14.302,22.083 C 14.23,22.118 14.149,22.217 14.12,22.475 C 14.12,22.475 14.131,22.685 14.147,22.896 C 14.156,23.005 14.167,23.116 14.179,23.207 C 14.191,23.298 14.204,23.366 14.218,23.389 L 14.219,23.391 C 14.219,23.391 14.223,23.409 14.224,23.432 C 14.226,23.455 14.224,23.484 14.212,23.506 C 14.201,23.524 14.184,23.536 14.158,23.536 C 14.151,23.536 14.143,23.534 14.134,23.533 C 14.095,23.524 14.039,23.495 13.96,23.433 C 13.922,23.408 13.829,23.278 13.731,23.097 C 13.634,22.916 13.531,22.68 13.473,22.442 C 13.415,22.203 13.402,21.959 13.485,21.762 C 13.569,21.563 13.75,21.413 14.076,21.359 C 14.081,21.358 14.12,21.346 14.184,21.346 C 14.294,21.346 14.478,21.381 14.686,21.563 C 15.021,21.856 15.418,22.531 15.669,24.057 C 15.7,24.065 15.894,24.115 16.095,24.162 C 16.204,24.189 16.315,24.213 16.403,24.23 C 16.448,24.238 16.485,24.245 16.514,24.248 C 16.53,24.25 16.542,24.25 16.551,24.25 C 16.559,24.25 16.564,24.25 16.567,24.249 L 16.568,24.249 C 16.571,24.247 16.574,24.239 16.578,24.22 C 16.582,24.203 16.585,24.178 16.588,24.147 C 16.594,24.086 16.599,24.001 16.603,23.9 C 16.612,23.699 16.616,23.434 16.619,23.169 C 16.624,22.624 16.62,22.079 16.62,22.079 L 16.62,22.07 L 17.518,22.324 L 17.352,28.002 C 17.353,28.01 17.362,28.082 17.342,28.137 C 17.331,28.167 17.312,28.194 17.278,28.204 C 17.269,28.206 17.26,28.207 17.25,28.207 C 17.22,28.207 17.181,28.196 17.133,28.169" style="fill:#ffffff;fill-opacity:1;fill-rule:nonzero;stroke:none" id="path21557"/>
            <path d="M 24.102,30.241 L 24.101,30.24 C 24.089,30.235 23.877,30.142 23.792,30.038 L 23.79,30.036 C 23.777,30.029 23.711,29.985 23.657,29.92 C 23.598,29.849 23.553,29.75 23.618,29.646 L 23.661,29.252 C 23.661,29.252 23.669,29.199 23.708,29.167 C 23.726,29.152 23.75,29.142 23.78,29.142 C 23.819,29.142 23.871,29.159 23.938,29.205 C 23.939,29.206 24.25,29.464 24.282,30.128 C 24.282,30.128 24.282,30.186 24.26,30.229 C 24.249,30.25 24.232,30.269 24.205,30.274 C 24.2,30.275 24.196,30.276 24.191,30.276 C 24.166,30.276 24.137,30.265 24.102,30.241" style="fill:#ffffff;fill-opacity:1;fill-rule:nonzero;stroke:none" id="path21559"/>
            <path d="M 19.619,29.347 L 19.618,29.346 C 19.618,29.346 18.069,28.684 18.171,26.849 L 18.222,22.538 L 19.029,22.781 L 18.939,24.628 C 18.939,24.628 18.926,24.899 18.967,25.195 C 19.007,25.493 19.1,25.812 19.309,25.915 C 19.313,25.916 19.333,25.918 19.361,25.918 C 19.388,25.918 19.424,25.915 19.459,25.903 C 19.53,25.878 19.599,25.814 19.585,25.652 L 19.689,23.384 C 19.689,23.384 19.733,23.191 19.846,23.071 C 19.897,23.018 19.962,22.979 20.043,22.979 C 20.053,22.979 20.063,22.98 20.073,22.98 C 20.168,22.991 20.282,23.054 20.419,23.2 C 20.436,23.209 20.645,23.331 20.84,23.907 C 20.84,23.907 20.844,23.918 20.849,23.933 C 20.852,23.947 20.855,23.966 20.851,23.982 C 20.846,23.997 20.835,24.007 20.813,24.007 C 20.81,24.007 20.808,24.007 20.805,24.006 C 20.78,24.004 20.743,23.989 20.689,23.955 C 20.689,23.955 20.588,23.866 20.492,23.866 L 20.49,23.866 C 20.399,23.867 20.302,23.95 20.316,24.313 L 20.392,26.505 C 20.392,26.505 20.38,26.944 19.996,26.946 L 19.993,26.946 C 19.993,26.946 19.326,26.742 18.955,26.155 C 18.959,26.383 18.994,28.128 19.029,28.471 L 19.029,28.473 C 19.019,28.52 19.04,28.587 19.08,28.652 C 19.134,28.743 19.223,28.824 19.304,28.835 C 19.309,28.836 19.315,28.836 19.321,28.836 C 19.393,28.836 19.462,28.775 19.494,28.59 L 19.496,28.578 L 20.168,29.204 L 20.166,29.208 C 20.165,29.21 20.09,29.368 19.812,29.368 C 19.757,29.368 19.693,29.362 19.619,29.347" style="fill:#ffffff;fill-opacity:1;fill-rule:nonzero;stroke:none" id="path21561"/>
            <path d="M 14.91,14.772 L 14.91,14.772 C 14.788,14.842 14.696,14.87 14.629,14.87 C 14.618,14.87 14.608,14.869 14.598,14.868 C 14.527,14.858 14.488,14.813 14.467,14.758 C 14.426,14.65 14.457,14.502 14.457,14.502 L 14.457,14.501 C 15.245,12.738 15.968,12.494 15.97,12.493 C 16.156,12.394 16.308,12.357 16.43,12.357 C 16.55,12.357 16.642,12.393 16.712,12.443 C 16.851,12.541 16.898,12.689 16.898,12.689 L 16.898,12.693 C 16.688,13.526 16.373,14.345 16.373,14.345 C 16.258,14.581 16.049,14.622 15.921,14.622 C 15.855,14.622 15.81,14.611 15.81,14.611 C 15.735,14.585 15.656,14.574 15.577,14.574 C 15.241,14.574 14.91,14.772 14.91,14.772 z M 15.78,15.842 L 15.779,15.841 C 15.548,15.741 14.987,15.721 14.987,15.721 C 14.964,15.722 14.942,15.722 14.92,15.722 C 14.747,15.722 14.622,15.704 14.538,15.676 C 14.443,15.643 14.398,15.596 14.395,15.542 C 14.388,15.437 14.542,15.319 14.743,15.264 C 14.911,15.152 15.178,15.115 15.403,15.105 C 15.454,15.102 15.501,15.102 15.546,15.102 C 15.701,15.102 15.812,15.112 15.812,15.112 C 15.86,15.122 15.906,15.125 15.949,15.125 C 16.427,15.125 16.612,14.613 16.613,14.613 C 16.794,14.29 16.844,13.928 16.844,13.928 L 16.844,13.926 C 16.977,13.666 17.129,13.543 17.129,13.543 C 17.812,12.991 17.732,12.369 17.732,12.369 L 17.731,12.365 L 17.735,12.362 C 18.226,12.07 18.468,11.938 18.468,11.938 L 18.475,11.935 L 19.024,13.47 L 19.02,13.473 C 18.583,13.799 18.38,14.052 18.286,14.224 C 18.239,14.309 18.219,14.374 18.21,14.418 C 18.202,14.461 18.206,14.482 18.206,14.482 L 18.205,14.487 C 17.852,15.178 17.597,15.242 17.57,15.247 L 17.219,15.567 C 17.035,15.802 16.674,15.87 16.361,15.88 C 16.332,15.881 16.303,15.881 16.273,15.881 C 16,15.881 15.78,15.842 15.78,15.842" style="fill:#ffffff;fill-opacity:1;fill-rule:nonzero;stroke:none" id="path21545"/>
          </g>
        </g>
      </g>
    </g>
  </g>
</svg>