<?xml version="1.0" encoding="UTF-8"?>
<svg version="1.2" baseProfile="tiny" viewBox="0 0 21590 27940" preserveAspectRatio="xMidYMid" fill-rule="evenodd" "clip-path="url(#presentation_clip_path)" stroke-width="28.222" stroke-linejoin="round" xmlns="http://www.w3.org/2000/svg" xmlns:xlink="http://www.w3.org/1999/xlink" xmlns:draw="urn:oasis:names:tc:opendocument:xmlns:drawing:1.0" xmlns:presentation="urn:oasis:names:tc:opendocument:xmlns:presentation:1.0" xmlns:smil="urn:oasis:names:tc:opendocument:xmlns:smil-compatible:1.0" xmlns:anim="urn:oasis:names:tc:opendocument:xmlns:animation:1.0" xml:space="preserve">
 <defs>
  <clipPath id="presentation_clip_path" clipPathUnits="userSpaceOnUse">
   <rect x="0" y="0" width="21590" height="27940"/>
  </clipPath>
 </defs>
 <g id="id2" class="Master_Slide" clip-path="url(#presentation_clip_path)">
  <g id="bg-id2" visibility="visible" class="Background">
   <rect fill="none" stroke="none" x="0" y="0" width="21590" height="27940"/>
  </g>  <g id="bo-id2" visibility="visible" class="BackgroundObjects"/>
 </g>
 <g id="id1" class="Slide" visibility="visible" clip-path="url(#presentation_clip_path)">
  <g class="com.sun.star.drawing.PolyPolygonShape">
   <g>
    <path fill="none" stroke="rgb(0,0,0)" d="M 3320,190 L 2680,160 2690,730 2710,250 3070,190 3390,270 3360,710 3310,460 3320,300 3370,170 3320,220 3000,240 2780,220 2700,600 2700,710 2740,690 2690,270 2820,190 4020,450 4160,190 3850,470 3600,460 3650,180 3610,270 3710,400 4250,660 3850,430 4170,720 4180,650 4000,360 4250,160 4210,150 4140,300 4080,370 4190,330 4050,410 3990,440 4040,310 3630,400 3740,470 3680,490 3650,220 3640,160 3640,150 3610,300 4230,600 4220,720 4260,730 4320,700 4090,630 4080,590 3980,430 4170,580 4130,520 4040,380 4310,180 4050,290 4130,160 120,170 760,220 840,240 100,200 720,170 1740,290 1640,200 1540,220 1020,340 1130,730 1140,390 1090,390 1000,560 1090,710 1040,680 1160,160 1090,260 1020,250 1060,210 1740,180 1730,210 1230,170 1040,160 1120,490 130,460 240,740 130,660 190,500 830,560 710,510 330,570 230,550 180,720 100,730 110,590 150,460 830,530 750,460 220,520 210,650 170,630 500,540 480,550 730,550 800,520 240,450 380,560 880,580 1150,200 1010,710 1140,580 1040,520 1080,440 1030,300 1050,100 2260,330 2430,710 2270,520 2180,390 2250,440 2130,210 1780,710 1880,670 1970,330 1780,670 1920,640 2040,440 2010,150 2360,730 2350,530 2280,490 2260,470 2210,240 1950,360 1970,460 1960,500 1850,590 1860,480 2000,230 2120,150 2180,230 2170,220 2200,260 2240,500 2340,670 2320,510 2460,740 2490,710 2300,740 2420,620 2410,640 2410,660 2290,500 2020,120 1770,690 1860,720 1840,740 1720,740 2180,190 2150,190 2180,340 2040,430 2010,260 120,290 470,150 840,240 780,120 140,190 100,210 210,280 590,240 700,190 210,130 560,290 820,280 1710,190 1460,110 1340,130 1210,110 1070,790 1000,540 1100,660 1100,710 1100,610 1140,510 1030,440 100,550 240,710 110,720 110,540 190,500 700,470 560,560 810,550 760,540 130,480 100,490 220,630 140,780 300,590 410,550 3750,170 3260,550 3340,620 3320,590 3390,550 3320,730 3330,700 3380,430 3330,430 3310,320 3430,350 3370,390 3390,360 3400,670 3360,680 3220,180 3340,170 3430,280 3360,250 2680,240 2760,590 2750,660 2750,400 2650,680 2750,710 2660,720 2700,110 3290,130 3030,250 2720,280 2640,490 2770,300 2730,470 2600,660 2670,750 2830,240 2680,130 2630,380 2660,350 2630,630 4110,440 4240,100 4030,250 3790,490 3720,280 3560,240 3570,420 3600,370 3610,500 4020,530 4150,720 4200,710 4170,600 4140,720 3970,540 4120,230 3940,440 3680,340 3690,430 3800,430 3870,530 4260,200 4330,140 4250,140 4170,150 4150,110 4180,120 4200,260 4120,260 3990,390 3810,350 2880,110 2920,290 3370,130 3290,710 3410,740 3440,410 3420,420 3320,690 3390,720 3430,100 3020,100 2930,180 2870,230 2770,150 2840,130 110,130 430,260 530,230 740,200 820,170 760,180 1620,220 1420,260 1360,190 1330,180 1270,160 1300,290 1060,330 1040,450 1010,750 1030,710 1190,700 1110,320 1100,170 1070,210 450,250 180,200 170,100 130,270 310,260 480,150 230,190 290,660 180,790 270,710 90,490 760,490 3710,140 3570,530 4100,560 4140,670 4300,710 4260,690 4130,530 4050,530 4050,460 4160,230 4220,240 1880,480 1890,660 1910,610 1920,540 1940,510 1960,590 1980,520 1760,710 1860,720 1810,530 1940,670 1730,790 1830,570 2190,100 2360,590 2270,600 2330,510 2360,700 2490,750 2490,690 2390,470 2060,170 2090,170 1950,210 2080,130 2130,100 2110,300 2360,760 2260,690 2300,360 2250,470 2220,400 2180,460 2240,370 2470,820 2760,650 2760,710 2790,750 2780,400 2630,450 2630,570 2740,520 2710,810 1280,90 "/>
   </g>
  </g>
 </g>
</svg>
