<?xml version="1.0" encoding="UTF-8"?>
<svg version="1.2" baseProfile="tiny" viewBox="0 0 21590 27940" preserveAspectRatio="xMidYMid" fill-rule="evenodd" "clip-path="url(#presentation_clip_path)" stroke-width="28.222" stroke-linejoin="round" xmlns="http://www.w3.org/2000/svg" xmlns:xlink="http://www.w3.org/1999/xlink" xmlns:draw="urn:oasis:names:tc:opendocument:xmlns:drawing:1.0" xmlns:presentation="urn:oasis:names:tc:opendocument:xmlns:presentation:1.0" xmlns:smil="urn:oasis:names:tc:opendocument:xmlns:smil-compatible:1.0" xmlns:anim="urn:oasis:names:tc:opendocument:xmlns:animation:1.0" xml:space="preserve">
 <defs>
  <clipPath id="presentation_clip_path" clipPathUnits="userSpaceOnUse">
   <rect x="0" y="0" width="21590" height="27940"/>
  </clipPath>
 </defs>
 <g id="id2" class="Master_Slide" clip-path="url(#presentation_clip_path)">
  <g id="bg-id2" visibility="visible" class="Background">
   <rect fill="none" stroke="none" x="0" y="0" width="21590" height="27940"/>
  </g>  <g id="bo-id2" visibility="visible" class="BackgroundObjects"/>
 </g>
 <g id="id1" class="Slide" visibility="visible" clip-path="url(#presentation_clip_path)">
  <g class="com.sun.star.drawing.PolyPolygonShape">
   <g>
    <path fill="none" stroke="rgb(0,0,0)" d="M 2250,650 L 2160,520 2080,200 1830,680 1950,740 2170,730 2280,710 2350,980 2200,690 2220,510 2370,900 2110,270 1980,260 1730,990 1810,830 1830,770 1720,870 1750,980 1710,1020 1160,630 1420,580 890,610 940,960 930,720 920,310 900,200 960,240 1280,200 1410,250 1430,240 1510,340 1540,460 1350,580 1310,660 1580,1030 1180,560 990,610 1020,560 860,520 910,320 940,880 860,1010 880,200 180,200 190,950 200,550 390,560 540,590 500,620 160,510 180,260 480,160 510,210 290,180 160,150 160,780 140,370 130,1040 290,590 400,610 340,620 620,560 370,570 1350,550 1470,490 1450,370 1530,410 1320,230 1480,230 1450,410 1450,530 1310,650 1450,820 1420,770 1440,880 1460,1030 1480,920 1570,950 1540,1030 1480,880 1300,750 1450,990 1940,670 2370,810 2340,980 2360,1040 2130,470 2180,470 2050,280 1960,230 1960,350 1890,450 1880,790 1930,320 2030,210 1970,420 1930,550 1710,900 1800,2420 1830,1690 1760,2180 1780,2410 2740,2390 2410,2430 2120,2390 2100,1770 2100,1610 2630,1600 2510,1600 2190,1640 2160,1970 2420,1990 2120,2080 2150,2170 2180,2290 2160,2360 2110,2250 2180,1990 2410,2030 2590,2030 2120,2000 2140,1810 2130,1660 2230,1690 900,2100 1050,1610 1180,1630 1290,1610 1430,1620 1580,1820 1540,1820 1510,1670 1430,2040 1310,2040 1250,2000 1090,2000 970,1810 990,2450 970,1580 1030,2210 250,1950 470,1970 600,2060 690,2090 660,2320 600,2380 480,2440 410,2410 140,2280 320,2360 160,2380 120,2220 170,2240 300,2400 500,2360 720,2270 690,2280 750,2190 210,1860 160,1680 400,1640 520,1600 660,1790 560,1540 120,1790 210,1920 440,1910 730,2200 650,2070 540,1990 400,2020 250,1930 230,1960 150,1880 150,1770 280,1630 420,1570 630,1680 700,1760 650,1670 600,1780 640,1600 4200,1610 4290,1780 4070,1550 3660,1710 3860,1960 4270,2060 4290,2320 4200,2380 4090,2400 3890,2350 3770,2260 3770,2200 3810,2380 4040,2400 4340,2290 4320,2150 4300,2090 3790,1860 3760,1740 3900,1590 4060,1630 4280,1710 4160,1630 4220,1780 4260,1790 4320,1760 4270,1610 3840,1600 3760,1910 4140,1960 4000,2040 3820,1970 3840,1860 4200,2050 4180,2090 4240,2030 4250,2250 4190,2420 3800,2310 2910,1860 3020,1600 3490,1680 3200,1590 2990,1670 2920,1770 3090,1960 3490,2070 3490,2220 3440,2350 3240,2410 3060,2430 2910,2200 3060,2350 3150,2350 3490,2320 3480,2190 3420,2010 3050,1910 2910,1730 3030,1900 3430,2080 3480,200 3530,670 3990,240 3730,500 3970,900 4030,930 4000,990 3610,510 3820,670 4080,1000 4050,970 3850,700 3710,470 3470,840 3480,530 3510,220 3530,450 3510,1010 3450,940 3710,410 3950,340 3960,150 3560,620 3450,630 3540,1030 2680,350 3130,880 3160,920 3180,490 3180,380 3170,250 3190,320 3190,980 3030,810 3130,950 2630,200 2620,970 2570,580 2610,260 2560,370 2580,1020 2660,220 2820,410 3020,780 3200,940 3210,290 3140,160 3190,830 2890,650 2800,480 2700,350 2550,280 2600,230 2730,300 2730,280 3120,940 3170,1020 2870,650 3130,980 3150,20 4130,1030 3760,520 3910,340 4040,220 4020,200 3630,620 3730,560 3910,890 3990,960 3800,780 3730,620 3780,410 3920,230 4040,190 3610,510 3460,750 3480,220 3410,520 3430,980 3430,1010 3540,830 3520,250 190,170 220,470 200,1030 180,570 260,140 1450,800 1280,550 1440,480 1480,300 1450,340 1510,370 1470,280 1110,160 990,180 880,330 920,490 1010,610 1320,620 1510,500 1420,540 1550,400 1150,140 880,440 880,970 900,1000 970,960 970,690 880,920 910,980 960,280 1020,180 1420,150 860,210 140,210 170,420 320,200 620,170 600,210 690,180 530,290 1530,260 1530,370 1380,500 2600,970 2570,160 2580,320 2610,550 2580,620 2560,920 2630,1020 2620,1010 2250,930 2030,130 2210,460 2180,410 2190,570 2300,680 2320,740 1900,710 1730,980 1940,290 2220,520 2130,220 2020,180 2030,160 1690,1020 1500,1040 1160,510 960,630 1010,2460 910,1880 1030,1610 950,1680 1230,1590 1570,1710 1450,2000 1170,2050 1080,2070 1440,2070 1550,1820 1260,1560 1450,1650 1320,1650 1250,1660 1090,1550 920,2290 920,2410 110,2320 220,2360 260,2400 550,2410 570,2400 420,2360 60,2240 110,2190 150,2190 130,2260 420,2480 780,2220 700,2160 730,2170 740,2340 690,2380 600,2320 700,2180 740,2080 530,2020 230,1850 130,1850 110,1820 180,1660 340,1590 520,1600 710,1800 460,1510 110,1750 520,2080 240,1950 210,1610 240,1660 470,1610 540,1670 560,1670 3500,1660 3430,1760 3500,1810 3290,1550 3130,1570 3520,1770 3380,1710 3480,1800 4420,2180 4000,2410 3890,2400 3760,2340 4030,2450 3700,2150 3720,2390 2130,2350 2730,2420 2600,2400 2270,2400 2230,2430 2180,2440 2560,2390 2690,2420 2100,2440 2150,2130 2130,2240 2240,2350 2050,1700 2330,2000 2540,1980 2580,2020 2590,1970 2340,1960 2160,2070 2090,1830 2270,2040 2060,1760 2380,1560 2450,1610 2170,1560 2100,1550 2710,1560 2610,1610 3450,2100 3520,2230 3500,2080 3530,2270 3210,2450 2890,2240 3000,2380 2900,2310 3020,2440 3440,2430 3170,2350 2940,2260 2960,2210 2800,2140 2530,1990 2670,2000 2690,1960 2370,2040 780,2030 580,2000 670,2170 630,2340 230,2440 140,2110 1930,1900 1750,2330 1820,1690 1800,1630 1760,1630 1830,2100 1850,1750 1880,2410 1790,2160 1800,1730 1470,1930 1520,1780 1420,1710 1490,1750 1480,1780 1560,1850 1530,1950 1490,1960 1150,2060 1480,2080 930,1970 920,1820 910,1740 980,1710 900,1620 1080,1550 1290,1640 1550,1760 1490,1640 1540,1670 1340,1580 4240,1690 4310,2330 4290,2380 4160,2380 4020,2380 3800,2400 3660,2120 2960,1990 2970,1860 2980,1660 2990,1770 3100,1590 4280,2010 4310,2170 3710,1840 3920,1630 3730,1770 3770,1690 3750,1740 4130,1580 3960,1590 3820,1630 3720,1870 3710,1870 3940,2000 4160,1970 4320,2310 4230,2420 4050,2440 3650,2240 2980,1930 3060,2020 2900,1890 3360,1970 3440,2020 3530,2100 3300,2350 3240,2410 3130,2400 3530,2230 3480,2340 3370,2410 3410,2290 3450,1960 2100,1960 2210,1570 2060,2330 2170,2300 2190,2260 2090,2110 2140,1620 2730,340 2940,680 2900,640 2990,650 3030,700 3210,1020 3240,310 3210,350 3210,700 3150,610 3190,520 3230,220 3160,270 3230,140 4010,1000 4040,1000 3760,580 4060,900 3870,810 3960,710 1750,760 2150,740 2070,680 2290,560 2320,770 2290,870 2410,1010 2300,1000 2320,960 2780,110 2550,870 2680,980 2620,270 2640,170 2570,170 3110,1010 3340,920 4020,230 4080,210 3790,500 3850,250 3670,470 3470,990 3450,1010 3490,850 3580,1010 60,590 230,960 140,1000 100,190 360,260 640,240 660,210 660,210 570,190 1290,200 1030,150 880,390 960,460 970,350 920,190 920,790 390,530 220,740 150,1070 220,310 600,600 590,640 600,590 450,640 280,510 140,240 560,180 1710,1070 1960,360 2240,320 2030,340 2200,420 2920,590 2820,430 2750,430 2770,500 2840,570 3020,670 3180,890 3210,830 3200,920 3120,580 3130,370 3130,160 3540,150 3460,170 3400,210 3420,890 3550,20 4250,200 3970,160 3870,350 4000,1090 3120,120 110,1860 250,1950 350,2000 190,1940 110,1700 130,1700 170,1770 150,1660 290,1570 380,1610 390,1650 280,1620 310,1640 960,1840 1040,2380 990,2390 1010,2190 350,2470 70,2150 170,2230 360,2430 280,2350 670,2430 710,2240 420,1890 310,2010 700,1750 650,1800 460,2010 1200,1600 760,1560 4190,2400 4300,2120 4280,2370 4350,2190 3850,1920 4040,2060 4160,2010 4360,2100 4210,1560 4000,1640 4020,1590 3970,1570 4300,1770 4270,1670 4300,1700 4330,1840 4160,1770 "/>
   </g>
  </g>
 </g>
</svg>
