<?xml version="1.0" encoding="UTF-8"?>
<svg version="1.2" baseProfile="tiny" viewBox="0 0 21590 27940" preserveAspectRatio="xMidYMid" fill-rule="evenodd" "clip-path="url(#presentation_clip_path)" stroke-width="28.222" stroke-linejoin="round" xmlns="http://www.w3.org/2000/svg" xmlns:xlink="http://www.w3.org/1999/xlink" xmlns:draw="urn:oasis:names:tc:opendocument:xmlns:drawing:1.0" xmlns:presentation="urn:oasis:names:tc:opendocument:xmlns:presentation:1.0" xmlns:smil="urn:oasis:names:tc:opendocument:xmlns:smil-compatible:1.0" xmlns:anim="urn:oasis:names:tc:opendocument:xmlns:animation:1.0" xml:space="preserve">
 <defs>
  <clipPath id="presentation_clip_path" clipPathUnits="userSpaceOnUse">
   <rect x="0" y="0" width="21590" height="27940"/>
  </clipPath>
 </defs>
 <g id="id2" class="Master_Slide" clip-path="url(#presentation_clip_path)">
  <g id="bg-id2" visibility="visible" class="Background">
   <rect fill="none" stroke="none" x="0" y="0" width="21590" height="27940"/>
  </g>  <g id="bo-id2" visibility="visible" class="BackgroundObjects"/>
 </g>
 <g id="id1" class="Slide" visibility="visible" clip-path="url(#presentation_clip_path)">
  <g class="com.sun.star.drawing.PolyPolygonShape">
   <g>
    <path fill="none" stroke="rgb(0,0,0)" d="M 1220,210 L 1120,230"/>
    <path fill="none" stroke="rgb(0,0,0)" d="M 1120,230 L 1110,650"/>
    <path fill="none" stroke="rgb(0,0,0)" d="M 1110,650 L 1000,470"/>
    <path fill="none" stroke="rgb(0,0,0)" d="M 1000,470 L 1090,150"/>
    <path fill="none" stroke="rgb(0,0,0)" d="M 1090,150 L 1700,170"/>
    <path fill="none" stroke="rgb(0,0,0)" d="M 1700,170 L 1640,210"/>
    <path fill="none" stroke="rgb(0,0,0)" d="M 1640,210 L 1250,210"/>
    <path fill="none" stroke="rgb(0,0,0)" d="M 1250,210 L 240,230"/>
    <path fill="none" stroke="rgb(0,0,0)" d="M 240,230 L 100,170"/>
    <path fill="none" stroke="rgb(0,0,0)" d="M 100,170 L 610,150"/>
    <path fill="none" stroke="rgb(0,0,0)" d="M 610,150 L 800,240"/>
    <path fill="none" stroke="rgb(0,0,0)" d="M 800,240 L 750,180"/>
    <path fill="none" stroke="rgb(0,0,0)" d="M 750,180 L 700,240"/>
    <path fill="none" stroke="rgb(0,0,0)" d="M 700,240 L 200,160"/>
    <path fill="none" stroke="rgb(0,0,0)" d="M 200,160 L 550,290"/>
    <path fill="none" stroke="rgb(0,0,0)" d="M 550,290 L 130,200"/>
    <path fill="none" stroke="rgb(0,0,0)" d="M 130,200 L 150,200"/>
    <path fill="none" stroke="rgb(0,0,0)" d="M 150,200 L 230,710"/>
    <path fill="none" stroke="rgb(0,0,0)" d="M 230,710 L 100,570"/>
    <path fill="none" stroke="rgb(0,0,0)" d="M 100,570 L 800,490"/>
    <path fill="none" stroke="rgb(0,0,0)" d="M 800,490 L 120,470"/>
    <path fill="none" stroke="rgb(0,0,0)" d="M 120,470 L 140,540"/>
    <path fill="none" stroke="rgb(0,0,0)" d="M 140,540 L 420,590"/>
    <path fill="none" stroke="rgb(0,0,0)" d="M 420,590 L 840,500"/>
    <path fill="none" stroke="rgb(0,0,0)" d="M 840,500 L 590,550"/>
    <path fill="none" stroke="rgb(0,0,0)" d="M 590,550 L 200,490"/>
    <path fill="none" stroke="rgb(0,0,0)" d="M 200,490 L 880,560"/>
    <path fill="none" stroke="rgb(0,0,0)" d="M 880,560 L 250,590"/>
    <path fill="none" stroke="rgb(0,0,0)" d="M 250,590 L 140,740"/>
    <path fill="none" stroke="rgb(0,0,0)" d="M 140,740 L 120,600"/>
    <path fill="none" stroke="rgb(0,0,0)" d="M 120,600 L 150,730"/>
    <path fill="none" stroke="rgb(0,0,0)" d="M 150,730 L 190,480"/>
    <path fill="none" stroke="rgb(0,0,0)" d="M 190,480 L 670,460"/>
    <path fill="none" stroke="rgb(0,0,0)" d="M 670,460 L 130,530"/>
    <path fill="none" stroke="rgb(0,0,0)" d="M 130,530 L 160,600"/>
    <path fill="none" stroke="rgb(0,0,0)" d="M 160,600 L 240,650"/>
    <path fill="none" stroke="rgb(0,0,0)" d="M 240,650 L 240,670"/>
    <path fill="none" stroke="rgb(0,0,0)" d="M 240,670 L 200,550"/>
    <path fill="none" stroke="rgb(0,0,0)" d="M 200,550 L 830,540"/>
    <path fill="none" stroke="rgb(0,0,0)" d="M 830,540 L 1430,160"/>
    <path fill="none" stroke="rgb(0,0,0)" d="M 1430,160 L 1110,190"/>
    <path fill="none" stroke="rgb(0,0,0)" d="M 1110,190 L 1000,660"/>
    <path fill="none" stroke="rgb(0,0,0)" d="M 1000,660 L 1100,540"/>
    <path fill="none" stroke="rgb(0,0,0)" d="M 1100,540 L 1030,240"/>
    <path fill="none" stroke="rgb(0,0,0)" d="M 1030,240 L 1020,730"/>
    <path fill="none" stroke="rgb(0,0,0)" d="M 1020,730 L 1090,670"/>
    <path fill="none" stroke="rgb(0,0,0)" d="M 1090,670 L 1110,710"/>
    <path fill="none" stroke="rgb(0,0,0)" d="M 1110,710 L 1140,740"/>
    <path fill="none" stroke="rgb(0,0,0)" d="M 1140,740 L 1070,710"/>
    <path fill="none" stroke="rgb(0,0,0)" d="M 1070,710 L 1090,710"/>
    <path fill="none" stroke="rgb(0,0,0)" d="M 1090,710 L 1120,310"/>
    <path fill="none" stroke="rgb(0,0,0)" d="M 1120,310 L 1030,180"/>
    <path fill="none" stroke="rgb(0,0,0)" d="M 1030,180 L 1040,170"/>
    <path fill="none" stroke="rgb(0,0,0)" d="M 1040,170 L 2200,280"/>
    <path fill="none" stroke="rgb(0,0,0)" d="M 2200,280 L 2440,690"/>
    <path fill="none" stroke="rgb(0,0,0)" d="M 2440,690 L 2140,310"/>
    <path fill="none" stroke="rgb(0,0,0)" d="M 2140,310 L 1910,390"/>
    <path fill="none" stroke="rgb(0,0,0)" d="M 1910,390 L 1810,730"/>
    <path fill="none" stroke="rgb(0,0,0)" d="M 1810,730 L 1990,480"/>
    <path fill="none" stroke="rgb(0,0,0)" d="M 1990,480 L 2050,190"/>
    <path fill="none" stroke="rgb(0,0,0)" d="M 2050,190 L 2180,180"/>
    <path fill="none" stroke="rgb(0,0,0)" d="M 2180,180 L 2220,460"/>
    <path fill="none" stroke="rgb(0,0,0)" d="M 2220,460 L 2380,720"/>
    <path fill="none" stroke="rgb(0,0,0)" d="M 2380,720 L 2380,650"/>
    <path fill="none" stroke="rgb(0,0,0)" d="M 2380,650 L 2430,730"/>
    <path fill="none" stroke="rgb(0,0,0)" d="M 2430,730 L 2480,720"/>
    <path fill="none" stroke="rgb(0,0,0)" d="M 2480,720 L 2260,330"/>
    <path fill="none" stroke="rgb(0,0,0)" d="M 2260,330 L 2020,230"/>
    <path fill="none" stroke="rgb(0,0,0)" d="M 2020,230 L 1970,330"/>
    <path fill="none" stroke="rgb(0,0,0)" d="M 1970,330 L 1790,710"/>
    <path fill="none" stroke="rgb(0,0,0)" d="M 1790,710 L 1980,430"/>
    <path fill="none" stroke="rgb(0,0,0)" d="M 1980,430 L 2020,310"/>
    <path fill="none" stroke="rgb(0,0,0)" d="M 2020,310 L 2100,220"/>
    <path fill="none" stroke="rgb(0,0,0)" d="M 2100,220 L 2200,240"/>
    <path fill="none" stroke="rgb(0,0,0)" d="M 2200,240 L 2320,650"/>
    <path fill="none" stroke="rgb(0,0,0)" d="M 2320,650 L 2230,520"/>
    <path fill="none" stroke="rgb(0,0,0)" d="M 2230,520 L 2170,340"/>
    <path fill="none" stroke="rgb(0,0,0)" d="M 2170,340 L 2210,350"/>
    <path fill="none" stroke="rgb(0,0,0)" d="M 2210,350 L 3370,150"/>
    <path fill="none" stroke="rgb(0,0,0)" d="M 3370,150 L 3360,600"/>
    <path fill="none" stroke="rgb(0,0,0)" d="M 3360,600 L 3300,710"/>
    <path fill="none" stroke="rgb(0,0,0)" d="M 3300,710 L 3360,670"/>
    <path fill="none" stroke="rgb(0,0,0)" d="M 3360,670 L 3340,570"/>
    <path fill="none" stroke="rgb(0,0,0)" d="M 3340,570 L 3320,280"/>
    <path fill="none" stroke="rgb(0,0,0)" d="M 3320,280 L 3150,160"/>
    <path fill="none" stroke="rgb(0,0,0)" d="M 3150,160 L 2660,170"/>
    <path fill="none" stroke="rgb(0,0,0)" d="M 2660,170 L 2660,680"/>
    <path fill="none" stroke="rgb(0,0,0)" d="M 2660,680 L 2710,520"/>
    <path fill="none" stroke="rgb(0,0,0)" d="M 2710,520 L 2720,340"/>
    <path fill="none" stroke="rgb(0,0,0)" d="M 2720,340 L 2720,220"/>
    <path fill="none" stroke="rgb(0,0,0)" d="M 2720,220 L 2880,230"/>
    <path fill="none" stroke="rgb(0,0,0)" d="M 2880,230 L 2930,230"/>
    <path fill="none" stroke="rgb(0,0,0)" d="M 2930,230 L 3150,240"/>
    <path fill="none" stroke="rgb(0,0,0)" d="M 3150,240 L 4170,560"/>
    <path fill="none" stroke="rgb(0,0,0)" d="M 4170,560 L 4220,720"/>
    <path fill="none" stroke="rgb(0,0,0)" d="M 4220,720 L 4040,570"/>
    <path fill="none" stroke="rgb(0,0,0)" d="M 4040,570 L 4090,310"/>
    <path fill="none" stroke="rgb(0,0,0)" d="M 4090,310 L 4290,170"/>
    <path fill="none" stroke="rgb(0,0,0)" d="M 4290,170 L 4130,210"/>
    <path fill="none" stroke="rgb(0,0,0)" d="M 4130,210 L 3990,400"/>
    <path fill="none" stroke="rgb(0,0,0)" d="M 3990,400 L 3840,430"/>
    <path fill="none" stroke="rgb(0,0,0)" d="M 3840,430 L 3700,460"/>
    <path fill="none" stroke="rgb(0,0,0)" d="M 3700,460 L 3600,460"/>
    <path fill="none" stroke="rgb(0,0,0)" d="M 3600,460 L 3660,150"/>
    <path fill="none" stroke="rgb(0,0,0)" d="M 3660,150 L 3670,400"/>
    <path fill="none" stroke="rgb(0,0,0)" d="M 3670,400 L 4090,470"/>
    <path fill="none" stroke="rgb(0,0,0)" d="M 4090,470 L 4100,680"/>
    <path fill="none" stroke="rgb(0,0,0)" d="M 4100,680 L 4150,740"/>
    <path fill="none" stroke="rgb(0,0,0)" d="M 4150,740 L 4200,600"/>
    <path fill="none" stroke="rgb(0,0,0)" d="M 4200,600 L 3990,390"/>
    <path fill="none" stroke="rgb(0,0,0)" d="M 3990,390 L 4130,360"/>
    <path fill="none" stroke="rgb(0,0,0)" d="M 4130,360 L 4160,180"/>
    <path fill="none" stroke="rgb(0,0,0)" d="M 4160,180 L 4150,180"/>
    <path fill="none" stroke="rgb(0,0,0)" d="M 4150,180 L 4240,150"/>
    <path fill="none" stroke="rgb(0,0,0)" d="M 4240,150 L 4170,310"/>
    <path fill="none" stroke="rgb(0,0,0)" d="M 4170,310 L 3700,380"/>
    <path fill="none" stroke="rgb(0,0,0)" d="M 3700,380 L 3640,270"/>
    <path fill="none" stroke="rgb(0,0,0)" d="M 3640,270 L 3640,170"/>
    <path fill="none" stroke="rgb(0,0,0)" d="M 3640,170 L 3640,240"/>
    <path fill="none" stroke="rgb(0,0,0)" d="M 3640,240 L 2940,170"/>
    <path fill="none" stroke="rgb(0,0,0)" d="M 2940,170 L 2670,210"/>
    <path fill="none" stroke="rgb(0,0,0)" d="M 2670,210 L 2720,730"/>
    <path fill="none" stroke="rgb(0,0,0)" d="M 2720,730 L 2750,490"/>
    <path fill="none" stroke="rgb(0,0,0)" d="M 2750,490 L 2780,340"/>
    <path fill="none" stroke="rgb(0,0,0)" d="M 2780,340 L 2650,560"/>
    <path fill="none" stroke="rgb(0,0,0)" d="M 2650,560 L 2760,630"/>
    <path fill="none" stroke="rgb(0,0,0)" d="M 2760,630 L 2660,700"/>
    <path fill="none" stroke="rgb(0,0,0)" d="M 2660,700 L 2790,680"/>
    <path fill="none" stroke="rgb(0,0,0)" d="M 2790,680 L 2750,740"/>
    <path fill="none" stroke="rgb(0,0,0)" d="M 2750,740 L 2730,280"/>
    <path fill="none" stroke="rgb(0,0,0)" d="M 2730,280 L 2800,200"/>
    <path fill="none" stroke="rgb(0,0,0)" d="M 2800,200 L 2740,170"/>
    <path fill="none" stroke="rgb(0,0,0)" d="M 2740,170 L 3150,270"/>
    <path fill="none" stroke="rgb(0,0,0)" d="M 3150,270 L 3310,200"/>
    <path fill="none" stroke="rgb(0,0,0)" d="M 3310,200 L 3390,730"/>
    <path fill="none" stroke="rgb(0,0,0)" d="M 3390,730 L 3350,740"/>
    <path fill="none" stroke="rgb(0,0,0)" d="M 3350,740 L 3310,670"/>
    <path fill="none" stroke="rgb(0,0,0)" d="M 3310,670 L 3350,390"/>
    <path fill="none" stroke="rgb(0,0,0)" d="M 3350,390 L 3380,180"/>
    <path fill="none" stroke="rgb(0,0,0)" d="M 3380,180 L 3120,160"/>
    <path fill="none" stroke="rgb(0,0,0)" d="M 3120,160 L 2980,180"/>
    <path fill="none" stroke="rgb(0,0,0)" d="M 2980,180 L 4190,640"/>
    <path fill="none" stroke="rgb(0,0,0)" d="M 4190,640 L 4250,730"/>
    <path fill="none" stroke="rgb(0,0,0)" d="M 4250,730 L 3910,420"/>
    <path fill="none" stroke="rgb(0,0,0)" d="M 3910,420 L 3890,480"/>
    <path fill="none" stroke="rgb(0,0,0)" d="M 3890,480 L 4080,400"/>
    <path fill="none" stroke="rgb(0,0,0)" d="M 4080,400 L 3610,310"/>
    <path fill="none" stroke="rgb(0,0,0)" d="M 3610,310 L 3680,500"/>
    <path fill="none" stroke="rgb(0,0,0)" d="M 3680,500 L 4290,210"/>
    <path fill="none" stroke="rgb(0,0,0)" d="M 4290,210 L 4090,200"/>
    <path fill="none" stroke="rgb(0,0,0)" d="M 4090,200 L 4050,250"/>
    <path fill="none" stroke="rgb(0,0,0)" d="M 4050,250 L 4020,330"/>
    <path fill="none" stroke="rgb(0,0,0)" d="M 4020,330 L 4080,620"/>
    <path fill="none" stroke="rgb(0,0,0)" d="M 4080,620 L 4110,560"/>
    <path fill="none" stroke="rgb(0,0,0)" d="M 4110,560 L 4300,700"/>
    <path fill="none" stroke="rgb(0,0,0)" d="M 4300,700 L 4250,680"/>
    <path fill="none" stroke="rgb(0,0,0)" d="M 4250,680 L 4250,720"/>
    <path fill="none" stroke="rgb(0,0,0)" d="M 4250,720 L 4130,670"/>
    <path fill="none" stroke="rgb(0,0,0)" d="M 4130,670 L 4160,710"/>
    <path fill="none" stroke="rgb(0,0,0)" d="M 4160,710 L 4110,740"/>
    <path fill="none" stroke="rgb(0,0,0)" d="M 4110,740 L 3600,120"/>
    <path fill="none" stroke="rgb(0,0,0)" d="M 3600,120 L 3690,260"/>
    <path fill="none" stroke="rgb(0,0,0)" d="M 3690,260 L 3610,250"/>
    <path fill="none" stroke="rgb(0,0,0)" d="M 3610,250 L 3730,440"/>
    <path fill="none" stroke="rgb(0,0,0)" d="M 3730,440 L 3640,450"/>
    <path fill="none" stroke="rgb(0,0,0)" d="M 3640,450 L 3570,480"/>
    <path fill="none" stroke="rgb(0,0,0)" d="M 3570,480 L 3580,400"/>
    <path fill="none" stroke="rgb(0,0,0)" d="M 3580,400 L 3800,500"/>
    <path fill="none" stroke="rgb(0,0,0)" d="M 3800,500 L 3710,320"/>
    <path fill="none" stroke="rgb(0,0,0)" d="M 3710,320 L 120,110"/>
    <path fill="none" stroke="rgb(0,0,0)" d="M 120,110 L 840,270"/>
    <path fill="none" stroke="rgb(0,0,0)" d="M 840,270 L 600,120"/>
    <path fill="none" stroke="rgb(0,0,0)" d="M 600,120 L 490,210"/>
    <path fill="none" stroke="rgb(0,0,0)" d="M 490,210 L 200,260"/>
    <path fill="none" stroke="rgb(0,0,0)" d="M 200,260 L 130,290"/>
    <path fill="none" stroke="rgb(0,0,0)" d="M 130,290 L 110,170"/>
    <path fill="none" stroke="rgb(0,0,0)" d="M 110,170 L 310,280"/>
    <path fill="none" stroke="rgb(0,0,0)" d="M 310,280 L 1640,290"/>
    <path fill="none" stroke="rgb(0,0,0)" d="M 1640,290 L 1700,250"/>
    <path fill="none" stroke="rgb(0,0,0)" d="M 1700,250 L 1540,100"/>
    <path fill="none" stroke="rgb(0,0,0)" d="M 1540,100 L 1530,150"/>
    <path fill="none" stroke="rgb(0,0,0)" d="M 1530,150 L 1650,170"/>
    <path fill="none" stroke="rgb(0,0,0)" d="M 1650,170 L 1730,100"/>
    <path fill="none" stroke="rgb(0,0,0)" d="M 1730,100 L 1060,110"/>
    <path fill="none" stroke="rgb(0,0,0)" d="M 1060,110 L 1110,680"/>
    <path fill="none" stroke="rgb(0,0,0)" d="M 1110,680 L 1090,430"/>
    <path fill="none" stroke="rgb(0,0,0)" d="M 1090,430 L 1010,630"/>
    <path fill="none" stroke="rgb(0,0,0)" d="M 1010,630 L 1010,330"/>
    <path fill="none" stroke="rgb(0,0,0)" d="M 1010,330 L 1220,240"/>
    <path fill="none" stroke="rgb(0,0,0)" d="M 1220,240 L 1400,290"/>
    <path fill="none" stroke="rgb(0,0,0)" d="M 1400,290 L 1400,230"/>
    <path fill="none" stroke="rgb(0,0,0)" d="M 1400,230 L 1450,240"/>
    <path fill="none" stroke="rgb(0,0,0)" d="M 1450,240 L 1540,270"/>
    <path fill="none" stroke="rgb(0,0,0)" d="M 1540,270 L 1590,260"/>
    <path fill="none" stroke="rgb(0,0,0)" d="M 1590,260 L 1450,180"/>
    <path fill="none" stroke="rgb(0,0,0)" d="M 1450,180 L 1740,150"/>
    <path fill="none" stroke="rgb(0,0,0)" d="M 1740,150 L 1700,240"/>
    <path fill="none" stroke="rgb(0,0,0)" d="M 1700,240 L 1660,260"/>
    <path fill="none" stroke="rgb(0,0,0)" d="M 1660,260 L 2270,400"/>
    <path fill="none" stroke="rgb(0,0,0)" d="M 2270,400 L 2400,630"/>
    <path fill="none" stroke="rgb(0,0,0)" d="M 2400,630 L 2330,740"/>
    <path fill="none" stroke="rgb(0,0,0)" d="M 2330,740 L 2360,730"/>
    <path fill="none" stroke="rgb(0,0,0)" d="M 2360,730 L 2330,440"/>
    <path fill="none" stroke="rgb(0,0,0)" d="M 2330,440 L 2000,160"/>
    <path fill="none" stroke="rgb(0,0,0)" d="M 2000,160 L 2030,180"/>
    <path fill="none" stroke="rgb(0,0,0)" d="M 2030,180 L 1880,750"/>
    <path fill="none" stroke="rgb(0,0,0)" d="M 1880,750 L 2050,270"/>
    <path fill="none" stroke="rgb(0,0,0)" d="M 2050,270 L 1750,610"/>
    <path fill="none" stroke="rgb(0,0,0)" d="M 1750,610 L 1760,710"/>
    <path fill="none" stroke="rgb(0,0,0)" d="M 1760,710 L 1970,520"/>
    <path fill="none" stroke="rgb(0,0,0)" d="M 1970,520 L 2010,410"/>
    <path fill="none" stroke="rgb(0,0,0)" d="M 2010,410 L 2040,400"/>
    <path fill="none" stroke="rgb(0,0,0)" d="M 2040,400 L 2030,460"/>
    <path fill="none" stroke="rgb(0,0,0)" d="M 2030,460 L 1700,720"/>
    <path fill="none" stroke="rgb(0,0,0)" d="M 1700,720 L 1860,580"/>
    <path fill="none" stroke="rgb(0,0,0)" d="M 1860,580 L 1890,400"/>
    <path fill="none" stroke="rgb(0,0,0)" d="M 1890,400 L 1840,550"/>
    <path fill="none" stroke="rgb(0,0,0)" d="M 1840,550 L 1810,700"/>
    <path fill="none" stroke="rgb(0,0,0)" d="M 1810,700 L 1870,690"/>
    <path fill="none" stroke="rgb(0,0,0)" d="M 1870,690 L 1970,580"/>
    <path fill="none" stroke="rgb(0,0,0)" d="M 1970,580 L 2170,130"/>
    <path fill="none" stroke="rgb(0,0,0)" d="M 2170,130 L 2140,150"/>
    <path fill="none" stroke="rgb(0,0,0)" d="M 2140,150 L 2110,180"/>
    <path fill="none" stroke="rgb(0,0,0)" d="M 2110,180 L 2130,130"/>
    <path fill="none" stroke="rgb(0,0,0)" d="M 2130,130 L 1980,200"/>
    <path fill="none" stroke="rgb(0,0,0)" d="M 1980,200 L 2270,480"/>
    <path fill="none" stroke="rgb(0,0,0)" d="M 2270,480 L 2250,570"/>
    <path fill="none" stroke="rgb(0,0,0)" d="M 2250,570 L 2420,690"/>
    <path fill="none" stroke="rgb(0,0,0)" d="M 2420,690 L 2350,450"/>
    <path fill="none" stroke="rgb(0,0,0)" d="M 2350,450 L 2340,620"/>
    <path fill="none" stroke="rgb(0,0,0)" d="M 2340,620 L 2180,420"/>
    <path fill="none" stroke="rgb(0,0,0)" d="M 2180,420 L 2280,310"/>
    <path fill="none" stroke="rgb(0,0,0)" d="M 2280,310 L 2070,100"/>
    <path fill="none" stroke="rgb(0,0,0)" d="M 2070,100 L 2020,120"/>
    <path fill="none" stroke="rgb(0,0,0)" d="M 2020,120 L 3310,140"/>
    <path fill="none" stroke="rgb(0,0,0)" d="M 3310,140 L 3400,150"/>
    <path fill="none" stroke="rgb(0,0,0)" d="M 3400,150 L 3400,770"/>
    <path fill="none" stroke="rgb(0,0,0)" d="M 3400,770 L 3280,300"/>
    <path fill="none" stroke="rgb(0,0,0)" d="M 3280,300 L 3250,690"/>
    <path fill="none" stroke="rgb(0,0,0)" d="M 3250,690 L 3400,410"/>
    <path fill="none" stroke="rgb(0,0,0)" d="M 3400,410 L 3380,420"/>
    <path fill="none" stroke="rgb(0,0,0)" d="M 3380,420 L 3320,380"/>
    <path fill="none" stroke="rgb(0,0,0)" d="M 3320,380 L 3410,580"/>
    <path fill="none" stroke="rgb(0,0,0)" d="M 3410,580 L 3440,660"/>
    <path fill="none" stroke="rgb(0,0,0)" d="M 3440,660 L 3330,700"/>
    <path fill="none" stroke="rgb(0,0,0)" d="M 3330,700 L 3310,600"/>
    <path fill="none" stroke="rgb(0,0,0)" d="M 3310,600 L 3420,510"/>
    <path fill="none" stroke="rgb(0,0,0)" d="M 3420,510 L 3340,180"/>
    <path fill="none" stroke="rgb(0,0,0)" d="M 3340,180 L 3240,220"/>
    <path fill="none" stroke="rgb(0,0,0)" d="M 3240,220 L 3230,170"/>
    <path fill="none" stroke="rgb(0,0,0)" d="M 3230,170 L 3240,160"/>
    <path fill="none" stroke="rgb(0,0,0)" d="M 3240,160 L 2620,190"/>
    <path fill="none" stroke="rgb(0,0,0)" d="M 2620,190 L 2700,710"/>
    <path fill="none" stroke="rgb(0,0,0)" d="M 2700,710 L 2660,600"/>
    <path fill="none" stroke="rgb(0,0,0)" d="M 2660,600 L 2640,730"/>
    <path fill="none" stroke="rgb(0,0,0)" d="M 2640,730 L 2730,750"/>
    <path fill="none" stroke="rgb(0,0,0)" d="M 2730,750 L 2780,240"/>
    <path fill="none" stroke="rgb(0,0,0)" d="M 2780,240 L 2930,200"/>
    <path fill="none" stroke="rgb(0,0,0)" d="M 2930,200 L 3120,200"/>
    <path fill="none" stroke="rgb(0,0,0)" d="M 3120,200 L 2980,260"/>
    <path fill="none" stroke="rgb(0,0,0)" d="M 2980,260 L 2640,300"/>
    <path fill="none" stroke="rgb(0,0,0)" d="M 2640,300 L 2610,600"/>
    <path fill="none" stroke="rgb(0,0,0)" d="M 2610,600 L 2740,380"/>
    <path fill="none" stroke="rgb(0,0,0)" d="M 2740,380 L 2610,400"/>
    <path fill="none" stroke="rgb(0,0,0)" d="M 2610,400 L 2790,510"/>
    <path fill="none" stroke="rgb(0,0,0)" d="M 2790,510 L 2780,750"/>
    <path fill="none" stroke="rgb(0,0,0)" d="M 2780,750 L 2260,680"/>
    <path fill="none" stroke="rgb(0,0,0)" d="M 2260,680 L 2150,310"/>
    <path fill="none" stroke="rgb(0,0,0)" d="M 2150,310 L 2040,270"/>
    <path fill="none" stroke="rgb(0,0,0)" d="M 2040,270 L 1840,540"/>
    <path fill="none" stroke="rgb(0,0,0)" d="M 1840,540 L 1930,510"/>
    <path fill="none" stroke="rgb(0,0,0)" d="M 1930,510 L 1920,650"/>
    <path fill="none" stroke="rgb(0,0,0)" d="M 1920,650 L 1810,770"/>
    <path fill="none" stroke="rgb(0,0,0)" d="M 1810,770 L 140,460"/>
    <path fill="none" stroke="rgb(0,0,0)" d="M 140,460 L 110,770"/>
    <path fill="none" stroke="rgb(0,0,0)" d="M 110,770 L 270,650"/>
    <path fill="none" stroke="rgb(0,0,0)" d="M 270,650 L 110,490"/>
    <path fill="none" stroke="rgb(0,0,0)" d="M 110,490 L 840,490"/>
    <path fill="none" stroke="rgb(0,0,0)" d="M 840,490 L 730,560"/>
    <path fill="none" stroke="rgb(0,0,0)" d="M 730,560 L 500,520"/>
    <path fill="none" stroke="rgb(0,0,0)" d="M 500,520 L 480,560"/>
    <path fill="none" stroke="rgb(0,0,0)" d="M 480,560 L 220,500"/>
    <path fill="none" stroke="rgb(0,0,0)" d="M 220,500 L 380,590"/>
    <path fill="none" stroke="rgb(0,0,0)" d="M 380,590 L 140,660"/>
    <path fill="none" stroke="rgb(0,0,0)" d="M 140,660 L 190,750"/>
    <path fill="none" stroke="rgb(0,0,0)" d="M 190,750 L 230,720"/>
    <path fill="none" stroke="rgb(0,0,0)" d="M 230,720 L 190,730"/>
    <path fill="none" stroke="rgb(0,0,0)" d="M 190,730 L 120,560"/>
    <path fill="none" stroke="rgb(0,0,0)" d="M 120,560 L 820,180"/>
    <path fill="none" stroke="rgb(0,0,0)" d="M 820,180 L 800,190"/>
    <path fill="none" stroke="rgb(0,0,0)" d="M 800,190 L 810,140"/>
    <path fill="none" stroke="rgb(0,0,0)" d="M 810,140 L 530,170"/>
    <path fill="none" stroke="rgb(0,0,0)" d="M 530,170 L 380,220"/>
    <path fill="none" stroke="rgb(0,0,0)" d="M 380,220 L 200,280"/>
    <path fill="none" stroke="rgb(0,0,0)" d="M 200,280 L 460,110"/>
    <path fill="none" stroke="rgb(0,0,0)" d="M 460,110 L 760,120"/>
    <path fill="none" stroke="rgb(0,0,0)" d="M 760,120 L 660,220"/>
    <path fill="none" stroke="rgb(0,0,0)" d="M 660,220 L 530,210"/>
    <path fill="none" stroke="rgb(0,0,0)" d="M 530,210 L 670,140"/>
    <path fill="none" stroke="rgb(0,0,0)" d="M 670,140 L 810,220"/>
    <path fill="none" stroke="rgb(0,0,0)" d="M 810,220 L 600,250"/>
    <path fill="none" stroke="rgb(0,0,0)" d="M 600,250 L 760,570"/>
    <path fill="none" stroke="rgb(0,0,0)" d="M 760,570 L 790,450"/>
    <path fill="none" stroke="rgb(0,0,0)" d="M 790,450 L 650,540"/>
    <path fill="none" stroke="rgb(0,0,0)" d="M 650,540 L 1350,190"/>
    <path fill="none" stroke="rgb(0,0,0)" d="M 1350,190 L 1370,230"/>
    <path fill="none" stroke="rgb(0,0,0)" d="M 1370,230 L 1170,220"/>
    <path fill="none" stroke="rgb(0,0,0)" d="M 1170,220 L 1190,200"/>
    <path fill="none" stroke="rgb(0,0,0)" d="M 1190,200 L 1000,730"/>
    <path fill="none" stroke="rgb(0,0,0)" d="M 1000,730 L 1130,710"/>
    <path fill="none" stroke="rgb(0,0,0)" d="M 1130,710 L 1110,780"/>
    <path fill="none" stroke="rgb(0,0,0)" d="M 1110,780 L 1150,350"/>
    <path fill="none" stroke="rgb(0,0,0)" d="M 1150,350 L 1090,770"/>
    <path fill="none" stroke="rgb(0,0,0)" d="M 1090,770 L 1040,790"/>
    <path fill="none" stroke="rgb(0,0,0)" d="M 1040,790 L 1040,100"/>
    <path fill="none" stroke="rgb(0,0,0)" d="M 1040,100 L 1040,130"/>
    <path fill="none" stroke="rgb(0,0,0)" d="M 1040,130 L 1350,120"/>
    <path fill="none" stroke="rgb(0,0,0)" d="M 1350,120 L 1480,120"/>
    <path fill="none" stroke="rgb(0,0,0)" d="M 1480,120 L 1450,260"/>
    <path fill="none" stroke="rgb(0,0,0)" d="M 1450,260 L 1280,260"/>
    <path fill="none" stroke="rgb(0,0,0)" d="M 1280,260 L 1710,150"/>
    <path fill="none" stroke="rgb(0,0,0)" d="M 1710,150 L 3730,100"/>
    <path fill="none" stroke="rgb(0,0,0)" d="M 3730,100 L 3710,150"/>
    <path fill="none" stroke="rgb(0,0,0)" d="M 3710,150 L 3590,290"/>
    <path fill="none" stroke="rgb(0,0,0)" d="M 3590,290 L 3600,360"/>
    <path fill="none" stroke="rgb(0,0,0)" d="M 3600,360 L 4130,520"/>
    <path fill="none" stroke="rgb(0,0,0)" d="M 4130,520 L 4050,490"/>
    <path fill="none" stroke="rgb(0,0,0)" d="M 4050,490 L 4130,170"/>
    <path fill="none" stroke="rgb(0,0,0)" d="M 4130,170 L 4160,100"/>
    <path fill="none" stroke="rgb(0,0,0)" d="M 4160,100 L 4330,130"/>
    <path fill="none" stroke="rgb(0,0,0)" d="M 4330,130 L 4310,170"/>
    <path fill="none" stroke="rgb(0,0,0)" d="M 4310,170 L 4270,160"/>
    <path fill="none" stroke="rgb(0,0,0)" d="M 4270,160 L 4200,280"/>
    <path fill="none" stroke="rgb(0,0,0)" d="M 4200,280 L 4110,370"/>
    <path fill="none" stroke="rgb(0,0,0)" d="M 4110,370 L 4240,180"/>
    <path fill="none" stroke="rgb(0,0,0)" d="M 4240,180 L 3990,310"/>
    <path fill="none" stroke="rgb(0,0,0)" d="M 3990,310 L 4010,560"/>
    <path fill="none" stroke="rgb(0,0,0)" d="M 4010,560 L 3840,450"/>
    <path fill="none" stroke="rgb(0,0,0)" d="M 3840,450 L 3740,540"/>
    <path fill="none" stroke="rgb(0,0,0)" d="M 3740,540 L 3670,430"/>
    <path fill="none" stroke="rgb(0,0,0)" d="M 3670,430 L 3570,180"/>
    <path fill="none" stroke="rgb(0,0,0)" d="M 3570,180 L 3650,180"/>
    <path fill="none" stroke="rgb(0,0,0)" d="M 3650,180 L 3740,230"/>
    <path fill="none" stroke="rgb(0,0,0)" d="M 3740,230 L 3710,260"/>
    <path fill="none" stroke="rgb(0,0,0)" d="M 3710,260 L 3720,260"/>
    <path fill="none" stroke="rgb(0,0,0)" d="M 3720,260 L 4320,780"/>
    <path fill="none" stroke="rgb(0,0,0)" d="M 4320,780 L 4160,720"/>
    <path fill="none" stroke="rgb(0,0,0)" d="M 4160,720 L 4060,350"/>
    <path fill="none" stroke="rgb(0,0,0)" d="M 4060,350 L 4010,260"/>
    <path fill="none" stroke="rgb(0,0,0)" d="M 4010,260 L 4100,270"/>
    <path fill="none" stroke="rgb(0,0,0)" d="M 4100,270 L 4140,320"/>
    <path fill="none" stroke="rgb(0,0,0)" d="M 4140,320 L 4350,100"/>
    <path fill="none" stroke="rgb(0,0,0)" d="M 4350,100 L 4220,140"/>
    <path fill="none" stroke="rgb(0,0,0)" d="M 4220,140 L 4050,210"/>
    <path fill="none" stroke="rgb(0,0,0)" d="M 4050,210 L 3220,760"/>
    <path fill="none" stroke="rgb(0,0,0)" d="M 3220,760 L 3430,110"/>
    <path fill="none" stroke="rgb(0,0,0)" d="M 3430,110 L 3280,210"/>
    <path fill="none" stroke="rgb(0,0,0)" d="M 3280,210 L 3250,190"/>
    <path fill="none" stroke="rgb(0,0,0)" d="M 3250,190 L 3280,570"/>
    <path fill="none" stroke="rgb(0,0,0)" d="M 3280,570 L 3430,380"/>
    <path fill="none" stroke="rgb(0,0,0)" d="M 3430,380 L 3400,220"/>
    <path fill="none" stroke="rgb(0,0,0)" d="M 3400,220 L 3430,290"/>
    <path fill="none" stroke="rgb(0,0,0)" d="M 3430,290 L 2640,210"/>
    <path fill="none" stroke="rgb(0,0,0)" d="M 2640,210 L 2870,190"/>
    <path fill="none" stroke="rgb(0,0,0)" d="M 2870,190 L 2930,160"/>
    <path fill="none" stroke="rgb(0,0,0)" d="M 2930,160 L 2650,140"/>
    <path fill="none" stroke="rgb(0,0,0)" d="M 2650,140 L 2660,700"/>
    <path fill="none" stroke="rgb(0,0,0)" d="M 2660,700 L 2770,390"/>
    <path fill="none" stroke="rgb(0,0,0)" d="M 2770,390 L 2390,780"/>
    <path fill="none" stroke="rgb(0,0,0)" d="M 2390,780 L 2270,610"/>
    <path fill="none" stroke="rgb(0,0,0)" d="M 2270,610 L 2360,530"/>
    <path fill="none" stroke="rgb(0,0,0)" d="M 2360,530 L 2310,500"/>
    <path fill="none" stroke="rgb(0,0,0)" d="M 2310,500 L 2320,500"/>
    <path fill="none" stroke="rgb(0,0,0)" d="M 2320,500 L 1970,280"/>
    <path fill="none" stroke="rgb(0,0,0)" d="M 1970,280 L 1900,310"/>
    <path fill="none" stroke="rgb(0,0,0)" d="M 1900,310 L 1870,710"/>
    <path fill="none" stroke="rgb(0,0,0)" d="M 1870,710 L 1710,710"/>
    <path fill="none" stroke="rgb(0,0,0)" d="M 1710,710 L 1840,590"/>
    <path fill="none" stroke="rgb(0,0,0)" d="M 1840,590 L 1880,350"/>
    <path fill="none" stroke="rgb(0,0,0)" d="M 1880,350 L 2290,310"/>
    <path fill="none" stroke="rgb(0,0,0)" d="M 2290,310 L 2080,210"/>
    <path fill="none" stroke="rgb(0,0,0)" d="M 2080,210 L 2290,280"/>
    <path fill="none" stroke="rgb(0,0,0)" d="M 2290,280 L 2240,170"/>
    <path fill="none" stroke="rgb(0,0,0)" d="M 2240,170 L 50,150"/>
    <path fill="none" stroke="rgb(0,0,0)" d="M 50,150 L 170,280"/>
    <path fill="none" stroke="rgb(0,0,0)" d="M 170,280 L 240,130"/>
    <path fill="none" stroke="rgb(0,0,0)" d="M 240,130 L 420,100"/>
    <path fill="none" stroke="rgb(0,0,0)" d="M 420,100 L 430,260"/>
    <path fill="none" stroke="rgb(0,0,0)" d="M 430,260 L 480,250"/>
    <path fill="none" stroke="rgb(0,0,0)" d="M 480,250 L 190,240"/>
    <path fill="none" stroke="rgb(0,0,0)" d="M 190,240 L 90,280"/>
    <path fill="none" stroke="rgb(0,0,0)" d="M 90,280 L 650,660"/>
    <path fill="none" stroke="rgb(0,0,0)" d="M 650,660 L 860,540"/>
    <path fill="none" stroke="rgb(0,0,0)" d="M 860,540 L 810,620"/>
    <path fill="none" stroke="rgb(0,0,0)" d="M 810,620 L 450,460"/>
    <path fill="none" stroke="rgb(0,0,0)" d="M 450,460 L 100,620"/>
   </g>
  </g>
 </g>
</svg>