<?xml version="1.0" encoding="UTF-8"?>

<svg version="1.2" baseProfile="tiny" viewBox="0 0 20108 25400" preserveAspectRatio="xMidYMid" fill-rule="evenodd" clip-path="url(#presentation_clip_path)" stroke-width="28.222" stroke-linejoin="round" xmlns="http://www.w3.org/2000/svg" xmlns:xlink="http://www.w3.org/1999/xlink" xmlns:draw="urn:oasis:names:tc:opendocument:xmlns:drawing:1.0" xmlns:presentation="urn:oasis:names:tc:opendocument:xmlns:presentation:1.0" xmlns:smil="urn:oasis:names:tc:opendocument:xmlns:smil-compatible:1.0" xmlns:anim="urn:oasis:names:tc:opendocument:xmlns:animation:1.0" xml:space="preserve">
 <defs>
  <clipPath id="presentation_clip_path" clipPathUnits="userSpaceOnUse">
   <rect x="0" y="0" width="20108" height="25400"/>
  </clipPath>
 </defs>
 <g id="id2" class="Master_Slide" clip-path="url(#presentation_clip_path)">
  <g id="bg-id2" visibility="visible" class="Background">
   <rect fill="none" stroke="none" x="0" y="0" width="20108" height="25400"/>
  </g>
  <g id="bo-id2" visibility="visible" class="BackgroundObjects"/>
 </g>
 <g id="id1" class="Slide" visibility="visible" clip-path="url(#presentation_clip_path)">
  <g class="Group">
   <g class="com.sun.star.drawing.PolyPolygonShape">
    <g>
     <path fill="none" stroke="rgb(128,128,128)" d="M 6025,1955 L 5983,1958 5940,1965 5896,1976 5852,1991 5806,2012 5759,2037 5710,2068 5660,2105 5537,2062 5415,2029 5354,2017 5294,2009 5234,2004 5175,2004 5116,2009 5058,2018 5000,2032 4943,2052 4887,2078 4832,2110 4777,2148 4723,2193 4570,2180 4504,2178 4443,2181 4387,2186 4337,2194 4291,2206 4250,2219 4212,2235 4178,2253 4148,2273 4119,2295 4094,2318 4070,2342 4027,2392 3868,2383 3739,2383 3667,2387 3591,2396 3513,2410 3434,2429 3355,2456 3278,2490 3204,2533 3134,2586 3069,2649 3011,2724 2881,2714 2762,2718 2655,2734 2560,2761 2476,2799 2404,2846 2372,2873 2343,2901 2317,2932 2294,2964 2274,2999 2256,3034 2230,3109 2216,3190 2213,3273 2222,3360 2242,3449 2273,3539 2316,3629 2261,3715 2212,3804 2191,3850 2174,3897 2161,3946 2153,3998 2151,4051 2155,4108 2167,4167 2187,4230 2216,4297 2254,4368 2302,4443 2361,4523 2341,4568 2325,4615 2313,4662 2307,4710 2305,4758 2308,4807 2316,4857 2328,4908 2345,4959 2368,5012 2395,5066 2427,5120 2505,5233 2604,5351 2592,5414 2585,5474 2584,5533 2587,5589 2595,5644 2607,5696 2624,5746 2645,5795 2670,5841 2699,5886 2732,5929 2768,5971 2808,6011 2851,6050 2945,6123 2942,6209 2950,6290 2967,6366 2994,6438 3027,6505 3067,6568 3112,6627 3160,6681 3210,6731 3261,6777 3362,6855 3519,6962 3543,7063 3559,7113 3577,7162 3599,7210 3626,7257 3657,7302 3693,7347 3735,7390 3783,7431 3839,7470 3901,7508 3972,7543 4051,7576 4139,7607 4237,7635 4257,7707 4282,7772 4312,7830 4346,7882 4385,7928 4427,7969 4472,8005 4521,8037 4572,8065 4626,8089 4739,8131 4976,8197 4589,8438 4225,8709 4055,8859 3893,9021 3742,9195 3602,9385 3474,9590 3360,9813 3261,10055 3178,10317 3111,10601 3062,10908 3033,11239 3023,11597 2868,11873 2644,12029 2426,12221 2218,12444 2026,12697 1851,12976 1700,13278 1574,13600 1479,13939 1417,14291 1394,14655 1413,15026 1477,15402 1592,15780 1760,16157 1985,16529 2272,16894 2317,17112 2368,17317 2483,17697 2736,18407 2798,18756 2888,19082 3003,19384 3139,19663 3292,19920 3459,20154 3635,20366 3817,20557 4001,20726 4183,20875 4360,21002 4527,21110 4682,21197 4820,21265 4938,21313 5031,21342 5512,21693 5764,21862 6026,22025 6301,22181 6592,22327 6900,22464 7227,22589 7550,22893 7878,23148 8044,23259 8211,23358 8379,23446 8549,23524 8719,23591 8890,23649 9061,23696 9234,23735 9580,23784 9927,23800 9967,23800 10315,23784 10661,23735 10833,23696 11005,23649 11176,23591 11346,23524 11515,23446 11684,23358 11851,23259 12017,23148 12345,22893 12667,22589 12995,22464 13303,22327 13593,22181 13868,22025 14131,21862 14382,21693 14863,21342 14956,21313 15074,21265 15212,21197 15367,21110 15535,21002 15712,20875 15894,20726 16078,20557 16260,20366 16436,20154 16603,19920 16756,19663 16892,19384 17007,19082 17097,18756 17159,18407 17411,17697 17526,17317 17577,17112 17622,16894 17909,16529 18135,16157 18303,15780 18417,15402 18481,15026 18500,14655 18477,14291 18416,13939 18320,13600 18195,13278 18043,12976 17869,12697 17676,12444 17468,12221 17251,12029 17026,11873 16872,11597 16862,11239 16833,10908 16784,10601 16717,10317 16634,10055 16534,9813 16420,9590 16293,9385 16153,9195 16001,9021 15840,8859 15669,8709 15305,8438 14918,8197 15156,8131 15269,8089 15322,8065 15374,8037 15422,8005 15468,7969 15510,7928 15549,7882 15583,7830 15613,7772 15637,7707 15657,7635 15755,7607 15843,7576 15922,7543 15993,7508 16056,7470 16111,7431 16159,7390 16201,7347 16238,7302 16269,7257 16295,7210 16317,7162 16336,7113 16352,7063 16376,6962 16533,6855 16633,6777 16684,6731 16735,6681 16783,6627 16827,6568 16867,6505 16901,6438 16927,6366 16944,6290 16952,6209 16949,6123 17044,6050 17087,6011 17127,5971 17163,5929 17196,5886 17224,5841 17250,5795 17271,5746 17287,5696 17300,5644 17308,5589 17311,5533 17310,5474 17303,5414 17291,5351 17390,5233 17468,5120 17500,5066 17527,5012 17550,4959 17567,4908 17580,4857 17587,4807 17590,4758 17588,4710 17582,4662 17570,4615 17554,4568 17534,4523 17593,4443 17641,4368 17679,4297 17708,4230 17728,4167 17739,4108 17744,4051 17742,3998 17734,3946 17721,3897 17704,3850 17683,3804 17633,3715 17579,3629 17622,3539 17653,3449 17673,3360 17682,3273 17679,3190 17664,3109 17638,3034 17621,2999 17600,2964 17577,2932 17551,2901 17522,2873 17491,2846 17418,2799 17334,2761 17239,2734 17132,2718 17013,2714 16883,2724 16825,2649 16760,2586 16690,2533 16616,2490 16539,2456 16460,2429 16381,2410 16303,2396 16227,2387 16155,2383 16026,2383 15867,2392 15824,2342 15801,2318 15775,2295 15747,2273 15716,2253 15682,2235 15645,2219 15603,2206 15558,2194 15507,2186 15452,2181 15391,2178 15324,2180 15172,2193 15118,2148 15063,2110 15007,2078 14951,2052 14894,2032 14836,2018 14778,2009 14720,2004 14661,2004 14601,2009 14541,2017 14480,2029 14358,2062 14235,2105 14163,2054 14093,2014 14027,1985 13962,1966 13900,1957 13840,1955 13781,1959 13724,1970 13668,1986 13613,2005 13504,2050 13395,2097 13286,2138 13200,2113 13123,2096 13053,2086 12990,2083 12932,2085 12879,2092 12831,2104 12786,2119 12468,2282 12375,2265 12290,2256 12211,2255 12140,2260 12074,2271 12013,2288 11957,2310 11905,2337 11855,2368 11809,2403 11720,2481 11544,2662 11255,2656 11113,2748 10980,2850 10855,2960 10740,3077 10633,3200 10534,3327 10359,3589 10215,3852 10099,4105 10010,4337 9947,4537 9883,4337 9794,4105 9679,3852 9535,3589 9361,3327 9262,3200 9155,3077 9039,2960 8915,2850 8782,2748 8640,2656 8351,2662 8174,2481 8086,2403 8039,2368 7990,2337 7937,2310 7881,2288 7821,2271 7755,2260 7683,2255 7605,2256 7520,2265 7427,2282 7109,2119 7064,2104 7015,2092 6963,2085 6905,2083 6841,2086 6772,2096 6694,2113 6610,2138 6537,2112 6466,2082 6323,2020 6251,1993 6178,1972 6140,1964 6102,1958 6064,1955 6025,1955"/>
    </g>
   </g>
   <g class="com.sun.star.drawing.PolyPolygonShape">
    <g>
     <path fill="none" stroke="rgb(128,128,128)" d="M 4468,3982 L 5866,4746 6452,5102 6968,5442 7418,5765 7806,6075 8134,6370 8408,6652 8329,6892 8219,7103 8084,7286 7927,7445 7751,7581 7560,7695 7358,7789 7149,7865 6936,7924 6724,7969 6314,8023 5950,8039 5660,8032 5709,8008 5754,7983 5797,7956 5836,7927 5853,7912 5870,7895 5886,7879 5900,7861 5912,7843 5924,7824 5933,7804 5942,7783 5925,7773 5906,7764 5863,7749 5811,7738 5752,7729 5463,7706 5298,7690 5129,7662 5044,7642 4962,7616 4882,7585 4805,7546 4859,7534 4906,7521 4948,7506 4967,7498 4984,7488 5001,7478 5017,7467 5033,7454 5047,7441 5062,7425 5076,7409 5103,7370 4817,7280 4537,7187 4406,7135 4284,7079 4174,7016 4123,6981 4076,6945 4173,6948 4221,6949 4271,6945 4297,6942 4323,6936 4350,6929 4377,6920 4406,6908 4435,6894 4465,6877 4496,6857 3983,6589 3859,6516 3738,6436 3623,6348 3514,6249 3645,6246 3709,6243 3768,6239 3822,6231 3846,6226 3869,6220 3889,6213 3906,6205 3921,6195 3927,6189 3933,6184 3709,6035 3604,5958 3503,5879 3407,5798 3315,5715 3227,5630 3143,5543 3229,5552 3303,5556 3365,5555 3418,5551 3441,5548 3462,5543 3481,5538 3498,5533 3513,5527 3527,5520 3540,5512 3552,5504 3181,5156 3092,5066 3011,4972 2973,4923 2939,4872 2907,4820 2879,4765 2946,4787 3012,4804 3076,4815 3106,4819 3137,4821 3166,4820 3195,4818 3222,4814 3249,4808 3275,4800 3300,4789 3325,4775 3348,4759 3330,4726 3306,4695 3278,4663 3245,4632 3083,4497 2991,4414 2944,4367 2898,4316 2853,4259 2810,4197 2768,4129 2730,4053 2873,4067 3005,4076 3061,4076 3085,4075 3108,4073 3127,4070 3143,4066 3150,4063 3156,4060 3162,4057 3166,4053 3130,3924 3088,3808 3042,3703 2993,3607 2940,3519 2886,3435 2774,3276 3441,3269 3691,3261 3731,3257 3760,3253 3770,3250 3776,3248 3778,3246 3779,3246 3779,3245 3779,3244 3779,3243 3779,3243 3779,3242 3524,2983 3599,2966 3675,2953 3750,2945 3825,2942 3973,2946 4118,2963 4257,2989 4391,3022 4633,3093 4655,3073 4664,3063 4671,3052 4677,3042 4682,3031 4685,3020 4687,3009 4688,2998 4687,2987 4686,2975 4683,2964 4675,2941 4662,2917 4647,2893 4628,2869 4582,2819 4528,2769 4468,2718 4718,2758 4955,2810 5181,2874 5396,2949 5408,2937 5419,2924 5427,2912 5434,2899 5438,2887 5441,2874 5442,2861 5441,2849 5439,2836 5435,2824 5430,2811 5424,2799 5408,2773 5388,2748 5180,2547 5364,2586 5523,2629 5660,2674 5780,2722 5885,2772 5980,2823 6151,2928 6178,2899 6197,2871 6205,2857 6211,2843 6215,2830 6219,2816 6220,2803 6221,2789 6221,2776 6219,2763 6213,2736 6202,2710 6189,2685 6173,2659 6136,2609 6052,2508 6192,2565 6317,2626 6428,2689 6528,2755 6620,2823 6706,2892 6869,3032 6926,2960 6940,2942 6952,2923 6963,2902 6972,2880 6978,2857 6982,2832 6982,2804 6978,2774 6970,2742 6958,2706 6941,2667 6918,2624 7021,2686 7117,2751 7207,2819 7291,2889 7369,2961 7441,3036 7508,3113 7570,3193 7600,3171 7624,3149 7644,3126 7659,3103 7671,3078 7679,3053 7684,3028 7687,3002 7688,2976 7687,2949 7682,2896 7677,2842 7675,2789 7780,2880 7876,2971 8052,3156 8381,3529 8389,3522 8397,3513 8406,3502 8414,3489 8422,3475 8430,3459 8445,3421 8460,3376 8474,3325 8502,3204 8635,3342 8772,3502 8907,3680 9038,3873 9159,4078 9267,4292 9358,4512 9428,4735 9473,4958 9489,5178 9485,5286 9472,5392 9450,5496 9419,5597 9377,5695 9324,5790 9260,5881 9185,5968 9097,6050 8997,6127 8883,6199 8756,6266 8288,5901 7799,5562 7289,5246 6760,4952 6213,4680 5648,4429 5066,4196 4468,3982"/>
    </g>
   </g>
   <g class="com.sun.star.drawing.PolyPolygonShape">
    <g>
     <path fill="none" stroke="rgb(128,128,128)" d="M 15473,3982 L 14075,4746 13489,5102 12973,5442 12523,5765 12135,6075 11807,6370 11533,6652 11612,6892 11721,7103 11857,7286 12014,7445 12190,7581 12381,7695 12583,7789 12792,7865 13005,7924 13217,7969 13627,8023 13992,8039 14281,8032 14233,8008 14187,7983 14144,7956 14106,7927 14088,7912 14071,7895 14056,7879 14042,7861 14029,7843 14017,7824 14008,7804 13999,7783 14016,7773 14034,7764 14078,7749 14130,7738 14189,7729 14478,7706 14643,7690 14812,7662 14896,7642 14979,7616 15059,7585 15136,7546 15082,7534 15035,7521 14993,7506 14974,7498 14957,7488 14940,7478 14924,7467 14908,7454 14894,7441 14879,7425 14866,7409 14839,7370 15125,7280 15404,7187 15535,7135 15656,7079 15767,7016 15818,6981 15865,6945 15769,6948 15720,6949 15670,6945 15645,6942 15619,6936 15592,6929 15564,6920 15536,6908 15507,6894 15477,6877 15446,6857 15959,6589 16083,6516 16204,6436 16319,6348 16428,6249 16296,6246 16233,6243 16173,6239 16119,6231 16095,6226 16072,6220 16053,6213 16035,6205 16020,6195 16014,6189 16008,6184 16232,6035 16337,5958 16438,5879 16535,5798 16626,5715 16714,5630 16797,5543 16712,5552 16638,5556 16576,5555 16523,5551 16500,5548 16480,5543 16461,5538 16443,5533 16428,5527 16414,5520 16401,5512 16389,5504 16761,5156 16849,5066 16930,4972 16968,4923 17002,4872 17034,4820 17062,4765 16995,4787 16929,4804 16866,4815 16835,4819 16805,4821 16775,4820 16746,4818 16719,4814 16692,4808 16666,4800 16640,4789 16616,4775 16593,4759 16611,4726 16634,4695 16663,4663 16696,4632 16858,4497 16950,4414 16997,4367 17043,4316 17088,4259 17131,4197 17172,4129 17211,4053 17068,4067 16937,4076 16881,4076 16856,4075 16834,4073 16815,4070 16798,4066 16791,4063 16785,4060 16780,4057 16776,4053 16812,3924 16853,3808 16899,3703 16949,3607 17001,3519 17055,3435 17167,3276 16500,3269 16250,3261 16210,3257 16181,3253 16172,3250 16165,3248 16163,3246 16163,3246 16162,3245 16162,3244 16162,3243 16163,3243 16163,3242 16417,2983 16341,2966 16266,2953 16191,2945 16116,2942 15968,2946 15823,2963 15684,2989 15550,3022 15307,3093 15285,3073 15277,3063 15269,3052 15263,3042 15259,3031 15256,3020 15254,3009 15253,2998 15254,2987 15255,2975 15258,2964 15266,2941 15279,2917 15295,2893 15314,2869 15359,2819 15413,2769 15473,2718 15224,2758 14986,2810 14761,2874 14546,2949 14533,2937 14523,2924 14514,2912 14508,2899 14503,2887 14501,2874 14500,2861 14500,2849 14503,2836 14506,2824 14511,2811 14518,2799 14534,2773 14554,2748 14762,2547 14578,2586 14419,2629 14281,2674 14161,2722 14056,2772 13961,2823 13790,2928 13763,2899 13743,2871 13736,2857 13730,2843 13725,2830 13722,2816 13720,2803 13720,2789 13720,2776 13722,2763 13728,2736 13738,2710 13752,2685 13768,2659 13805,2609 13889,2508 13749,2565 13625,2626 13513,2689 13413,2755 13321,2823 13235,2892 13073,3032 13015,2960 13002,2942 12989,2923 12979,2902 12970,2880 12963,2857 12960,2832 12960,2804 12963,2774 12971,2742 12983,2706 13001,2667 13023,2624 12921,2686 12825,2751 12735,2819 12651,2889 12572,2961 12500,3036 12433,3113 12372,3193 12342,3171 12317,3149 12297,3126 12282,3103 12270,3078 12262,3053 12257,3028 12254,3002 12254,2976 12255,2949 12259,2896 12265,2842 12267,2789 12162,2880 12065,2971 11889,3156 11560,3529 11552,3522 11543,3513 11535,3502 11527,3489 11519,3475 11511,3459 11496,3421 11481,3376 11467,3325 11439,3204 11305,3342 11169,3502 11033,3680 10903,3873 10782,4078 10674,4292 10583,4512 10513,4735 10468,4958 10452,5178 10456,5286 10469,5392 10491,5496 10522,5597 10564,5695 10617,5790 10681,5881 10756,5968 10844,6050 10945,6127 11058,6199 11186,6266 11653,5901 12143,5562 12652,5246 13181,4952 13729,4680 14294,4429 14875,4196 15473,3982"/>
    </g>
   </g>
   <g class="com.sun.star.drawing.PolyPolygonShape">
    <g>
     <path fill="none" stroke="rgb(128,128,128)" d="M 12482,17788 L 12478,17943 12463,18093 12437,18239 12402,18381 12355,18521 12298,18659 12229,18796 12149,18932 12061,19065 11967,19188 11866,19303 11758,19410 11642,19510 11517,19603 11384,19690 11240,19772 11092,19845 10943,19908 10793,19961 10642,20004 10487,20036 10329,20060 10166,20073 9998,20078 9829,20073 9666,20060 9508,20036 9354,20004 9202,19961 9053,19908 8904,19845 8756,19772 8613,19690 8479,19603 8354,19510 8238,19410 8130,19303 8029,19188 7935,19065 7847,18932 7767,18796 7698,18659 7641,18521 7594,18381 7559,18239 7533,18093 7519,17943 7514,17788 7519,17632 7533,17482 7559,17336 7594,17193 7641,17054 7698,16916 7767,16779 7847,16642 7935,16510 8029,16387 8130,16272 8238,16165 8354,16065 8479,15972 8613,15885 8756,15804 8904,15730 9053,15667 9202,15614 9354,15571 9508,15538 9666,15515 9829,15501 9998,15497 10166,15501 10329,15515 10487,15538 10642,15571 10793,15614 10943,15667 11092,15730 11240,15804 11384,15885 11517,15972 11642,16065 11758,16165 11866,16272 11967,16387 12061,16510 12149,16642 12229,16779 12298,16916 12355,17054 12402,17193 12437,17336 12463,17482 12478,17632 12482,17788"/>
    </g>
   </g>
   <g class="com.sun.star.drawing.PolyPolygonShape">
    <g>
     <path fill="none" stroke="rgb(128,128,128)" d="M 8560,11244 L 8684,11331 8797,11424 8901,11524 8997,11631 9083,11747 9162,11871 9234,12004 9298,12148 9354,12297 9399,12446 9434,12596 9458,12749 9471,12904 9474,13064 9467,13228 9450,13398 9423,13568 9388,13733 9344,13893 9290,14050 9227,14204 9154,14356 9070,14507 8975,14658 8873,14804 8767,14941 8656,15068 8539,15187 8416,15298 8285,15402 8147,15499 8000,15591 7850,15674 7702,15746 7553,15806 7405,15855 7255,15894 7102,15922 6947,15939 6788,15947 6630,15944 6479,15932 6333,15909 6192,15875 6055,15831 5922,15776 5791,15709 5662,15630 5538,15543 5425,15450 5321,15350 5226,15242 5139,15127 5061,15003 4989,14869 4925,14726 4868,14577 4823,14428 4788,14278 4764,14125 4751,13970 4748,13810 4755,13646 4772,13476 4799,13306 4834,13141 4879,12981 4932,12824 4996,12670 5069,12518 5153,12367 5247,12216 5349,12070 5456,11933 5567,11806 5684,11687 5807,11576 5937,11472 6075,11374 6221,11283 6372,11199 6521,11128 6669,11068 6818,11018 6968,10980 7120,10952 7275,10934 7434,10927 7593,10929 7744,10942 7890,10965 8030,10998 8167,11043 8300,11098 8431,11165 8560,11244"/>
    </g>
   </g>
   <g class="com.sun.star.drawing.PolyPolygonShape">
    <g>
     <path fill="none" stroke="rgb(128,128,128)" d="M 11339,11122 L 11216,11209 11102,11302 10998,11402 10903,11509 10817,11625 10738,11749 10667,11882 10602,12026 10546,12175 10500,12324 10466,12474 10442,12627 10428,12782 10425,12942 10432,13106 10450,13276 10476,13446 10512,13611 10556,13771 10610,13928 10673,14082 10746,14234 10830,14385 10925,14536 11027,14682 11133,14819 11244,14946 11361,15065 11484,15176 11615,15280 11753,15377 11899,15469 12049,15552 12198,15624 12346,15684 12495,15733 12645,15772 12797,15800 12953,15817 13112,15825 13270,15822 13421,15810 13567,15787 13708,15753 13845,15709 13978,15654 14109,15587 14238,15508 14361,15421 14475,15328 14579,15228 14674,15120 14761,15005 14840,14881 14911,14747 14976,14604 15032,14455 15077,14306 15111,14156 15135,14003 15148,13848 15152,13688 15144,13524 15127,13354 15101,13184 15066,13019 15021,12859 14968,12702 14905,12548 14831,12396 14747,12245 14653,12094 14551,11948 14444,11811 14333,11684 14216,11565 14093,11454 13963,11350 13825,11252 13678,11161 13528,11077 13379,11006 13231,10946 13082,10896 12932,10858 12780,10830 12625,10812 12466,10805 12308,10807 12156,10820 12010,10843 11870,10876 11733,10921 11600,10976 11469,11043 11339,11122"/>
    </g>
   </g>
   <g class="com.sun.star.drawing.PolyPolygonShape">
    <g>
     <path fill="none" stroke="rgb(128,128,128)" d="M 3417,12346 L 3468,12335 3516,12333 3562,12337 3605,12348 3645,12366 3683,12390 3751,12457 3810,12546 3859,12657 3899,12786 3931,12932 3969,13268 3977,13648 3956,14058 3909,14483 3838,14906 3746,15312 3636,15687 3509,16014 3368,16278 3294,16382 3217,16465 3137,16524 3097,16544 3056,16558 3015,16564 2973,16564 2931,16557 2889,16542 2710,16374 2550,16175 2410,15948 2292,15697 2199,15426 2133,15140 2095,14843 2088,14538 2115,14231 2177,13925 2277,13624 2417,13333 2599,13055 2824,12795 3097,12557 3417,12346"/>
    </g>
   </g>
   <g class="com.sun.star.drawing.PolyPolygonShape">
    <g>
     <path fill="none" stroke="rgb(128,128,128)" d="M 16260,12284 L 16209,12274 16161,12271 16116,12275 16073,12287 16032,12305 15995,12329 15926,12395 15868,12485 15818,12595 15778,12725 15746,12871 15708,13206 15700,13587 15721,13997 15768,14421 15839,14844 15931,15251 16041,15625 16168,15952 16309,16217 16383,16321 16461,16403 16540,16462 16581,16483 16621,16496 16663,16503 16704,16503 16746,16495 16789,16480 16967,16313 17127,16114 17267,15886 17385,15635 17478,15365 17545,15079 17582,14781 17589,14477 17562,14170 17500,13864 17400,13563 17260,13272 17079,12994 16853,12734 16581,12496 16260,12284"/>
    </g>
   </g>
   <g class="com.sun.star.drawing.PolyPolygonShape">
    <g>
     <path fill="none" stroke="rgb(128,128,128)" d="M 12483,8640 L 12839,8596 13184,8586 13519,8609 13840,8663 14146,8749 14434,8865 14703,9011 14951,9186 15175,9389 15375,9620 15547,9877 15690,10160 15802,10468 15881,10801 15925,11157 15932,11536 15926,11570 15915,11598 15897,11620 15875,11636 15848,11646 15815,11651 15737,11645 15641,11619 15530,11574 15267,11436 14962,11241 14627,11001 13919,10431 13247,9818 12715,9254 12534,9019 12470,8919 12426,8831 12404,8758 12401,8727 12405,8701 12414,8678 12431,8661 12454,8648 12483,8640"/>
    </g>
   </g>
   <g class="com.sun.star.drawing.PolyPolygonShape">
    <g>
     <path fill="none" stroke="rgb(128,128,128)" d="M 7186,8578 L 6830,8535 6484,8525 6150,8547 5829,8602 5523,8688 5235,8804 4965,8950 4718,9125 4493,9328 4294,9559 4122,9816 3978,10099 3866,10407 3787,10739 3743,11095 3736,11474 3742,11508 3754,11536 3771,11558 3793,11574 3821,11585 3853,11589 3932,11583 4027,11557 4139,11513 4401,11375 4707,11179 5042,10939 5749,10370 6421,9757 6954,9193 7135,8958 7199,8857 7243,8769 7265,8696 7268,8666 7264,8639 7254,8617 7238,8599 7215,8586 7186,8578"/>
    </g>
   </g>
   <g class="com.sun.star.drawing.PolyPolygonShape">
    <g>
     <path fill="none" stroke="rgb(128,128,128)" d="M 9939,8094 L 9725,8099 9514,8123 9307,8165 9105,8222 8911,8293 8726,8377 8551,8470 8387,8571 8238,8679 8103,8791 7984,8906 7884,9021 7803,9136 7743,9247 7721,9301 7706,9353 7696,9404 7693,9453 7695,9511 7703,9569 7715,9627 7733,9685 7784,9799 7854,9911 7942,10019 8049,10123 8172,10222 8313,10315 8469,10401 8640,10478 8825,10547 9025,10606 9237,10654 9462,10690 9699,10714 9947,10724 10439,10704 10666,10676 10880,10639 11080,10591 11266,10534 11436,10468 11592,10394 11731,10312 11853,10223 11958,10128 12046,10027 12115,9920 12165,9809 12183,9752 12196,9694 12204,9636 12207,9576 12204,9508 12194,9440 12177,9372 12153,9304 12087,9169 11998,9037 11888,8909 11759,8786 11615,8669 11456,8559 11285,8458 11104,8367 10916,8287 10722,8219 10526,8164 10328,8125 10132,8101 9939,8094"/>
    </g>
   </g>
   <g class="com.sun.star.drawing.PolyPolygonShape">
    <g>
     <path fill="none" stroke="rgb(128,128,128)" d="M 10009,20805 L 10396,20807 10795,20844 11187,20913 11552,21010 11718,21068 11870,21131 12006,21200 12122,21274 12217,21353 12256,21393 12288,21435 12314,21478 12333,21521 12344,21565 12349,21610 12346,21656 12337,21705 12321,21757 12299,21811 12235,21926 12147,22048 12038,22174 11909,22301 11762,22427 11598,22551 11421,22668 11232,22777 11032,22876 10823,22961 10608,23031 10389,23083 10166,23114 9942,23123 9712,23120 9483,23094 9259,23046 9040,22981 8829,22900 8628,22807 8438,22703 8260,22591 8097,22474 7951,22355 7822,22237 7714,22121 7627,22012 7564,21910 7542,21863 7526,21820 7517,21779 7515,21743 7517,21692 7529,21643 7548,21594 7576,21546 7611,21499 7653,21453 7757,21364 7885,21280 8034,21202 8201,21128 8383,21061 8779,20948 9198,20865 9616,20816 10009,20805"/>
    </g>
   </g>
   <g class="com.sun.star.drawing.PolyPolygonShape">
    <g>
     <path fill="none" stroke="rgb(128,128,128)" d="M 6322,17934 L 6451,18101 6570,18281 6678,18472 6775,18670 6859,18874 6931,19080 6989,19286 7032,19490 7060,19689 7072,19881 7068,20063 7045,20232 7005,20387 6977,20458 6945,20524 6907,20586 6865,20642 6817,20692 6764,20737 6650,20794 6519,20840 6372,20872 6212,20889 6040,20890 5858,20875 5668,20842 5471,20789 5270,20717 5065,20622 4859,20506 4654,20365 4451,20200 4252,20009 4059,19791 3873,19545 3759,19326 3662,19108 3581,18892 3515,18679 3465,18470 3430,18268 3408,18073 3400,17886 3406,17708 3423,17542 3453,17387 3494,17246 3546,17120 3608,17009 3681,16916 3720,16876 3762,16841 3895,16774 4035,16729 4183,16705 4337,16702 4495,16718 4658,16753 4825,16806 4993,16875 5164,16961 5335,17062 5505,17176 5675,17305 6006,17598 6322,17934"/>
    </g>
   </g>
   <g class="com.sun.star.drawing.PolyPolygonShape">
    <g>
     <path fill="none" stroke="rgb(128,128,128)" d="M 13553,17660 L 13413,17837 13282,18029 13161,18232 13050,18445 12952,18665 12866,18888 12793,19112 12736,19335 12694,19554 12669,19765 12661,19966 12671,20155 12701,20329 12752,20485 12785,20555 12823,20620 12867,20679 12917,20732 13028,20803 13158,20862 13305,20908 13468,20938 13645,20951 13833,20947 14032,20923 14238,20878 14451,20812 14668,20722 14888,20607 15108,20465 15326,20297 15542,20099 15752,19870 15956,19610 16089,19417 16199,19211 16287,18995 16355,18772 16404,18544 16434,18314 16449,18086 16447,17861 16432,17642 16403,17433 16363,17236 16312,17053 16252,16888 16184,16743 16109,16622 16069,16570 16028,16525 15966,16481 15902,16444 15837,16413 15770,16388 15702,16369 15632,16357 15561,16350 15489,16349 15341,16364 15189,16400 15034,16455 14875,16530 14714,16622 14550,16731 14219,16992 13885,17305 13553,17660"/>
    </g>
   </g>
  </g>
 </g>
</svg>