<?xml version="1.0" encoding="UTF-8"?>

<svg version="1.2" baseProfile="tiny" viewBox="0 0 42000 29700" preserveAspectRatio="xMidYMid" fill-rule="evenodd" clip-path="url(#presentation_clip_path)" stroke-width="28.222" stroke-linejoin="round" xmlns="http://www.w3.org/2000/svg" xmlns:xlink="http://www.w3.org/1999/xlink" xmlns:draw="urn:oasis:names:tc:opendocument:xmlns:drawing:1.0" xmlns:presentation="urn:oasis:names:tc:opendocument:xmlns:presentation:1.0" xmlns:smil="urn:oasis:names:tc:opendocument:xmlns:smil-compatible:1.0" xmlns:anim="urn:oasis:names:tc:opendocument:xmlns:animation:1.0" xml:space="preserve">
 <defs>
  <clipPath id="presentation_clip_path" clipPathUnits="userSpaceOnUse">
   <rect x="0" y="0" width="42000" height="29700"/>
  </clipPath>
 </defs>
 <g id="id2" class="Master_Slide" clip-path="url(#presentation_clip_path)">
  <g id="bg-id2" visibility="visible" class="Background">
   <rect fill="none" stroke="none" x="0" y="0" width="42000" height="29700"/>
  </g>
  <g id="bo-id2" visibility="visible" class="BackgroundObjects"/>
 </g>
 <g id="id1" class="Slide" visibility="visible" clip-path="url(#presentation_clip_path)">
  <g class="com.sun.star.drawing.CustomShape">
   <g>
    <path fill="rgb(255,255,255)" stroke="none" d="M 21049,28305 L 1098,28305 1098,1099 40999,1099 40999,28305 21049,28305 Z"/>
    <rect fill="none" stroke="none" x="1098" y="1099" width="39902" height="27207"/>
    <rect fill="none" stroke="none" x="1099" y="1099" width="39902" height="27207"/>
   </g>
  </g>
  <g class="com.sun.star.drawing.PolyLineShape">
   <g>
    <path fill="none" stroke="rgb(0,0,0)" d="M 23966,20551 L 23957,20827 23908,21087 23838,21338 23743,21582 23624,21812 23479,22031 23314,22233 23133,22422 22931,22591 22708,22744 22474,22876 22222,22983 21958,23074 21682,23140 21398,23181 21109,23193 20812,23181 20532,23140 20256,23074 19996,22983 19745,22876 19510,22744 19287,22591 19085,22422 18896,22233 18731,22031 18591,21812 18471,21582 18372,21338 18302,21087 18261,20827 18244,20551 18261,20283 18302,20023 18372,19772 18471,19525 18591,19294 18731,19079 18896,18878 19085,18688 19287,18519 19510,18366 19745,18234 19996,18123 20256,18037 20532,17967 20812,17929 21109,17913 21398,17929 21686,17967 21958,18037 22222,18123 22474,18234 22708,18366 22931,18519 23133,18688 23314,18878 23479,19079 23624,19294 23743,19525 23838,19772 23908,20023 23957,20283 23966,20551"/>
   </g>
  </g>
  <g class="com.sun.star.drawing.PolyLineShape">
   <g>
    <path fill="none" stroke="rgb(0,0,0)" d="M 19452,13012 L 19662,13168 19848,13346 20013,13544 20153,13758 20272,13989 20367,14228 20437,14479 20478,14747 20503,15015 20495,15287 20466,15572 20412,15852 20326,16128 20219,16408 20091,16680 19930,16944 19749,17196 19547,17427 19332,17633 19110,17818 18875,17983 18628,18115 18376,18234 18121,18321 17857,18383 17593,18420 17337,18432 17074,18416 16822,18366 16579,18296 16336,18197 16113,18070 15899,17909 15709,17732 15548,17534 15404,17319 15289,17089 15194,16845 15128,16594 15083,16326 15062,16062 15066,15782 15099,15502 15153,15225 15235,14945 15342,14669 15474,14397 15635,14133 15816,13882 16014,13651 16229,13440 16455,13259 16690,13094 16938,12958 17189,12843 17445,12756 17700,12694 17964,12653 18228,12645 18483,12661 18735,12707 18982,12777 19221,12880 19452,13012"/>
   </g>
  </g>
  <g class="com.sun.star.drawing.PolyLineShape">
   <g>
    <path fill="none" stroke="rgb(0,0,0)" d="M 22655,12868 L 22445,13024 22255,13206 22090,13399 21946,13614 21830,13840 21736,14088 21670,14339 21624,14603 21604,14871 21608,15147 21641,15427 21694,15704 21777,15988 21884,16264 22016,16536 22177,16804 22358,17056 22556,17278 22770,17488 22997,17674 23232,17835 23479,17975 23731,18086 23986,18173 24242,18239 24506,18276 24770,18288 25025,18272 25281,18226 25528,18152 25763,18049 25994,17921 26204,17760 26389,17583 26554,17385 26695,17171 26814,16948 26909,16701 26979,16450 27020,16186 27045,15914 27037,15642 27008,15361 26954,15085 26872,14801 26765,14529 26633,14253 26472,13989 26291,13737 26089,13506 25874,13300 25652,13115 25417,12954 25169,12814 24918,12703 24662,12612 24399,12550 24143,12513 23879,12505 23624,12521 23364,12562 23121,12637 22882,12740 22655,12868"/>
   </g>
  </g>
  <g class="com.sun.star.drawing.PolyLineShape">
   <g>
    <path fill="none" stroke="rgb(0,0,0)" d="M 13524,14281 L 13586,14265 13640,14265 13694,14273 13739,14281 13788,14306 13834,14331 13912,14413 13978,14512 14036,14640 14085,14784 14114,14957 14163,15345 14168,15782 14147,16252 14093,16742 14007,17229 13908,17699 13780,18131 13632,18507 13467,18812 13380,18931 13298,19026 13207,19096 13158,19117 13108,19133 13059,19137 13013,19137 12964,19133 12914,19117 12712,18923 12527,18696 12366,18432 12230,18144 12123,17826 12045,17501 11999,17159 11995,16804 12028,16450 12098,16099 12214,15757 12374,15419 12585,15098 12840,14797 13158,14525 13524,14281"/>
   </g>
  </g>
  <g class="com.sun.star.drawing.PolyLineShape">
   <g>
    <path fill="none" stroke="rgb(0,0,0)" d="M 28319,14211 L 28261,14195 28207,14195 28154,14199 28104,14211 28055,14232 28014,14257 27939,14331 27869,14438 27807,14562 27766,14714 27729,14883 27688,15271 27676,15708 27700,16182 27754,16668 27836,17154 27944,17624 28067,18053 28216,18432 28376,18737 28463,18857 28554,18952 28644,19018 28694,19042 28735,19059 28784,19067 28834,19067 28879,19055 28929,19038 29139,18845 29320,18614 29481,18354 29617,18065 29724,17752 29803,17427 29844,17084 29848,16730 29823,16380 29749,16025 29634,15683 29473,15345 29267,15023 29003,14722 28685,14450 28319,14211"/>
   </g>
  </g>
  <g class="com.sun.star.drawing.PolyLineShape">
   <g>
    <path fill="none" stroke="rgb(0,0,0)" d="M 23970,10011 L 24378,9957 24782,9949 25165,9974 25536,10040 25882,10135 26216,10271 26526,10440 26814,10637 27070,10872 27300,11140 27498,11437 27667,11763 27795,12117 27886,12501 27935,12909 27944,13346 27939,13387 27923,13416 27902,13445 27882,13461 27849,13469 27812,13478 27721,13469 27606,13445 27478,13391 27177,13230 26826,13004 26439,12731 25627,12072 24848,11367 24238,10720 24023,10448 23953,10332 23900,10234 23879,10147 23875,10110 23879,10081 23892,10056 23908,10032 23933,10019 23970,10011"/>
   </g>
  </g>
  <g class="com.sun.star.drawing.PolyLineShape">
   <g>
    <path fill="none" stroke="rgb(0,0,0)" d="M 17865,9937 L 17457,9887 17057,9879 16670,9904 16299,9961 15948,10065 15614,10201 15305,10365 15021,10567 14765,10802 14534,11066 14337,11359 14172,11689 14040,12047 13949,12426 13904,12839 13891,13271 13895,13313 13912,13346 13928,13366 13957,13391 13986,13399 14023,13408 14118,13399 14229,13366 14357,13321 14658,13160 15008,12933 15396,12657 16208,12002 16987,11297 17597,10650 17803,10374 17882,10258 17935,10159 17956,10077 17960,10040 17956,10011 17943,9986 17927,9961 17902,9945 17865,9937"/>
   </g>
  </g>
  <g class="com.sun.star.drawing.PolyLineShape">
   <g>
    <path fill="none" stroke="rgb(0,0,0)" d="M 21035,9380 L 20792,9384 20549,9409 20309,9459 20079,9529 19852,9611 19638,9706 19440,9813 19254,9928 19077,10052 18920,10180 18788,10316 18669,10448 18578,10580 18508,10708 18483,10769 18467,10831 18454,10889 18450,10947 18454,11013 18463,11083 18475,11144 18500,11215 18558,11342 18636,11474 18739,11594 18863,11717 19003,11833 19163,11940 19345,12039 19543,12126 19757,12204 19988,12274 20227,12328 20491,12373 20763,12398 21047,12410 21616,12389 21876,12356 22123,12311 22354,12253 22568,12191 22766,12113 22943,12031 23104,11932 23240,11833 23364,11726 23467,11606 23549,11483 23603,11355 23624,11289 23640,11227 23648,11157 23648,11087 23648,11008 23640,10930 23615,10852 23591,10778 23516,10621 23409,10464 23286,10320 23137,10176 22968,10044 22787,9916 22589,9801 22379,9694 22164,9603 21942,9525 21715,9459 21484,9417 21262,9388 21035,9380"/>
   </g>
  </g>
  <g class="com.sun.star.drawing.PolyLineShape">
   <g>
    <path fill="none" stroke="rgb(0,0,0)" d="M 21117,24022 L 21563,24030 22024,24071 22474,24150 22898,24265 23088,24327 23261,24401 23422,24484 23554,24562 23661,24653 23706,24702 23743,24751 23776,24801 23797,24855 23809,24900 23813,24953 23813,25007 23801,25061 23780,25118 23760,25184 23685,25320 23582,25456 23455,25601 23310,25745 23137,25897 22952,26038 22746,26169 22527,26297 22296,26413 22057,26507 21810,26586 21558,26652 21303,26685 21043,26693 20775,26693 20516,26664 20256,26611 20000,26532 19761,26437 19530,26330 19308,26211 19102,26083 18912,25951 18747,25811 18599,25679 18475,25543 18372,25415 18302,25296 18277,25242 18257,25197 18244,25147 18244,25106 18248,25044 18261,24991 18281,24933 18314,24879 18356,24826 18405,24772 18525,24669 18673,24574 18842,24484 19036,24397 19246,24323 19699,24187 20182,24092 20664,24038 21117,24022"/>
   </g>
  </g>
  <g class="com.sun.star.drawing.PolyLineShape">
   <g>
    <path fill="none" stroke="rgb(0,0,0)" d="M 16876,20712 L 17024,20910 17160,21116 17284,21334 17395,21565 17490,21800 17576,22035 17642,22274 17696,22505 17729,22736 17737,22962 17733,23169 17704,23362 17663,23544 17630,23626 17593,23700 17552,23770 17498,23832 17445,23894 17383,23948 17251,24009 17102,24063 16929,24100 16748,24121 16550,24121 16340,24108 16121,24063 15895,24005 15660,23923 15425,23812 15190,23680 14955,23519 14720,23325 14489,23107 14266,22855 14052,22571 13920,22319 13809,22068 13718,21821 13640,21573 13582,21334 13541,21103 13520,20877 13508,20658 13512,20456 13533,20263 13566,20085 13615,19925 13673,19780 13747,19652 13830,19545 13879,19496 13924,19459 14077,19380 14242,19327 14407,19298 14588,19298 14773,19314 14959,19360 15153,19417 15346,19496 15544,19595 15734,19710 15932,19846 16130,19990 16513,20328 16876,20712"/>
   </g>
  </g>
  <g class="com.sun.star.drawing.PolyLineShape">
   <g>
    <path fill="none" stroke="rgb(0,0,0)" d="M 25202,20407 L 25042,20613 24893,20831 24753,21066 24625,21314 24514,21565 24411,21821 24333,22080 24262,22336 24213,22587 24188,22835 24176,23066 24188,23284 24225,23482 24279,23659 24320,23746 24361,23820 24411,23882 24469,23948 24601,24026 24749,24096 24922,24146 25108,24183 25310,24199 25524,24195 25755,24166 25990,24113 26237,24038 26488,23931 26740,23803 27000,23638 27251,23445 27494,23214 27737,22950 27972,22653 28129,22431 28249,22192 28352,21944 28434,21689 28488,21425 28525,21157 28541,20897 28541,20638 28516,20386 28488,20147 28438,19916 28385,19706 28314,19521 28236,19347 28150,19207 28100,19150 28059,19096 27981,19047 27906,19005 27832,18968 27758,18939 27676,18919 27597,18902 27515,18898 27432,18894 27263,18915 27090,18952 26913,19018 26723,19100 26542,19207 26348,19339 25969,19636 25586,19995 25202,20407"/>
   </g>
  </g>
 </g>
</svg>