<?xml version="1.0" encoding="UTF-8"?>

<svg version="1.2" baseProfile="tiny" viewBox="0 0 42000 29700" preserveAspectRatio="xMidYMid" fill-rule="evenodd" clip-path="url(#presentation_clip_path)" stroke-width="28.222" stroke-linejoin="round" xmlns="http://www.w3.org/2000/svg" xmlns:xlink="http://www.w3.org/1999/xlink" xmlns:draw="urn:oasis:names:tc:opendocument:xmlns:drawing:1.0" xmlns:presentation="urn:oasis:names:tc:opendocument:xmlns:presentation:1.0" xmlns:smil="urn:oasis:names:tc:opendocument:xmlns:smil-compatible:1.0" xmlns:anim="urn:oasis:names:tc:opendocument:xmlns:animation:1.0" xml:space="preserve">
 <defs>
  <clipPath id="presentation_clip_path" clipPathUnits="userSpaceOnUse">
   <rect x="0" y="0" width="42000" height="29700"/>
  </clipPath>
 </defs>
 <g id="id2" class="Master_Slide" clip-path="url(#presentation_clip_path)">
  <g id="bg-id2" visibility="visible" class="Background">
   <rect fill="none" stroke="none" x="0" y="0" width="42000" height="29700"/>
  </g>
  <g id="bo-id2" visibility="visible" class="BackgroundObjects"/>
 </g>
 <g id="id1" class="Slide" visibility="visible" clip-path="url(#presentation_clip_path)">
  <g class="com.sun.star.drawing.CustomShape">
   <g>
    <path fill="rgb(255,255,255)" stroke="none" d="M 21049,28305 L 1098,28305 1098,1099 40999,1099 40999,28305 21049,28305 Z"/>
    <rect fill="none" stroke="none" x="1098" y="1099" width="39902" height="27207"/>
    <rect fill="none" stroke="none" x="1099" y="1099" width="39902" height="27207"/>
   </g>
  </g>
  <g class="com.sun.star.drawing.PolyLineShape">
   <g>
    <path fill="none" stroke="rgb(0,0,0)" d="M 14736,4644 L 16348,5522 17020,5934 17618,6322 18137,6697 18578,7051 18962,7393 19275,7719 19184,7995 19056,8234 18900,8449 18718,8630 18516,8787 18298,8919 18067,9026 17824,9112 17576,9182 17333,9236 16859,9294 16443,9314 16113,9306 16167,9277 16220,9252 16266,9219 16311,9187 16332,9166 16352,9149 16369,9129 16385,9112 16402,9092 16410,9063 16422,9042 16435,9022 16418,9009 16389,9001 16340,8980 16282,8968 16212,8956 15882,8931 15693,8914 15495,8881 15400,8857 15301,8828 15210,8791 15128,8750 15186,8733 15239,8717 15289,8700 15309,8692 15330,8679 15351,8667 15367,8659 15388,8642 15404,8626 15421,8609 15437,8589 15470,8543 15136,8445 14815,8329 14666,8271 14526,8210 14398,8140 14341,8094 14287,8053 14398,8057 14452,8057 14510,8057 14539,8053 14572,8049 14600,8036 14633,8024 14666,8016 14699,7999 14728,7979 14769,7958 14180,7645 14036,7558 13895,7468 13759,7369 13640,7253 13788,7249 13863,7245 13933,7241 13990,7233 14019,7229 14044,7216 14064,7212 14089,7200 14106,7191 14114,7187 14118,7175 13863,7010 13739,6919 13623,6829 13516,6734 13409,6639 13306,6536 13211,6441 13310,6454 13393,6454 13467,6454 13524,6445 13553,6445 13574,6441 13599,6437 13615,6429 13640,6421 13652,6412 13669,6404 13681,6392 13252,5992 13149,5889 13055,5782 13013,5724 12972,5666 12935,5604 12906,5543 12985,5567 13059,5588 13129,5600 13166,5604 13203,5604 13236,5604 13269,5604 13302,5600 13331,5596 13364,5584 13393,5567 13417,5559 13446,5534 13426,5497 13397,5460 13364,5423 13327,5390 13141,5238 13034,5139 12980,5085 12927,5027 12877,4957 12824,4887 12774,4809 12733,4722 12898,4739 13050,4751 13112,4751 13166,4743 13186,4743 13211,4739 13215,4735 13224,4735 13232,4726 13236,4722 13195,4574 13145,4438 13092,4322 13038,4207 12972,4108 12914,4009 12783,3828 13553,3820 13842,3811 13891,3807 13920,3803 13933,3795 13937,3795 13945,3795 13945,3791 13648,3490 13735,3469 13821,3453 13912,3449 13999,3444 14168,3449 14332,3465 14493,3498 14650,3535 14930,3613 14955,3593 14959,3580 14971,3572 14975,3556 14984,3543 14988,3535 14988,3519 14988,3506 14988,3498 14988,3482 14984,3469 14975,3444 14959,3416 14938,3383 14918,3358 14868,3304 14806,3247 14736,3185 15025,3230 15297,3292 15557,3362 15684,3407 15808,3453 15816,3436 15833,3420 15837,3407 15849,3395 15853,3379 15853,3362 15862,3354 15853,3337 15853,3321 15849,3308 15845,3292 15837,3275 15816,3251 15796,3218 15557,2987 15767,3032 15952,3086 16113,3131 16245,3193 16369,3247 16476,3304 16674,3428 16707,3395 16727,3362 16740,3346 16744,3329 16748,3313 16752,3300 16752,3284 16752,3267 16752,3251 16752,3234 16748,3205 16731,3177 16715,3148 16698,3115 16657,3057 16562,2946 16723,3008 16867,3078 16995,3152 17107,3230 17214,3304 17317,3383 17502,3543 17568,3465 17585,3444 17601,3420 17609,3395 17622,3374 17626,3346 17630,3313 17630,3284 17626,3251 17622,3214 17605,3168 17585,3127 17556,3078 17675,3148 17787,3222 17890,3304 17989,3383 18075,3465 18162,3552 18236,3642 18310,3733 18343,3704 18372,3684 18397,3659 18413,3630 18426,3597 18434,3572 18442,3539 18446,3515 18446,3482 18446,3453 18442,3391 18434,3329 18430,3267 18553,3374 18665,3473 18863,3688 19242,4116 19254,4112 19267,4100 19275,4083 19283,4075 19291,4059 19304,4038 19320,3993 19337,3939 19349,3881 19382,3741 19539,3902 19695,4092 19848,4294 20004,4512 20145,4751 20268,4994 20367,5254 20454,5510 20503,5765 20524,6017 20520,6140 20503,6264 20474,6388 20437,6499 20388,6614 20330,6726 20256,6829 20169,6928 20066,7027 19955,7109 19823,7196 19679,7270 19135,6853 18574,6462 17985,6099 17375,5761 16748,5444 16097,5155 15425,4887 14736,4644"/>
   </g>
  </g>
  <g class="com.sun.star.drawing.PolyLineShape">
   <g>
    <path fill="none" stroke="rgb(0,0,0)" d="M 27416,4644 L 25808,5522 25132,5934 24535,6322 24019,6697 23570,7051 23191,7393 22873,7719 22972,7995 23096,8234 23248,8449 23430,8630 23636,8787 23854,8919 24085,9026 24324,9112 24572,9182 24819,9236 25289,9294 25713,9314 26043,9306 25990,9277 25936,9252 25891,9219 25841,9187 25821,9166 25804,9149 25784,9129 25767,9112 25755,9092 25738,9063 25730,9042 25718,9022 25738,9009 25759,9001 25808,8980 25874,8968 25936,8956 26270,8931 26464,8914 26653,8881 26752,8857 26847,8828 26938,8791 27028,8750 26967,8733 26913,8717 26864,8700 26843,8692 26822,8679 26806,8667 26785,8659 26769,8642 26752,8626 26736,8609 26719,8589 26686,8543 27020,8445 27342,8329 27490,8271 27630,8210 27758,8140 27816,8094 27869,8053 27758,8057 27704,8057 27647,8057 27614,8053 27585,8049 27556,8036 27523,8024 27490,8016 27457,7999 27420,7979 27383,7958 27976,7645 28121,7558 28261,7468 28393,7369 28516,7253 28368,7249 28294,7245 28224,7241 28166,7233 28133,7229 28104,7216 28084,7212 28063,7200 28047,7191 28042,7187 28034,7175 28166,7092 28294,7010 28418,6919 28529,6829 28640,6734 28747,6639 28850,6536 28941,6441 28846,6454 28760,6454 28690,6454 28632,6445 28603,6445 28578,6441 28554,6437 28533,6429 28516,6421 28500,6412 28488,6404 28475,6392 28904,5992 29007,5889 29098,5782 29139,5724 29180,5666 29213,5604 29246,5543 29172,5567 29098,5588 29019,5600 28982,5604 28953,5604 28920,5604 28883,5604 28850,5600 28822,5596 28793,5584 28764,5567 28731,5559 28710,5534 28727,5497 28751,5460 28793,5423 28830,5390 29015,5238 29118,5139 29225,5027 29279,4957 29324,4887 29374,4809 29423,4722 29258,4739 29102,4751 29036,4751 28982,4743 28962,4743 28945,4739 28937,4735 28929,4735 28925,4726 28920,4722 28962,4574 29007,4438 29061,4322 29118,4207 29176,4108 29242,4009 29370,3828 28603,3820 28314,3811 28265,3807 28236,3803 28224,3795 28211,3795 28211,3791 28500,3490 28418,3469 28331,3453 28244,3449 28158,3444 27989,3449 27820,3465 27663,3498 27507,3535 27226,3613 27202,3593 27189,3580 27185,3572 27173,3556 27169,3543 27169,3535 27164,3519 27164,3506 27164,3498 27169,3482 27169,3469 27181,3444 27197,3416 27210,3383 27235,3358 27288,3304 27350,3247 27416,3185 27131,3230 26859,3292 26596,3362 26348,3453 26332,3436 26324,3420 26311,3407 26307,3395 26303,3379 26295,3362 26295,3354 26295,3337 26303,3321 26303,3308 26307,3292 26319,3275 26332,3251 26361,3218 26596,2987 26385,3032 26204,3086 26043,3131 25903,3193 25784,3247 25676,3304 25479,3428 25450,3395 25425,3362 25417,3346 25408,3329 25400,3313 25400,3300 25396,3284 25396,3267 25396,3251 25400,3234 25408,3205 25417,3177 25433,3148 25450,3115 25499,3057 25594,2946 25433,3008 25289,3078 25161,3152 25042,3230 24934,3304 24840,3383 24654,3543 24588,3465 24572,3444 24555,3420 24547,3395 24535,3374 24522,3346 24522,3313 24522,3284 24522,3251 24535,3214 24551,3168 24568,3127 24592,3078 24477,3148 24361,3222 24262,3304 24164,3383 24073,3465 23995,3552 23912,3642 23842,3733 23813,3704 23780,3684 23760,3659 23743,3630 23727,3597 23723,3572 23710,3539 23710,3515 23710,3482 23710,3453 23714,3391 23723,3329 23727,3267 23603,3374 23492,3473 23286,3688 22910,4116 22902,4112 22890,4100 22882,4083 22869,4075 22865,4059 22853,4038 22836,3993 22816,3939 22799,3881 22766,3741 22618,3902 22457,4092 22300,4294 22152,4512 22012,4751 21888,4994 21781,5254 21703,5510 21649,5765 21633,6017 21637,6140 21653,6264 21674,6388 21711,6499 21760,6614 21826,6726 21896,6829 21979,6928 22082,7027 22201,7109 22329,7196 22478,7270 23018,6853 23582,6462 24164,6099 24774,5761 25408,5444 26060,5155 26732,4887 27416,4644"/>
   </g>
  </g>
 </g>
</svg>