<?xml version="1.0" encoding="UTF-8"?>

<svg version="1.2" baseProfile="tiny" viewBox="0 0 42000 29700" preserveAspectRatio="xMidYMid" fill-rule="evenodd" clip-path="url(#presentation_clip_path)" stroke-width="28.222" stroke-linejoin="round" xmlns="http://www.w3.org/2000/svg" xmlns:xlink="http://www.w3.org/1999/xlink" xmlns:draw="urn:oasis:names:tc:opendocument:xmlns:drawing:1.0" xmlns:presentation="urn:oasis:names:tc:opendocument:xmlns:presentation:1.0" xmlns:smil="urn:oasis:names:tc:opendocument:xmlns:smil-compatible:1.0" xmlns:anim="urn:oasis:names:tc:opendocument:xmlns:animation:1.0" xml:space="preserve">
 <defs>
  <clipPath id="presentation_clip_path" clipPathUnits="userSpaceOnUse">
   <rect x="0" y="0" width="42000" height="29700"/>
  </clipPath>
 </defs>
 <g id="id2" class="Master_Slide" clip-path="url(#presentation_clip_path)">
  <g id="bg-id2" visibility="visible" class="Background">
   <rect fill="none" stroke="none" x="0" y="0" width="42000" height="29700"/>
  </g>
  <g id="bo-id2" visibility="visible" class="BackgroundObjects"/>
 </g>
 <g id="id1" class="Slide" visibility="visible" clip-path="url(#presentation_clip_path)">
  <g class="com.sun.star.drawing.CustomShape">
   <g>
    <path fill="rgb(255,255,255)" stroke="none" d="M 21049,28305 L 1098,28305 1098,1099 40999,1099 40999,28305 21049,28305 Z"/>
    <rect fill="none" stroke="none" x="1098" y="1099" width="39902" height="27207"/>
    <rect fill="none" stroke="none" x="1099" y="1099" width="39902" height="27207"/>
   </g>
  </g>
  <g class="com.sun.star.drawing.PolyLineShape">
   <g>
    <path fill="none" stroke="rgb(0,0,0)" d="M 16529,2311 L 16480,2315 16431,2327 16385,2340 16332,2356 16278,2381 16224,2410 16171,2447 16109,2488 15965,2435 15829,2397 15759,2385 15689,2377 15619,2369 15553,2369 15482,2377 15417,2385 15351,2402 15285,2422 15223,2455 15157,2492 15095,2538 15029,2591 14852,2575 14778,2575 14708,2575 14642,2579 14584,2591 14530,2599 14489,2616 14440,2637 14402,2661 14370,2682 14337,2707 14308,2735 14279,2760 14229,2822 14044,2806 13900,2806 13813,2810 13726,2822 13636,2834 13545,2859 13454,2888 13368,2933 13285,2983 13199,3040 13129,3115 13059,3201 12910,3189 12774,3193 12646,3210 12539,3242 12445,3288 12358,3341 12321,3370 12288,3403 12259,3440 12234,3477 12205,3515 12193,3560 12160,3646 12144,3737 12139,3832 12148,3935 12168,4034 12205,4137 12255,4244 12197,4339 12139,4442 12115,4496 12094,4549 12078,4607 12069,4669 12069,4726 12074,4796 12086,4858 12111,4937 12144,5011 12185,5097 12238,5180 12308,5271 12288,5324 12267,5378 12255,5431 12247,5485 12247,5547 12251,5600 12255,5658 12271,5716 12292,5778 12313,5835 12346,5897 12383,5963 12473,6091 12589,6227 12576,6301 12568,6371 12568,6433 12572,6499 12576,6561 12593,6623 12614,6680 12634,6738 12667,6792 12700,6841 12737,6895 12778,6944 12824,6985 12873,7035 12985,7113 12980,7216 12989,7307 13005,7398 13038,7480 13075,7558 13125,7628 13178,7698 13232,7760 13290,7814 13347,7867 13459,7958 13644,8082 13669,8201 13689,8255 13710,8313 13739,8366 13764,8420 13805,8473 13846,8527 13895,8576 13949,8626 14011,8667 14085,8708 14168,8754 14258,8791 14361,8828 14473,8861 14493,8939 14522,9013 14559,9083 14596,9145 14637,9199 14691,9244 14741,9281 14798,9318 14856,9351 14922,9380 15050,9426 15322,9508 14881,9784 14456,10097 14262,10266 14077,10456 13900,10658 13739,10872 13595,11112 13459,11367 13347,11647 13252,11948 13170,12274 13116,12628 13088,13008 13071,13420 12894,13741 12634,13919 12383,14145 12144,14401 11925,14689 11719,15011 11550,15357 11406,15728 11290,16120 11220,16528 11196,16944 11216,17373 11290,17806 11426,18247 11620,18680 11876,19108 12205,19525 12259,19776 12321,20011 12449,20452 12741,21268 12811,21672 12919,22047 13046,22394 13207,22715 13384,23012 13574,23284 13776,23523 13986,23746 14201,23944 14407,24113 14613,24257 14802,24380 14988,24484 15140,24562 15281,24615 15388,24648 15940,25056 16229,25250 16534,25436 16851,25617 17181,25782 17539,25943 17915,26083 18290,26437 18665,26730 18858,26858 19048,26973 19242,27072 19440,27167 19633,27241 19831,27311 20029,27365 20227,27406 20623,27464 21027,27480 21051,27480 21064,27480 21072,27480 21476,27464 21872,27406 22070,27365 22267,27311 22465,27241 22659,27167 22857,27072 23051,26973 23240,26858 23434,26730 23809,26437 24184,26083 24559,25943 24918,25782 25252,25617 25565,25436 25870,25250 26159,25056 26711,24648 26818,24615 26958,24562 27115,24484 27296,24380 27486,24257 27692,24113 27898,23944 28113,23746 28323,23523 28525,23284 28718,23012 28896,22715 29052,22394 29184,22047 29287,21672 29357,21268 29650,20452 29778,20011 29840,19776 29893,19525 30223,19108 30483,18680 30672,18247 30808,17806 30883,17373 30903,16944 30878,16528 30808,16120 30693,15728 30549,15357 30380,15011 30174,14689 29955,14401 29716,14145 29465,13919 29205,13741 29023,13420 29019,13008 28982,12628 28929,12274 28846,11948 28751,11647 28640,11367 28504,11112 28360,10872 28199,10658 28022,10456 27840,10266 27643,10097 27226,9784 26777,9508 27049,9426 27181,9380 27243,9351 27300,9318 27358,9281 27408,9244 27461,9199 27502,9145 27540,9083 27581,9013 27605,8939 27626,8861 27742,8828 27840,8791 27931,8754 28018,8708 28088,8667 28154,8626 28207,8576 28253,8527 28298,8473 28335,8420 28360,8366 28389,8313 28409,8255 28430,8201 28459,8082 28640,7958 28751,7867 28809,7814 28871,7760 28925,7698 28978,7628 29019,7558 29061,7480 29089,7398 29110,7307 29122,7216 29114,7113 29230,7035 29275,6985 29320,6944 29362,6895 29399,6841 29432,6792 29465,6738 29485,6680 29506,6623 29522,6561 29526,6499 29535,6433 29535,6371 29522,6301 29510,6227 29625,6091 29716,5963 29753,5897 29786,5835 29807,5778 29827,5716 29844,5658 29848,5600 29856,5547 29856,5485 29844,5431 29831,5378 29811,5324 29790,5271 29860,5180 29914,5097 29955,5011 29988,4937 30017,4858 30025,4796 30029,4726 30029,4669 30021,4607 30005,4549 29988,4496 29963,4442 29901,4339 29844,4244 29893,4137 29930,4034 29951,3935 29963,3832 29955,3737 29939,3646 29910,3560 29893,3515 29864,3477 29840,3440 29811,3403 29778,3370 29741,3341 29654,3288 29559,3242 29452,3210 29329,3193 29188,3189 29040,3201 28978,3115 28900,3040 28822,2983 28735,2933 28644,2888 28554,2859 28463,2834 28372,2822 28286,2810 28199,2806 28055,2806 27869,2822 27820,2760 27791,2735 27762,2707 27729,2682 27696,2661 27659,2637 27610,2616 27568,2599 27515,2591 27457,2579 27391,2575 27321,2575 27247,2575 27070,2591 27008,2538 26942,2492 26876,2455 26814,2422 26748,2402 26686,2385 26616,2377 26546,2369 26480,2369 26410,2377 26340,2385 26274,2397 26134,2435 25990,2488 25907,2430 25829,2381 25746,2348 25672,2327 25602,2315 25532,2311 25470,2323 25400,2331 25334,2348 25272,2369 25149,2422 25025,2476 24897,2525 24798,2492 24708,2476 24629,2468 24555,2463 24489,2463 24427,2472 24374,2484 24320,2505 23953,2690 23846,2670 23751,2661 23661,2661 23574,2665 23500,2682 23430,2698 23364,2723 23306,2756 23248,2789 23195,2830 23092,2921 22890,3131 22556,3119 22391,3226 22243,3346 22094,3473 21962,3605 21839,3745 21727,3898 21525,4195 21356,4500 21225,4792 21121,5056 21047,5287 20977,5056 20874,4792 20742,4500 20577,4195 20371,3898 20260,3745 20136,3605 20004,3473 19860,3346 19708,3226 19543,3119 19209,3131 19007,2921 18904,2830 18850,2789 18793,2756 18735,2723 18669,2698 18599,2682 18525,2665 18438,2661 18356,2661 18253,2670 18145,2690 17783,2505 17729,2484 17675,2472 17609,2463 17544,2463 17469,2468 17391,2476 17304,2492 17201,2525 17123,2492 17037,2463 16876,2393 16789,2360 16707,2331 16661,2323 16620,2315 16575,2311 16529,2311"/>
   </g>
  </g>
 </g>
</svg>