<?xml version="1.0" encoding="UTF-8"?>
<svg version="1.2" baseProfile="tiny" viewBox="0 0 21590 27940" preserveAspectRatio="xMidYMid" fill-rule="evenodd" clip-path="url(#presentation_clip_path)" stroke-width="28.222" stroke-linejoin="round" xmlns="http://www.w3.org/2000/svg" xmlns:xlink="http://www.w3.org/1999/xlink" xmlns:draw="urn:oasis:names:tc:opendocument:xmlns:drawing:1.0" xmlns:presentation="urn:oasis:names:tc:opendocument:xmlns:presentation:1.0" xmlns:smil="urn:oasis:names:tc:opendocument:xmlns:smil-compatible:1.0" xmlns:anim="urn:oasis:names:tc:opendocument:xmlns:animation:1.0" xml:space="preserve"> 
 <defs>
  <clipPath id="presentation_clip_path" clipPathUnits="userSpaceOnUse">
   <rect x="0" y="0" width="21590" height="27940"/>
  </clipPath>
 </defs>
 <g id="id2" class="Master_Slide" clip-path="url(#presentation_clip_path)">
  <g id="bg-id2" visibility="visible" class="Background">
   <rect fill="none" stroke="none" x="0" y="0" width="21590" height="27940"/>
  </g>  <g id="bo-id2" visibility="visible" class="BackgroundObjects"/>
 </g>
 <g id="id1" class="Slide" visibility="visible" clip-path="url(#presentation_clip_path)">
  <g class="com.sun.star.drawing.PolyPolygonShape">
   <g>
    <path fill="none" stroke="rgb(0,0,0)" d="M 2650,660 L 2480,1770 2510,480 3720,220 4310,730 2790,720 3260,1400 3160,820 2830,1020 2580,1420 2420,830 3860,260 4320,660 3140,610 3750,440 3880,610 3480,470 2810,240 3860,150 4170,480 3950,610 3870,420 3690,590 3360,550 3240,430 2550,560 2580,1020 2710,1550 2240,1150 2430,1720 2380,930 2470,430 2990,330 3150,1550 3280,1520 3170,1100 3270,790 4170,750 4240,880 4060,810 2810,770 2650,1070 3030,820 2710,870 2670,950 2750,420 2560,530 2710,240 3030,100 3710,140 3230,80 3020,50 3650,300 4000,540 3770,620 3280,670 3130,680 2790,590 2330,780 2240,1100 2120,720 1990,450 1620,150 1160,50 510,150 90,660 60,1500 270,1890 520,2100 970,2250 1490,2220 1150,2250 770,2230 180,1790 30,1150 40,1060 240,420 630,120 1160,90 1630,200 1900,440 2350,1250 3190,890 3070,1230 2880,1070 3050,1080 2790,900 2720,1090 2580,1670 2770,1470 2760,1560 2700,1420 2620,1590 2210,1230 2550,780 2310,1590 2740,2040 3040,2240 3650,2230 3980,2090 4250,1770 4370,1500 4450,1310 4370,710 3040,180 2970,160 2750,340 2730,250 2830,320 3060,640 2950,680 2640,820 2630,610 2360,590 2330,1040 2210,1320 2520,1540 2460,510 2650,210 4240,420 3120,60 3740,870 3850,870 3710,660 3550,680 2790,470 3160,380 3270,1340 3160,1640 3100,1520 3140,1460 3150,1340 3170,1010 3050,700 3270,870 3280,860 2400,1350 2750,230 3140,530 3140,460 3040,210 4300,790 4200,920 4230,460 4250,580 4340,610 3640,290 3600,270 2850,140 2750,150 2940,190 3440,500 3960,460 4040,730 3500,800 3840,940 3850,810 4110,710 4130,880 4290,780 2810,660 2920,930 2630,1040 2700,1260 2500,1690 2280,1410 2370,1100 2400,1120 2410,970 2140,890 2330,700 2390,640 2530,720 2200,910 2280,750 2190,1100 2190,950 2950,760 3010,930 3220,1560 3140,1380 2870,630 2580,310 2520,390 2550,410 2640,260 2760,350 3040,330 3770,170 3930,270 4040,280 4010,340 4130,370 3770,120 3590,80 3400,110 3290,10 3640,120 3290,450 3210,500 3340,570 3710,570 3430,270 4080,1300 3890,1440 3790,1320 3770,1160 3770,1380 3850,1460 4100,1300 3940,1150 3920,1110 3860,1120 3810,1210 4010,2070 4240,1870 3910,1890 3940,1780 4090,1910 3860,2130 3740,2160 3310,2280 2770,2130 2560,2180 2160,2200 1530,2160 1580,2130 1580,1980 1420,1740 1370,1540 1490,1440 1320,1450 1490,1460 1500,1390 1540,1250 1540,1230 1480,1190 1320,1080 1150,1180 990,830 1190,520 1240,470 1200,410 1050,700 340,790 460,610 110,850 160,870 220,790 510,690 510,860 620,840 670,820 710,780 840,650 770,660 530,880 520,1410 640,1450 740,1430 730,1470 750,1340 550,1480 520,1250 560,1240 630,1170 720,1240 840,1310 780,1230 730,1160 530,1150 470,1390 460,1340 460,1270 1280,470 1250,390 1200,580 850,650 1000,800 850,710 1120,1010 1160,1150 1490,1070 1190,1140 1290,1080 1580,1160 1520,1480 1550,1390 1500,1060 4170,660 4100,570 3920,650 3320,650 2360,480 2750,990 2660,1680 2360,1520 2730,2060 2530,1850 2540,1890 2620,1980 3160,2270 3350,2280 3620,2250 4250,1720 4460,1440 4440,1200 4450,1090 4490,960 4380,750 4470,1280 4380,1620 4340,1730 4380,1660 3920,1980 4100,1990 3770,2200 1890,2230 1620,2140 1610,2060 1940,2150 2190,2280 2510,2220 2770,2110 2670,2110 2780,2030 2430,1780 2250,1290 2390,1080 2400,1010 2880,1530 2630,1410 1680,130 990,130 750,50 150,460 0,1310 40,1390 10,1430 470,2120 510,1940 540,1820 490,1920 560,1830 430,1940 640,2190 880,2280 1140,2330 1330,2270 1360,2280 1590,2150 1450,1740 1390,1580 1300,1510 1370,1630 1580,2000 1670,2130 1830,2190 1920,2170 720,2200 300,1920 370,2040 290,1910 60,1560 130,1500 10,890 350,360 510,230 710,150 780,190 880,60 1060,80 1380,70 1910,300 2200,1170 2640,1320 2540,1160 2710,610 2980,580 2930,530 2390,620 2400,910 3280,1200 3240,1120 3290,1660 3140,1040 2880,1030 2820,910 2750,770 2770,610 3880,370 4150,550 4080,390 3790,570 3540,150 3850,210 3840,310 4330,580 3940,1520 4080,1360 4030,1070 3810,1170 4030,1170 4010,1170 4060,1200 4080,1260 3950,1490 3790,1360 3710,1340 3890,1190 3040,80 2710,170 2560,610 2980,290 3060,550 3060,90 2740,380 3840,860 3980,490 4290,700 4260,950 3660,220 2860,940 3070,890 3130,720 2880,740 2390,1580 2200,1380 2810,1560 2820,1480 2640,1640 2480,1530 2350,1330 2270,1540 2660,2150 2480,2180 2020,2270 2470,2290 2620,2000 3080,2150 3090,2150 3620,2260 4380,1710 3930,1860 3860,1700 4030,1820 4090,1800 4020,1780 4070,1780 4190,1920 4150,1970 4270,1830 4200,1860 4470,1170 4470,1110 4400,810 4390,650 4230,610 3800,550 3140,30 3390,140 3280,180 3110,150 3360,330 3210,400 3080,430 3800,670 3970,330 3990,310 3500,0 3320,0 2040,720 2050,570 1840,360 1280,0 840,90 150,500 360,290 480,220 550,970 410,630 340,670 20,1120 0,1240 280,1860 580,1900 350,2040 590,2170 580,2160 400,1850 570,1820 1280,380 880,820 1450,1220 1490,1130 1430,1650 1650,2050 850,470 520,900 740,790 870,580 1180,1260 1030,770 1400,260 2980,1090 2720,1190 2470,960 2320,1310 2270,1040 2210,1050 2440,590 2480,300 2810,270 3150,1840 3330,700 3090,820 3260,620 3560,630 3770,890 4450,940 4350,1410 4480,1640 2430,670 2540,770 2370,800 2350,870 2450,810 2790,1720 2330,1140 2900,1130 2630,990 2740,430 2610,490 2480,400 2260,700 2350,550 3350,1070 3810,120 3950,210 4070,340 4260,530 3870,910 3630,860 4180,720 4400,1040 4340,700 3540,320 3300,350 3440,40 3550,180 3370,150 2820,520 2850,300 2920,350 2970,500 3270,820 3060,1130 3120,1610 3320,1630 3330,1490 3320,1380 3250,1270 3240,1230 2620,1650 2510,1620 2480,1800 2680,1910 2900,2130 2840,2140 2950,2220 3220,2260 3470,2280 4110,2000 3980,2130 3770,2230 4120,1800 3890,1950 1280,2260 900,2270 670,2120 370,1940 350,1850 80,1610 240,1890 840,2310 1280,2330 1640,2040 1260,1520 1610,2150 1820,2080 1240,2290 410,580 290,860 140,560 70,830 180,820 60,960 390,730 820,740 770,1450 540,1340 690,1180 550,1220 620,1120 690,1250 450,1440 740,1470 540,1450 690,1430 1580,1510 1530,1120 1310,1050 1440,1140 1110,1240 1360,190 1850,310 "/>
   </g>
  </g>
 </g>
</svg>