<?xml version="1.0" encoding="UTF-8"?>
<svg version="1.2" baseProfile="tiny" viewBox="0 0 21590 27940" preserveAspectRatio="xMidYMid" fill-rule="evenodd" clip-path="url(#presentation_clip_path)" stroke-width="28.222" stroke-linejoin="round" xmlns="http://www.w3.org/2000/svg" xmlns:xlink="http://www.w3.org/1999/xlink" xmlns:draw="urn:oasis:names:tc:opendocument:xmlns:drawing:1.0" xmlns:presentation="urn:oasis:names:tc:opendocument:xmlns:presentation:1.0" xmlns:smil="urn:oasis:names:tc:opendocument:xmlns:smil-compatible:1.0" xmlns:anim="urn:oasis:names:tc:opendocument:xmlns:animation:1.0" xml:space="preserve"> 
 <defs>
  <clipPath id="presentation_clip_path" clipPathUnits="userSpaceOnUse">
   <rect x="0" y="0" width="21590" height="27940"/>
  </clipPath>
 </defs>
 <g id="id2" class="Master_Slide" clip-path="url(#presentation_clip_path)">
  <g id="bg-id2" visibility="visible" class="Background">
   <rect fill="none" stroke="none" x="0" y="0" width="21590" height="27940"/>
  </g>  <g id="bo-id2" visibility="visible" class="BackgroundObjects"/>
 </g>
 <g id="id1" class="Slide" visibility="visible" clip-path="url(#presentation_clip_path)">
  <g class="com.sun.star.drawing.PolyPolygonShape">
   <g>
    <path fill="none" stroke="rgb(0,0,0)" d="M 1320,4800 L 1530,4490 1280,4580 1290,4800 1440,4350 1150,4590 1320,4330 1330,4540 1490,4420 1360,4870 300,5320 20,5280 570,5150 180,5310 0,5350 390,5360 790,5170 2980,5190 3660,3040 3280,3720 3270,4060 3510,3940 3650,4260 3220,3810 3310,3360 3440,3540 3710,3250 3740,3430 3800,3340 3780,3460 3780,3040 3540,2900 3740,3560 3300,3560 3400,3920 3570,3880 3530,4170 3150,3840 3510,4800 3700,2910 3290,4820 2180,4960 3190,4420 3550,5250 440,5390 1240,5220 2660,5280 3470,5110 3750,4110 3640,4270 3610,4390 4290,5200 2430,5070 900,4920 1220,4710 1170,4300 1300,4590 1410,4820 1400,4930 1620,4200 1010,4570 810,5030 130,5230 120,5120 0,5210 270,5100 2450,5110 4470,4910 4420,5380 2800,5370 1790,5360 1460,5350 550,5280 3390,5240 3840,5220 4190,5310 3480,4290 3510,4570 2490,4880 2970,4900 2750,5040 2250,5000 1760,4940 2770,4970 4270,4880 4320,5300 4450,4770 3910,4690 3660,4030 3540,4050 4160,2650 3520,2000 4160,2790 3810,3620 3870,3180 3610,3250 3290,3990 3030,4860 2630,4790 3110,4620 3000,4430 2360,4810 2180,4890 3210,4290 3250,4430 3240,4790 4380,4840 3670,4650 3910,4070 3770,4260 3200,3610 3200,3500 3310,3520 3260,3380 3480,3500 3540,3310 4100,1610 4100,2540 4010,2870 3370,2570 3610,2940 3440,2830 3980,3570 3870,2490 4030,2650 4090,1950 4490,1800 4310,2630 4190,2570 4190,1560 3740,50 2590,20 3920,370 3810,80 3600,340 2370,90 4060,30 3940,630 3410,330 4050,880 4010,350 3300,130 3200,110 3030,110 1210,1120 610,2610 720,3200 1500,3290 1230,3370 1380,3490 970,5090 2040,5050 840,4990 1260,4600 1230,4910 850,4500 90,4050 1800,4470 1530,4340 1270,4180 1470,4600 1440,4840 90,3870 1660,4280 1730,4260 1660,4330 1990,4210 1090,4820 1300,4860 30,5330 830,5160 610,1330 960,4760 1200,4580 60,3660 720,3900 530,3600 280,3720 90,3560 550,3830 130,4160 730,4570 100,4570 30,4000 30,3410 1440,4190 160,3830 80,3790 10,4550 540,4470 880,1710 1100,1200 2550,450 1870,610 2080,750 1910,900 1540,800 2170,550 1760,560 1950,800 1820,920 1430,870 2850,80 4370,1100 4250,2860 3140,2130 3880,2160 3950,1400 3510,3150 3240,3950 3830,4460 3790,5130 3500,5050 2870,5000 3440,4810 3350,4540 3450,4300 3750,5360 4090,5090 3800,5020 3970,5130 4440,5070 4490,5330 3180,5310 2280,5370 3670,3400 3860,3760 3480,3630 3170,3660 3250,3440 3130,4400 4350,5200 3740,4470 4020,3770 3750,3120 4000,2710 3430,4040 3380,4150 3390,4260 3330,4380 4440,4720 4400,4610 3860,4480 3990,3950 4100,2960 3580,2730 3650,2260 3480,2480 4190,290 4210,2480 4460,1640 4480,2790 4140,2590 3950,1820 4100,1590 4430,910 3590,540 4050,180 4290,40 3560,140 3260,190 4470,940 3890,120 4330,90 4140,270 4110,1260 3740,3200 3330,3970 3310,3890 3290,3600 3360,3460 3480,3840 3740,4020 3660,3810 3810,3920 3890,3460 4020,3940 2060,5080 2310,5050 2960,4590 3070,4650 3360,5020 200,5250 280,4960 130,5230 10,4960 220,3750 2020,4630 950,5080 2170,4930 4140,4860 3800,5170 4240,5160 3300,5380 3820,4980 3070,4970 3330,4420 3190,4570 3520,3670 3180,1530 4430,2200 4430,2520 4390,2640 4340,2780 4220,790 4400,2020 3320,4810 3590,4560 4460,4710 4490,4490 4110,5110 1730,5220 120,5370 4260,5270 4310,4990 4440,4960 4010,4490 2780,4870 2940,4690 2650,4600 3070,4400 2910,4780 3240,4910 4090,4730 3830,4880 3330,1750 4040,2490 3800,2940 3710,2620 3880,2220 3470,2230 3510,2080 3140,2030 2720,1620 3730,3010 1040,3380 1350,3010 1590,3060 1740,2970 1080,3180 1030,3180 1130,3090 1520,3650 1330,3500 2020,3510 2380,3150 2200,2990 2310,3180 2430,3070 2440,3230 1600,3300 840,1860 730,2690 910,4850 1210,4630 890,4380 320,4620 660,4640 240,4390 450,4320 790,4570 2160,4230 1110,4860 890,4990 1900,4320 410,4110 180,4320 420,4270 250,4670 50,5240 20,5150 90,5040 530,5070 2840,5230 4080,700 3990,2830 4050,3650 4090,3870 3870,3650 3800,4320 4100,4450 4350,4530 4110,5020 4430,5000 4450,5200 4490,4890 4060,4680 1490,4940 1630,4730 1980,4350 870,3810 550,2800 1210,2020 1440,2180 740,2340 1330,2280 850,2390 1110,2030 1540,2160 1160,3380 890,3070 940,3190 880,3310 0,3750 510,4100 130,4000 140,3960 590,4030 1780,4880 920,3700 280,3450 40,3330 20,2260 20,1770 3410,190 3820,160 3730,750 3660,1710 3630,1620 3420,1600 3570,1490 3240,3110 3200,3590 2380,4530 1880,4480 1490,4730 1330,4900 1710,5060 1390,5050 1120,4590 570,5170 1650,5270 3060,5270 3420,5010 3440,5210 3240,5000 3570,4780 3640,5390 1210,5350 330,5160 390,4920 190,4350 30,4530 1050,4260 890,4610 470,4650 350,5230 880,730 740,1160 620,1280 900,1530 900,1740 960,1570 1080,1390 820,2260 1430,2080 2570,2280 2150,2120 2160,2150 2060,2270 2100,2190 2300,2120 1840,1950 2300,2370 2000,2210 2380,2180 2420,2280 2010,2080 2120,1940 1870,1990 4360,1720 4490,1430 4420,1150 4450,1070 4410,1440 4050,2510 3750,1610 3950,1320 3880,680 2200,390 1720,640 1480,600 750,910 840,1890 1170,2310 1030,2390 730,1770 680,1250 610,2450 600,2690 750,3190 1270,3070 1540,3630 1370,3620 1510,3710 2110,3370 3790,2380 3770,2350 4110,2920 4090,3210 3710,3320 3880,3570 3730,3960 3770,3940 3510,4010 3580,3650 3400,4340 3430,4490 3720,4380 3640,4200 3750,4030 3980,4600 4330,4490 3650,5290 1880,5000 1780,4960 2680,4650 2600,4550 3600,4540 3670,4870 3860,5230 4010,5040 2910,3410 3980,50 2150,30 2480,160 2620,190 2490,240 3120,1460 2810,530 3180,690 1620,840 1790,760 2220,680 2990,610 2470,320 2280,20 2360,280 1710,550 1490,560 1060,700 990,590 1420,310 2260,570 2370,640 2750,930 3060,1420 3390,3140 3480,2520 3670,2660 3910,3160 3710,3260 3400,2890 770,3080 1700,3630 1400,3570 2250,3420 2240,3160 2960,2970 3740,270 3540,230 4110,640 4420,130 4170,230 3880,260 3470,120 3000,190 2450,570 2860,870 1990,850 2510,760 4430,2120 4420,3000 3970,2480 3280,3010 4020,400 4140,150 4150,190 4410,1050 4490,1020 4250,940 4280,700 4480,70 4370,60 4260,280 4310,440 4490,840 4480,990 3570,2260 3640,2700 3870,3140 3980,2140 3560,1750 3550,1680 2970,1820 2640,1460 3140,1800 2740,1380 1710,770 2740,200 2780,230 2550,130 2250,100 2390,340 2100,30 4430,0 4130,90 3450,510 2500,370 4100,1710 4190,1890 4050,1920 4210,2760 4150,3020 4180,2880 3790,2740 3840,2640 3670,1920 4040,1300 4030,1010 4290,640 30,4800 50,1900 170,5250 330,5030 780,5000 660,3640 260,3810 250,4510 170,4200 2690,4700 2540,4600 2360,5020 2640,5040 2870,4860 2780,4770 3520,3360 3370,3390 2900,3650 2600,4140 1130,4260 810,3250 1570,3140 1840,3020 1250,2920 1260,2870 1110,3150 1460,3880 1220,4190 310,3600 120,3540 600,3900 720,3840 730,3880 540,5060 1700,4260 1120,4390 830,4130 860,4100 2680,3130 2800,3090 2910,3880 2380,4420 1560,4490 2510,4220 2820,3720 3120,3430 3370,3990 3100,4370 3990,3850 3600,3320 3760,3060 4150,3750 3850,4240 3890,4280 4140,3990 4230,5300 4180,5230 3810,4940 2580,5090 2900,4900 3380,4030 4480,5290 4440,5260 4390,5390 3920,5360 3850,5390 3670,5390 3750,5250 4340,5350 3720,5030 2860,5110 3540,5120 3740,5070 4490,4800 4370,4780 4370,5170 3910,4370 4450,4400 4380,4450 4220,4630 130,5320 0,5060 10,5070 90,4900 120,4690 480,4470 940,900 940,710 1090,840 910,640 1610,310 1180,1420 1020,2080 1260,1880 910,2090 1100,1450 860,950 990,1450 1190,1190 1720,890 2350,970 1840,300 910,680 880,650 840,770 1340,1130 830,2840 800,2930 830,2370 830,2450 1920,2120 2090,2420 2140,2270 2430,2280 3690,1120 4030,240 4440,2570 4200,2360 4220,2250 4110,1750 2760,2860 3290,2750 3160,2380 2920,2010 3110,2060 2830,1820 3240,1420 3480,1530 3460,1460 4170,1070 3760,2300 3730,1480 3530,1560 2850,4170 3380,3420 3270,3300 3270,3260 3730,3630 3690,3690 3710,3890 3830,3300 4240,2500 3910,2160 3460,2920 670,3520 1590,4290 1300,3790 850,2840 1330,1910 1470,2510 1360,2780 1330,3140 1480,3130 1160,3800 1220,3940 1170,3590 1350,3200 1370,2980 1020,2970 760,3040 930,2890 240,4090 480,4250 1740,4890 1980,4680 1410,4500 1390,4640 960,4480 1120,5100 1450,4890 2240,5010 1330,4520 2410,3990 3620,3600 3730,3560 3450,3300 2040,3290 2060,3310 2050,3430 1850,3300 1610,3280 2470,3010 3060,2550 2780,2640 3080,2180 3040,2450 2780,2780 2120,2920 1800,2760 3880,450 3300,300 2940,490 2860,530 3090,560 1930,630 2180,950 1430,980 1750,770 3460,100 3610,1540 3980,640 3970,410 2640,110 1680,490 1320,430 1030,700 860,1730 1630,2380 2360,1960 2610,2010 2180,2450 3640,1930 2890,1070 3000,890 3220,790 3220,920 3460,880 3190,720 3010,840 2800,750 3020,1040 3790,3210 3450,2870 4120,3070 4070,3110 3950,4340 4460,4380 4480,1600 4400,260 4220,240 4260,470 4400,1740 4370,2180 4390,2940 4280,2700 4020,2680 3870,4150 3590,4260 3680,4540 1790,4810 2510,5330 250,5300 480,5340 580,4170 90,4300 60,4110 40,2680 10,2340 1490,2150 1260,2440 1320,2710 1070,3040 340,3530 810,3750 700,3490 1030,3260 990,3430 930,4060 1340,4380 1180,4410 1600,3710 850,4270 100,4930 130,4750 70,4350 300,4430 360,3830 200,3540 280,3440 540,3460 200,3340 190,3700 200,3720 60,3610 130,2160 240,1790 190,3450 440,3600 470,4090 190,3790 290,5000 2740,3750 3000,3380 3460,4750 3100,4590 2910,4400 2870,4490 3110,3890 3200,4000 3150,4260 2880,4350 1970,4370 2560,5170 3200,5390 3330,5210 3120,5290 3450,5370 3770,4760 4130,5090 4290,5330 4410,5270 4480,5380 4400,4530 4200,4750 4450,4680 4390,4030 2290,1080 2470,1490 2530,1390 2570,1400 3040,1550 3710,710 3500,1240 3340,70 3970,160 4240,130 4220,160 4270,140 4230,580 4070,200 4050,310 3920,1510 3800,1850 4170,2310 3820,2070 3820,2120 3540,1910 3560,1810 3680,2450 3880,2700 4350,1150 2660,230 2440,230 2430,460 2340,480 1540,500 830,1610 590,2590 610,2010 550,1330 780,1040 520,1300 770,850 880,900 780,1090 740,1500 1840,1030 2480,1040 2900,920 2590,740 2020,720 1370,1200 1040,2760 2170,3050 2500,3500 2060,4200 2350,4340 2460,4270 2390,4220 1130,4940 930,5070 840,4460 560,4920 620,4980 710,4840 2910,5300 50,5060 0,5260 100,5360 1950,5390 3640,3430 3190,3450 3150,3220 3050,2700 2650,2320 2210,2030 1630,2080 1370,2030 1140,2070 2110,2850 2440,2940 1700,2910 1600,3100 900,3850 640,4150 610,3970 1460,4780 950,5210 1930,5250 1580,4760 2410,4600 2750,3960 2280,4120 2790,4240 2830,3750 2470,3500 1290,3670 1370,4310 1570,4100 1750,4230 1980,4060 2010,4280 2910,2230 2700,2010 3280,1870 2670,1390 2570,1380 1820,2580 4370,4710 3660,5200 3690,5150 3610,5240 4350,5290 4410,5200 4330,4960 3420,4210 3630,4200 3990,4470 4150,3060 3890,2880 3440,2020 3220,1080 2580,1690 2040,930 2620,910 2880,0 3610,270 3770,160 3920,50 3890,1360 3600,1690 3080,700 2790,660 2780,620 2020,200 1600,450 1450,860 2240,70 2640,50 2140,200 2030,40 2280,190 1020,1090 1170,710 1050,790 1300,530 1070,1190 1030,1240 980,1310 930,3840 1130,4540 740,4230 630,4790 910,4600 1590,4910 1590,4970 1420,5070 510,4960 30,5390 80,5200 410,4480 400,4310 100,4890 2530,4440 1320,3160 1230,3250 1510,3830 1750,3670 1660,3990 3090,5370 3410,4060 3640,3780 3470,4610 3610,4700 3650,4570 3740,4880 3270,4830 2220,5020 1120,5290 780,5220 2250,4310 2160,4280 2780,3170 2970,3160 3850,3820 4140,3410 4410,3990 4410,3520 4280,2460 4270,2060 4400,1750 4490,240 4270,1190 4080,1450 3950,1380 3570,1230 3140,730 2760,510 3250,280 3450,400 3220,440 2670,340 2530,220 1740,650 1290,200 1100,480 1450,220 1880,280 920,470 1110,650 1080,430 2000,2480 2680,1760 3620,3230 3510,3250 3720,3050 4060,3430 4020,3220 3910,3990 3670,4350 3620,3980 2890,4790 3350,4620 2260,3290 2010,3310 2060,3250 2710,2990 2140,3020 1890,3170 1050,2100 1040,2510 1340,3380 980,3680 1130,3870 1080,3500 820,3590 630,3780 790,3260 550,2710 780,1650 710,990 2960,1140 2860,1190 3020,1530 3150,1740 3930,1810 3720,650 3590,390 4470,1150 4230,1810 4480,1970 4410,3220 4380,3630 4160,3680 4020,3410 2720,3610 2800,3490 2610,3540 2420,3430 3520,2100 2810,2310 2310,1850 1800,1930 1270,1950 1550,1120 2770,1290 2470,1790 1670,2490 3330,1910 3360,2770 3590,2500 3510,2640 4370,2260 2400,3940 1440,3400 1490,1600 1320,1570 910,730 3010,2550 2870,2880 3310,2800 1320,4040 300,4870 200,4970 120,4980 130,4950 290,5330 510,3210 590,2970 1030,1880 1050,1470 1020,1520 730,2150 940,2140 880,2200 1080,3190 1270,3210 2240,3690 1520,2970 1530,3070 1990,3510 1540,4290 1370,4240 1500,4040 1570,3940 2270,4860 1990,4800 2440,4520 2470,4670 2660,5030 2930,3580 3270,4220 2610,4270 3140,3760 3550,3830 3480,3700 3550,3750 3310,3740 3300,3590 3460,3780 2930,4530 2730,4540 2810,4730 4140,4580 4270,4470 4410,4240 4050,4450 4060,4130 3710,4440 3470,4460 3480,4390 3440,4270 4260,5110 3730,5320 3530,5310 2670,5180 3430,4850 3620,5190 3030,5090 2570,5130 2370,5280 1670,5140 1590,5130 1070,4730 340,5310 220,5080 150,4440 350,2710 10,1600 20,2170 270,2750 150,3440 3010,600 3460,690 3340,1460 3090,1000 3150,870 2980,1030 2760,1020 2620,1060 1810,2140 1450,1540 1110,1050 1240,2520 1100,2590 1150,2820 2940,2700 2950,2280 470,4580 490,5060 520,5250 590,5370 4240,5380 3720,5300 3950,4710 2590,5010 2270,5100 2350,5140 2530,5160 2530,4760 1760,4680 1160,5190 1170,4670 1040,4590 360,4140 290,3970 440,3540 790,3570 840,3970 690,3650 3610,3140 4350,80 3110,30 2920,340 2940,200 2630,170 2360,180 3050,1880 3300,1980 1520,2610 1940,3050 1770,3140 1890,3220 2980,2960 3280,2930 3180,3130 2170,4110 2490,3690 2530,3740 2930,3200 2670,3230 2040,4090 1750,3770 2670,4690 2510,3910 3110,3600 3090,3070 2920,3050 2070,2340 2280,2060 1940,2320 1740,2200 1600,2180 1240,2660 1050,2410 2330,850 2260,750 2530,840 2010,850 2240,730 1970,440 1320,1200 1210,1620 2610,1300 1500,1180 1760,1320 1970,1280 1780,1440 3390,1650 3450,1350 4140,1500 4080,1890 3550,2110 3460,2490 3900,2230 3990,2750 4260,2910 4020,2950 4350,3770 3550,3260 3480,3240 3740,3690 3820,4050 3700,4220 3220,3840 2370,4030 810,3200 890,3240 370,3880 140,2010 620,1670 640,1510 710,930 930,560 1600,0 2970,130 1950,570 2380,1140 2700,1150 2560,1280 2850,1840 3140,1550 3260,1680 3260,1550 1360,3370 60,1540 40,5040 220,3560 850,2970 720,2920 900,1590 860,1610 840,1020 1970,10 2120,390 2050,350 1900,130 1540,900 1230,940 1580,230 1230,380 1020,280 2170,1610 2670,1920 2500,2060 3060,2400 3170,2680 3160,2770 2530,2590 1620,2720 2850,2250 4240,1750 3960,770 4140,590 4190,400 3640,580 3360,380 3020,330 3180,0 3660,250 3820,870 3830,760 3820,770 3760,1530 3760,1800 3740,2350 3630,2320 3140,2600 2560,2520 2680,2380 1900,2980 1500,3260 1070,2480 1190,4080 1290,4450 1040,4220 1100,4160 1010,3540 670,4070 550,4110 510,4050 2340,4500 1570,3660 1080,3960 1270,4100 1350,4000 1280,3960 1420,3740 1720,3540 2520,3880 4270,1970 4210,1900 3890,2310 4140,2430 4140,3150 4360,4690 4190,4420 3600,5070 3640,4780 3990,4520 3840,4470 3800,4350 4170,3800 4140,3780 3640,3990 3810,3140 3750,2950 4470,1790 4160,1050 4300,610 4380,500 4370,1020 4140,1240 4160,1280 4360,1920 4460,2610 4310,2560 4420,2870 3720,2400 3580,400 4030,90 4270,390 3940,340 2750,1340 2440,2160 2500,2300 2740,2450 2750,2350 1280,3720 2160,4900 1690,4980 1510,4990 1510,4710 1490,4530 2500,4560 2800,5140 2870,4610 2990,4620 3650,3780 3500,3450 3290,3350 3410,3210 3440,3270 3460,3130 3540,3040 3970,3710 3630,3300 3200,3410 3230,3430 3500,3720 2920,5150 3640,4950 3450,5150 3060,5170 2550,5310 2660,5120 3090,3560 3030,4760 2960,4820 3710,4960 4050,5360 4090,4750 4470,4890 4230,4950 3840,5080 4440,4450 4490,4830 4280,5210 4460,5370 3960,4860 4100,4670 4020,4500 4040,4230 2340,3280 760,5250 860,5270 1070,5050 1010,5000 320,5240 80,5140 120,3100 1580,1630 1240,2180 1400,2530 1100,3100 2410,1480 410,1930 860,2380 880,3410 880,3550 1130,2730 2630,510 2760,300 1620,920 1770,930 1920,240 1530,280 10,60 200,230 830,840 750,800 80,170 690,1920 550,2370 360,3540 770,2930 790,2650 720,1010 1120,540 1400,490 1660,660 1650,700 1570,720 1370,630 960,1060 1160,1380 1660,1420 1420,1250 1420,1440 1350,1540 1800,1550 1680,1750 1620,1920 1480,2720 1510,2930 1880,2800 1850,2880 1670,2830 1560,3070 3210,2710 3810,2860 3280,2170 3230,2260 1640,3570 3590,4560 3560,4650 3490,4710 3450,4960 3130,4970 3230,4480 2290,4080 1590,4410 240,4180 640,3920 700,3720 580,2860 790,3460 350,5390 1430,4690 930,5170 2610,5230 2520,4030 2890,3600 360,4740 400,4560 1240,3740 1340,4240 1820,3500 2020,3240 2660,4030 640,4910 790,4920 2040,5090 1920,5110 2020,5270 2340,5020 2290,4910 2350,4830 2420,4860 2620,4840 1660,4910 1330,4730 990,4810 780,4480 650,4490 550,4560 800,4650 610,4700 590,4700 810,4600 1020,4530 950,4090 3250,320 3190,110 2410,30 2260,340 2080,40 1380,240 770,30 320,390 1200,140 1500,90 3220,1020 3610,710 3660,740 3720,1360 1320,1040 1270,960 1490,770 4070,1050 4110,970 4320,1200 4250,1500 3610,1050 2410,1930 2050,1620 1700,2140 1520,2460 1640,2500 1660,2690 1870,2200 1660,2250 2280,2550 2010,2630 2180,2400 2880,1690 3220,1920 3620,1730 4050,1670 3980,1540 3840,1350 3830,1780 4380,2540 4070,2640 4060,2900 4320,3020 4340,3940 3510,4400 3760,3980 4010,4000 3450,2510 3990,3180 3860,2910 3940,2980 4410,3580 4450,4690 4480,2300 4100,450 3840,650 3910,940 4350,260 4370,390 4400,60 4250,160 3660,200 3270,370 3290,740 3320,730 3220,870 3590,170 3880,110 3280,30 3440,1180 3570,1370 3090,1930 3130,2300 3010,2320 1930,4010 1780,4000 1990,4280 1590,4040 1520,3870 1910,3820 2600,3310 2610,3390 2760,3550 2670,3560 2320,3680 1680,3310 1700,3160 1360,3550 730,3310 520,3410 380,3260 160,680 10,170 70,20 40,40 250,20 160,100 900,400 140,1870 40,320 40,3080 40,3210 260,2610 260,2590 370,1450 380,430 1310,380 1430,680 1180,870 920,1300 880,1120 1000,520 600,490 490,1220 400,580 810,1420 970,1100 1090,1820 1190,1240 1510,2220 1960,1740 2090,2120 1650,1990 2640,720 3110,440 2620,860 4410,240 4450,740 4390,400 4130,720 4330,4410 3200,3060 3450,2960 4340,1960 4160,1490 3050,2540 "/>
   </g>
  </g>
 </g>
</svg>