<?xml version="1.0" encoding="UTF-8"?>
<svg version="1.2" baseProfile="tiny" viewBox="0 0 21590 27940" preserveAspectRatio="xMidYMid" fill-rule="evenodd" clip-path="url(#presentation_clip_path)" stroke-width="28.222" stroke-linejoin="round" xmlns="http://www.w3.org/2000/svg" xmlns:xlink="http://www.w3.org/1999/xlink" xmlns:draw="urn:oasis:names:tc:opendocument:xmlns:drawing:1.0" xmlns:presentation="urn:oasis:names:tc:opendocument:xmlns:presentation:1.0" xmlns:smil="urn:oasis:names:tc:opendocument:xmlns:smil-compatible:1.0" xmlns:anim="urn:oasis:names:tc:opendocument:xmlns:animation:1.0" xml:space="preserve"> 
 <defs>
  <clipPath id="presentation_clip_path" clipPathUnits="userSpaceOnUse">
   <rect x="0" y="0" width="21590" height="27940"/>
  </clipPath>
 </defs>
 <g id="id2" class="Master_Slide" clip-path="url(#presentation_clip_path)">
  <g id="bg-id2" visibility="visible" class="Background">
   <rect fill="none" stroke="none" x="0" y="0" width="21590" height="27940"/>
  </g>  <g id="bo-id2" visibility="visible" class="BackgroundObjects"/>
 </g>
 <g id="id1" class="Slide" visibility="visible" clip-path="url(#presentation_clip_path)">
  <g class="com.sun.star.drawing.PolyPolygonShape">
   <g>
    <path fill="none" stroke="rgb(0,0,0)" d="M 1280,2050 L 1870,2940 1780,2470 1510,3200 1480,2460 1880,2990 1730,2940 1530,3520 1420,2570 1700,2830 1680,2920 1620,3080 1680,3220 1530,3740 1370,2610 2080,2700 1540,2380 1460,2210 1560,3000 1670,2400 1980,2930 1520,2430 1180,2140 1590,1060 1500,1540 1670,1640 1450,1620 1400,1210 1600,920 1560,1690 1300,1460 1410,1870 1430,1630 1690,1780 1580,1160 1480,1480 1200,2200 1450,2190 1420,2250 1430,2490 2370,2720 3140,2420 3080,2730 2970,2870 3020,2600 2990,2530 3070,2520 2760,2480 2610,2640 1850,2780 1440,3480 1420,3210 1380,2970 2070,2550 1610,2460 1510,2310 1750,2440 2030,2880 1370,3180 1630,4210 1680,4470 1560,4360 1780,4260 1850,4040 1250,5010 1500,4710 1600,3370 1540,3250 1480,3340 2130,2710 1840,2940 1420,2790 1250,1670 1610,980 2280,730 2700,1270 2290,1070 2580,830 2420,1240 2560,1190 2640,710 2540,830 2330,960 2550,1170 2830,1280 2500,850 2710,800 2320,1110 2520,870 2020,530 2310,470 1950,830 2220,490 2180,710 2040,800 2310,500 2810,110 3100,20 3340,180 3210,110 2650,130 1450,1240 1690,1590 1790,1920 1360,1160 1440,1520 1630,1690 1210,2010 1180,1930 1630,2910 3390,2450 3120,2690 3050,2920 3620,820 3460,1770 3260,1560 3480,1560 3400,1280 3260,2000 3720,1390 3290,1600 3660,1200 3390,1310 3410,1470 3700,1310 3920,1330 3550,1710 3500,1740 3760,1420 3540,1520 3230,1690 3230,1530 3340,1490 3340,1310 3340,2520 3210,3040 2940,2630 3040,2590 2170,2640 1850,2690 1920,2780 2230,2510 2220,2720 1350,2150 1220,1810 1930,3730 910,5620 1910,4090 2010,3220 1940,3340 1930,3390 1620,2720 1500,4040 1700,3020 1450,3660 1980,2950 1790,3170 1350,3010 1510,2980 1530,3010 1370,2980 1590,2720 1560,2350 2140,3290 1120,1960 1580,1680 1380,1850 1380,1450 1460,1400 1780,1110 1530,1240 1800,1900 1400,1250 1590,990 1810,1430 1570,1090 2300,400 2670,250 3200,0 3390,130 3450,220 3410,210 3450,130 3300,190 2850,80 3340,120 3460,300 3510,170 3500,640 3780,920 2980,3380 3040,2500 2800,2320 2890,2670 2960,2430 3000,2480 2950,2390 2610,2590 2790,2520 2750,2540 2870,2460 2950,2340 3110,2540 2760,3290 3400,1610 3350,2050 3360,1410 3640,1190 3860,1250 3840,1190 3640,1770 3460,1820 3590,1770 3500,1780 3570,1140 3610,1250 3620,410 3550,870 2420,830 2450,730 2590,710 3010,810 3120,920 2020,600 2140,540 2630,760 2910,780 2490,1060 2540,1330 2280,990 2740,1150 2430,1280 2660,1250 2870,1300 2290,1110 2810,1100 2340,920 2720,880 2610,960 2620,1090 2360,1040 2410,890 2710,990 2320,640 1830,840 2770,160 2920,140 2770,0 3110,20 3340,120 3030,60 2170,490 2210,430 2440,330 2360,1150 2220,1170 2810,1240 2740,1100 2630,1290 2280,1170 2450,760 2430,1200 1420,1910 1500,1810 1260,1590 1440,1130 1850,1930 1560,4550 1790,4050 2040,3000 1970,2450 2160,2640 2800,2430 2950,2250 3220,2790 3390,2370 3440,2490 3340,2580 3180,2650 3210,1860 3820,1640 3800,1200 3240,1600 3450,1990 3930,1330 3760,1690 3670,1740 3290,1350 3430,1380 3890,1180 3530,1180 3380,1370 3490,1140 3710,950 3520,670 3490,1810 2440,4490 2610,4200 2980,4700 3030,4500 2720,4330 2790,4330 2530,4480 1920,4870 2570,3980 2330,4610 2220,4520 2510,4000 2680,4480 3140,4870 3160,4820 2630,4120 2240,4640 1960,4970 1780,2380 1010,2020 2430,2800 1590,2630 1450,3050 1310,3050 1380,2720 1670,2750 1600,2260 1380,2920 1660,3260 1710,3350 1430,3270 1390,3060 1600,3340 1380,2420 1510,3750 1610,4510 2000,3580 2230,2600 1620,3530 1600,4010 970,5760 1280,4810 1700,4470 1710,4300 1640,4180 1360,1880 1710,1160 1490,1060 2160,760 2230,620 2370,510 3110,120 3570,400 3680,1530 3590,1500 3940,1420 3060,1570 2970,1610 3350,1610 2990,2610 2860,2440 2960,2540 2080,2510 2060,3310 1890,3180 2040,3470 1920,3820 1930,3940 1990,3880 1720,2820 1740,2700 1850,2800 1800,2580 2040,2730 1800,2440 2490,2840 2550,350 2460,480 1860,880 2030,870 2170,830 2240,740 1840,620 2320,360 1330,1440 1330,1190 1630,860 1300,1320 1630,1710 1440,1690 1210,1900 1260,1770 1530,1850 1590,1870 1630,1870 1290,1740 1720,1310 1940,1210 2010,1500 1820,1330 1740,1140 1540,1320 1780,1150 1840,1810 1650,1550 1740,1370 1520,1680 1420,1520 1340,1600 1540,1130 1360,1240 1850,4140 1750,4320 1980,4190 1230,4980 1290,5140 1470,4830 1420,4610 1510,4390 1440,3140 1200,1880 1140,2110 1160,2080 1400,2110 1540,2660 2390,2510 3420,2850 2880,3450 3340,3350 2620,2400 2950,2350 3100,3360 3310,2600 3080,3200 3290,2420 3380,2490 3320,2070 3120,2510 2980,2990 3030,3030 3000,3100 3010,3340 3030,3640 2090,4690 2210,4310 2600,4070 3040,4960 3020,5400 3250,5090 2970,5170 2330,3910 2750,4490 2880,4840 3060,4630 3130,4640 2670,4840 2800,4680 2740,4790 2750,5030 2220,4250 2390,4170 2530,4510 2130,4760 2210,4430 3140,2390 3620,2440 2410,760 2950,750 2830,1220 2730,1020 2930,1250 2170,1430 1750,1830 1660,1710 1630,1520 2820,660 3290,950 2470,670 2280,1080 2760,1230 2920,1320 2940,980 2590,2190 2680,2060 2410,2070 2970,1980 3020,1950 3090,1870 3200,1900 2670,2930 3790,310 3350,210 3410,50 3530,310 3000,120 2740,210 2700,0 2770,60 3180,10 3070,60 3330,50 3370,60 3380,40 3230,40 3600,660 3580,190 3510,240 2550,360 2040,570 1850,560 1740,640 2120,830 2110,630 1930,1410 1930,1020 1970,4620 1420,2390 1090,1960 1180,1850 1530,1920 1990,1550 2020,2010 2150,3140 2140,2980 1790,3380 1980,2770 1840,2510 1720,2480 1260,1850 760,2560 1880,3060 1200,3880 1680,3860 1670,4010 1700,4040 960,5690 1050,5960 1190,6250 1010,5380 1210,5080 1780,4470 1680,4340 1800,3610 1840,3760 1790,4060 1870,3990 2420,2220 2700,1850 3910,1130 3930,1200 3840,1360 3260,1310 3210,2590 3440,2830 3380,2500 3350,2570 3500,2440 2470,1210 2450,1520 2450,2040 2790,1910 3260,1960 2230,2990 3120,4910 3080,4810 3200,5560 2140,4380 2030,4980 1940,4840 1540,3620 1390,3490 1220,2740 1440,2560 2680,2740 2100,2500 2250,2470 2310,2740 1320,3130 1070,4010 4110,3160 3360,3290 3930,3140 3930,3170 3890,3190 3750,3120 4140,3060 3820,3250 2600,3710 2900,4800 2990,4790 3300,4760 2840,6020 2870,5580 3000,5310 2380,4390 2640,3450 2770,3130 3000,2860 1420,820 1470,960 1910,840 2100,590 2860,920 2600,690 2510,690 2600,1860 2910,2980 2850,3120 3100,2810 3070,2980 3140,3030 3050,2570 3140,2610 3280,2450 3250,2580 3920,1200 3700,1190 3710,1250 3540,910 3380,1920 3450,1600 2240,1670 2350,1510 1990,1780 1230,1680 1640,1960 1770,1780 1410,1270 1840,3000 2040,2880 2130,3050 1930,3230 950,6270 1130,5100 1660,4520 1180,5460 560,5900 1950,4410 2050,4970 2750,3740 2770,3790 2990,3890 3340,4120 4060,5140 2540,150 3550,170 3100,210 2940,270 2790,420 2160,700 2830,1240 3470,390 3830,1330 3500,1830 3600,1450 3630,1430 3120,1900 2520,2210 2080,2680 2240,2770 420,1360 1580,1050 1330,3850 1570,3160 1450,3160 1410,3360 1600,3460 1750,3590 1710,3410 1640,3730 1280,2720 790,2260 3040,790 3290,1050 3810,1670 3680,1620 3770,1730 3690,1780 3760,1670 2500,1840 2670,860 2610,940 2870,410 2620,310 2890,20 3030,20 3580,120 3150,120 3730,940 2970,1700 2680,1110 2860,960 3280,1860 3490,2590 3110,2720 3380,3090 3370,2970 2950,3300 4010,3620 3990,2650 4120,2850 4010,2550 3890,960 3530,270 3380,340 3940,0 3500,1310 "/>
   </g>
  </g>
 </g>
</svg>